<svg width="91" height="91" viewBox="0 0 91 91" fill="none" xmlns="http://www.w3.org/2000/svg">
<path d="M85.629 44.2863C84.2322 42.4066 80.9099 40.7935 76.7696 41.6064C76.6186 41.6318 76.4676 41.6699 76.304 41.708C74.9952 42.0128 73.8752 42.5209 72.8936 43.2321C70.8927 44.6292 69.4077 46.8011 67.9479 49.5954L61.7564 52.8468L60.0072 53.7613L61.7438 57.1398L63.6818 56.1237L70.2131 52.7071C70.5529 52.5166 70.8423 52.2372 71.0185 51.8815C73.1705 47.6648 74.7687 45.9756 77.1471 45.4167C79.1229 44.9595 80.7966 45.3405 81.8034 45.8994C79.664 50.1415 74.6303 57.7494 73.4725 59.0576C71.3583 61.4454 62.0333 70.5648 59.9191 71.4666H34.2595C32.548 71.4666 31.4028 71.9873 30.61 72.5715C30.1192 72.9399 29.7542 73.3209 29.4648 73.6384L29.2383 73.8925L31.9062 76.5851C32.0194 76.4708 32.1201 76.3565 32.2334 76.2421C32.6109 75.823 32.8878 75.5309 33.3911 75.3785C33.6177 75.315 33.8945 75.2769 34.2595 75.2769H60.1078C63.5686 75.2769 76.1656 61.7376 76.2914 61.5978C77.7386 59.9467 84.0434 50.4209 85.843 46.1661C86.1072 45.5437 86.0317 44.8325 85.629 44.2863Z" fill="white"/>
<path d="M56.4213 64.1004H41.6597V60.2901H56.4338C57.6545 60.2901 58.6487 59.9599 59.2905 59.3502C59.7939 58.8676 60.0833 58.2198 60.0833 57.5339C60.0833 56.1622 58.9507 54.7778 56.4338 54.7778H46.6809C45.3596 54.7778 44.2018 53.876 42.8553 52.8473C41.9366 52.136 40.5397 51.0564 39.8224 51.0564H30.5729C28.8111 51.0564 26.1809 52.6694 24.4694 54.2698L17.1327 61.6745L14.4648 58.9819L21.8519 51.5264C23.9787 49.5196 27.5023 47.2461 30.5729 47.2461H39.7973C41.7982 47.2461 43.5726 48.6178 45.133 49.8244C45.6616 50.2308 46.4418 50.8278 46.7816 50.9802H56.4213C61.2914 50.9802 63.8461 54.2825 63.8461 57.5466C63.8461 59.2994 63.1413 60.9251 61.8703 62.1444C60.9139 63.0208 59.2024 64.1004 56.4213 64.1004Z" fill="white"/>
<path d="M35.6064 77.6151L30.6104 72.5728L18.479 60.329L15.7985 57.6363L13.4452 55.2612C12.7153 54.5119 11.5198 54.5119 10.7773 55.2612L1.55295 64.5711C0.810474 65.3205 0.810474 66.5271 1.55295 67.2637L23.7015 89.6303C24.0665 89.9986 24.5573 90.1891 25.0355 90.1891C25.5137 90.1891 26.0045 89.9986 26.3694 89.6303L35.6064 80.3077C36.3363 79.571 36.3363 78.3645 35.6064 77.6151ZM25.0355 85.5786L5.5548 65.9174L12.1113 59.3002L31.5919 78.9614L25.0355 85.5786Z" fill="white"/>
<path d="M13.4504 64.5671L10.7812 67.2617L14.4746 70.9883L17.1438 68.2936L13.4504 64.5671Z" fill="white"/>
<path d="M59.9821 16.8655C59.6549 17.399 59.3655 17.9832 59.1264 18.6056C59.0509 18.5421 58.9628 18.4786 58.8873 18.4151C58.6356 18.2372 58.3965 18.0467 58.1574 17.8816C57.8302 17.6276 57.503 17.3863 57.1758 17.1577L59.3655 14.0586C59.7682 14.3507 60.1834 14.6428 60.5736 14.9477C60.7623 15.0747 60.9385 15.2017 61.1147 15.3414C61.1399 15.3541 61.1524 15.3668 61.1776 15.3922C60.7749 15.7859 60.41 16.2305 60.0828 16.7131C60.045 16.7639 60.0198 16.8147 59.9821 16.8655Z" fill="white"/>
<path d="M76.7686 41.6086V41.6594C76.7686 42.7009 76.6679 43.7424 76.4792 44.7331L72.7794 44.0218C72.8297 43.7551 72.8674 43.501 72.8926 43.2343C72.9555 42.7263 72.9933 42.1928 72.9933 41.6594C72.9933 37.7602 71.9236 33.9118 69.7968 30.2285C69.7591 30.1396 69.7213 30.076 69.6836 30.0125C69.973 29.9363 70.2625 29.8347 70.5393 29.7204C70.8414 29.5934 71.1434 29.441 71.4328 29.2759C71.9991 28.9711 72.5277 28.59 72.9933 28.1836C73.0185 28.2471 73.0562 28.3106 73.094 28.3741C75.5102 32.5782 76.756 37.0362 76.7686 41.6086Z" fill="white"/>
<path d="M33.1779 50.2703C31.4287 47.8317 30.5352 44.9358 30.5352 41.659C30.5352 31.6505 36.5631 22.112 47.952 14.0469L50.1165 17.1713C39.6337 24.5887 34.3105 32.8317 34.3105 41.659C34.3105 44.123 34.9523 46.2567 36.2233 48.0349L33.1779 50.2703Z" fill="white"/>
<path d="M63.9855 2.44855L61.8462 2.53746C60.7639 2.58826 58.7756 2.68987 54.1194 1.49597C51.1746 0.746611 45.0712 -0.815619 42.2523 4.2902C41.686 5.31899 41.5475 5.56031 46.5813 15.048C46.833 15.5179 47.0973 16.0133 47.3741 16.5213L47.5125 16.7372C47.8649 17.2326 48.469 17.5882 49.1611 17.8549C51.0614 18.5916 53.616 18.6424 53.6537 18.6424C53.8048 18.6424 56.309 18.6297 58.159 17.8803C58.8763 17.5882 59.4929 17.1945 59.8453 16.6483L60.0089 16.3435C60.2102 15.8609 60.399 15.4036 60.5752 14.9464C62.9914 9.0404 64.1743 5.4587 64.0988 4.3029L63.9855 2.44855ZM53.6537 14.8321C52.7351 14.8321 51.1369 14.5527 50.4825 14.3113C48.6451 10.8566 46.7071 7.08443 46.0024 5.4968C47.135 4.2267 49.1737 4.16319 53.1881 5.19198C56.2335 5.96674 58.3351 6.24617 59.7949 6.33507C59.1154 8.35454 57.8947 11.5298 56.7369 14.3621C56.0699 14.5908 54.585 14.8321 53.6537 14.8321Z" fill="white"/>
<path d="M59.2151 28.422C59.278 28.2569 59.2151 28.168 59.0389 28.168H56.5976C56.434 28.168 56.3207 28.2569 56.2704 28.422L53.3508 35.4711H53.2753L50.3179 28.422C50.2676 28.2569 50.1543 28.168 49.9907 28.168H47.5242C47.348 28.168 47.2851 28.2569 47.348 28.422L51.1485 36.5888V36.6396H48.6568C48.4932 36.6396 48.4051 36.7158 48.4051 36.8936V38.3669C48.4051 38.532 48.4932 38.6209 48.6568 38.6209H51.7274C51.8281 38.6209 51.8784 38.6717 51.8784 38.7734V39.8021C51.8784 39.9037 51.8281 39.9545 51.7274 39.9545H48.6568C48.4932 39.9545 48.4051 40.0435 48.4051 40.2086V41.6819C48.4051 41.8597 48.4932 41.9359 48.6568 41.9359H51.7274C51.8281 41.9359 51.8784 41.9867 51.8784 42.0883V45.162C51.8784 45.3271 51.9539 45.416 52.1301 45.416H54.433C54.6092 45.416 54.6847 45.3271 54.6847 45.162V42.0883C54.6847 41.9867 54.7351 41.9359 54.8357 41.9359H57.8812C58.0448 41.9359 58.1329 41.8597 58.1329 41.6819V40.2086C58.1329 40.0435 58.0448 39.9545 57.8812 39.9545H54.8357C54.7351 39.9545 54.6847 39.9037 54.6847 39.8021V38.7734C54.6847 38.6717 54.7351 38.6209 54.8357 38.6209H57.8812C58.0448 38.6209 58.1329 38.532 58.1329 38.3669V36.8936C58.1329 36.7158 58.0448 36.6396 57.8812 36.6396H55.4146V36.5888L59.2151 28.422Z" fill="white"/>
<path d="M89.0774 18.3621C88.4947 16.9655 87.5237 15.7771 86.2734 14.9195C85.6422 14.4907 84.9624 14.16 84.2462 13.9394C83.5179 13.7067 82.741 13.5842 81.9398 13.5842C80.9323 13.5842 79.9491 13.7802 79.0266 14.16C78.978 14.1845 78.9294 14.1967 78.893 14.2212C78.8688 14.2335 78.8323 14.2457 78.8081 14.258C78.0069 14.6133 77.2786 15.1033 76.611 15.7281C76.4046 15.9241 76.2104 16.1324 76.0283 16.3529C75.737 16.696 75.4214 17.1003 75.0208 17.6271L74.8144 17.8966C74.6323 18.1539 72.9208 20.6776 72.6173 21.1309C72.4959 21.3147 72.3624 21.5107 72.2167 21.719L71.9618 22.0865C71.6705 22.5153 71.3063 22.9931 70.9665 23.4464C70.8087 23.6547 70.6508 23.8507 70.5052 24.0099C70.3717 24.1692 70.2503 24.2917 70.1653 24.3652C69.8011 24.7205 69.3763 24.99 68.9029 25.1861C68.4173 25.3821 67.9075 25.4801 67.3855 25.4801C67.0214 25.4801 66.6694 25.4311 66.3173 25.3331C66.2566 25.3208 66.1959 25.2963 66.1231 25.2718C66.0139 25.2351 65.9168 25.1983 65.8075 25.1493C65.0792 24.843 64.4601 24.3285 64.0231 23.6669C63.8046 23.3361 63.6225 22.9686 63.5133 22.6011C63.3919 22.1845 63.3312 21.7925 63.3312 21.3882C63.3312 20.8369 63.4405 20.3101 63.6468 19.7955C63.9503 19.0727 64.4601 18.4479 65.1156 17.9946C65.4312 17.7741 65.7954 17.6026 66.1717 17.48C66.5722 17.3575 66.9728 17.2963 67.3613 17.2963C67.8954 17.2963 68.4052 17.4065 68.8786 17.5903C69.352 17.7863 69.7769 18.0681 70.141 18.4111C70.226 18.4969 70.3474 18.6317 70.4809 18.7787C70.7115 19.0605 71.0029 19.428 71.3185 19.8323C71.3792 19.9058 71.4277 19.9793 71.4884 20.0528C71.9497 19.3667 73.3942 17.235 73.5884 16.9655L73.6977 16.8062C73.5641 16.6347 73.4306 16.4632 73.285 16.3162C73.0665 16.0589 72.8844 15.8629 72.7023 15.6791C71.9982 15.0053 71.185 14.4908 70.2988 14.111C69.3763 13.7312 68.3931 13.5352 67.3855 13.5352C66.3416 13.5352 65.322 13.7434 64.363 14.1477C62.9792 14.7358 61.8017 15.7159 60.952 16.9777C60.5272 17.6026 60.2116 18.2886 59.9688 19.0237C59.7382 19.7833 59.6289 20.5551 59.6289 21.3514C59.6289 22.405 59.8353 23.4341 60.2358 24.402C60.8185 25.7986 61.7896 26.987 63.0399 27.8446C63.6711 28.2611 64.3509 28.6041 65.0792 28.8247C65.8196 29.0574 66.5965 29.18 67.3855 29.18C68.3931 29.18 69.3763 28.9839 70.2988 28.6041C71.1243 28.2611 71.8769 27.7833 72.5566 27.1708C72.6052 27.134 72.6537 27.085 72.7023 27.036C72.9087 26.8522 73.0907 26.644 73.2971 26.3989C73.5884 26.0559 73.904 25.6516 74.3046 25.1248L74.511 24.8553C74.6323 24.696 75.5792 23.2871 76.3439 22.16C76.7809 21.4984 77.1572 20.9594 77.23 20.8614L77.3636 20.6654C77.6913 20.1876 78.0433 19.7098 78.3589 19.3055C78.5167 19.0972 78.6745 18.9012 78.8202 18.7419C78.9537 18.5827 79.0751 18.4601 79.1601 18.3866C79.5242 18.0436 79.9491 17.7618 80.4104 17.5658C80.5318 17.5168 80.641 17.48 80.7502 17.4433C80.8595 17.4065 80.9688 17.382 81.0901 17.3575C81.3572 17.2963 81.6364 17.2718 81.9277 17.2718C82.4861 17.2718 83.0202 17.382 83.5057 17.5903C84.2341 17.8966 84.8531 18.4111 85.2901 19.0727C85.5208 19.4035 85.6907 19.771 85.8 20.1386C85.9213 20.5306 85.982 20.9349 85.982 21.3514C85.982 21.9027 85.8728 22.4295 85.6664 22.9441C85.3508 23.6792 84.8531 24.304 84.1976 24.745C83.8578 24.9778 83.5057 25.1493 83.1416 25.2596C82.7531 25.3821 82.3404 25.4433 81.9398 25.4433C81.4179 25.4433 80.9081 25.3453 80.4225 25.1493C79.9612 24.9533 79.5364 24.6838 79.1601 24.3407C79.0751 24.255 78.9537 24.1202 78.8202 23.9732C78.6017 23.7159 78.3347 23.3729 77.9826 22.9073C77.9341 22.8461 77.8855 22.7726 77.837 22.6991C77.7399 22.8461 77.6427 22.9931 77.5335 23.1524C76.356 24.8798 75.8584 25.6271 75.7491 25.7864L75.6277 25.9579C75.7734 26.1294 75.8948 26.2887 76.0283 26.4357C76.2347 26.693 76.4289 26.9012 76.6231 27.0727C77.3271 27.7466 78.1404 28.2611 79.0266 28.6409C79.9491 29.0207 80.9323 29.2167 81.9398 29.2167C82.9838 29.2167 84.0034 29.0084 84.9624 28.6041C86.3462 28.0161 87.5236 27.036 88.3734 25.7741C88.7982 25.1248 89.126 24.4387 89.3445 23.7282C89.5751 22.9808 89.6965 22.1968 89.6965 21.4004C89.6843 20.3468 89.4901 19.3177 89.0774 18.3621Z" fill="white"/>
<g clip-path="url(#clip0)">
<path d="M21.7543 26.7333L21.4375 26.4141" stroke="white" stroke-width="2.2668" stroke-miterlimit="10" stroke-linecap="round" stroke-linejoin="round"/>
<path d="M26.1283 31.1463L25.8242 30.8398" stroke="white" stroke-width="2.2668" stroke-miterlimit="10" stroke-linecap="round" stroke-linejoin="round"/>
<path d="M21.7543 30.8398L21.4375 31.1463" stroke="white" stroke-width="2.2668" stroke-miterlimit="10" stroke-linecap="round" stroke-linejoin="round"/>
<path d="M26.1283 26.4141L25.8242 26.7333" stroke="white" stroke-width="2.2668" stroke-miterlimit="10" stroke-linecap="round" stroke-linejoin="round"/>
</g>
<g clip-path="url(#clip1)">
<path d="M72.4418 72.7724L72.125 72.4531" stroke="white" stroke-width="2.2668" stroke-miterlimit="10" stroke-linecap="round" stroke-linejoin="round"/>
<path d="M76.8158 77.1854L76.5117 76.8789" stroke="white" stroke-width="2.2668" stroke-miterlimit="10" stroke-linecap="round" stroke-linejoin="round"/>
<path d="M72.4418 76.8789L72.125 77.1854" stroke="white" stroke-width="2.2668" stroke-miterlimit="10" stroke-linecap="round" stroke-linejoin="round"/>
<path d="M76.8158 72.4531L76.5117 72.7724" stroke="white" stroke-width="2.2668" stroke-miterlimit="10" stroke-linecap="round" stroke-linejoin="round"/>
</g>
<g clip-path="url(#clip2)">
<path d="M2.74646 36.9677L2.42969 36.6484" stroke="white" stroke-width="2.2668" stroke-miterlimit="10" stroke-linecap="round" stroke-linejoin="round"/>
<path d="M7.1205 41.3807L6.81641 41.0742" stroke="white" stroke-width="2.2668" stroke-miterlimit="10" stroke-linecap="round" stroke-linejoin="round"/>
<path d="M2.74646 41.0742L2.42969 41.3807" stroke="white" stroke-width="2.2668" stroke-miterlimit="10" stroke-linecap="round" stroke-linejoin="round"/>
<path d="M7.1205 36.6484L6.81641 36.9677" stroke="white" stroke-width="2.2668" stroke-miterlimit="10" stroke-linecap="round" stroke-linejoin="round"/>
</g>
<g clip-path="url(#clip3)">
<path d="M10.0234 18.6772L11.0118 17.6797" stroke="white" stroke-width="2.2668" stroke-miterlimit="10" stroke-linecap="round" stroke-linejoin="round"/>
<path d="M15.3086 13.3451L16.2969 12.3477" stroke="white" stroke-width="2.2668" stroke-miterlimit="10" stroke-linecap="round" stroke-linejoin="round"/>
<path d="M16.2969 18.6772L15.3086 17.6797" stroke="white" stroke-width="2.2668" stroke-miterlimit="10" stroke-linecap="round" stroke-linejoin="round"/>
<path d="M11.0118 13.3451L10.0234 12.3477" stroke="white" stroke-width="2.2668" stroke-miterlimit="10" stroke-linecap="round" stroke-linejoin="round"/>
</g>
<g clip-path="url(#clip4)">
<path d="M82.2578 89.0131L83.2461 88.0156" stroke="white" stroke-width="2.2668" stroke-miterlimit="10" stroke-linecap="round" stroke-linejoin="round"/>
<path d="M87.543 83.6811L88.5313 82.6836" stroke="white" stroke-width="2.2668" stroke-miterlimit="10" stroke-linecap="round" stroke-linejoin="round"/>
<path d="M88.5313 89.0131L87.543 88.0156" stroke="white" stroke-width="2.2668" stroke-miterlimit="10" stroke-linecap="round" stroke-linejoin="round"/>
<path d="M83.2461 83.6811L82.2578 82.6836" stroke="white" stroke-width="2.2668" stroke-miterlimit="10" stroke-linecap="round" stroke-linejoin="round"/>
</g>
<defs>
<clipPath id="clip0">
<rect width="7.55174" height="7.62207" fill="white" transform="translate(20.0078 24.9688)"/>
</clipPath>
<clipPath id="clip1">
<rect width="7.55174" height="7.62109" fill="white" transform="translate(70.6953 71.0078)"/>
</clipPath>
<clipPath id="clip2">
<rect width="7.55174" height="7.62207" fill="white" transform="translate(1 35.2031)"/>
</clipPath>
<clipPath id="clip3">
<rect width="9.13557" height="9.22021" fill="white" transform="translate(8.59375 10.9023)"/>
</clipPath>
<clipPath id="clip4">
<rect width="9.13557" height="9.22021" fill="white" transform="translate(80.8281 81.2383)"/>
</clipPath>
</defs>
</svg>
