<svg width="90" height="90" viewBox="0 0 90 90" fill="none" xmlns="http://www.w3.org/2000/svg">
<g clip-path="url(#clip0)">
<g clip-path="url(#clip1)">
<path d="M20.349 36.7812H6.26206C3.60119 36.7812 1.56641 38.8317 1.56641 41.4769" stroke="white" stroke-width="3" stroke-miterlimit="10" stroke-linecap="round" stroke-linejoin="round"/>
<path d="M59.4776 46.1726V36.7812H45.3906" stroke="white" stroke-width="3" stroke-miterlimit="10" stroke-linecap="round" stroke-linejoin="round"/>
<path d="M54.7831 46.1748L32.8701 24.2617L10.957 46.1748" stroke="white" stroke-width="3" stroke-miterlimit="10" stroke-linecap="round" stroke-linejoin="round"/>
<path d="M43.8271 46.1735L36.2045 38.5039C33.9976 40.7109 31.775 40.7265 29.568 38.5039L21.8984 46.1735" stroke="white" stroke-width="3" stroke-miterlimit="10" stroke-linecap="round" stroke-linejoin="round"/>
<path d="M67.3055 75.9114V88.4331H6.26206C3.60119 88.4331 1.56641 86.3827 1.56641 83.7374V41.4766C1.56641 44.1218 3.60119 46.1722 6.26206 46.1722H67.3055V57.1287" stroke="white" stroke-width="3" stroke-miterlimit="10" stroke-linecap="round" stroke-linejoin="round"/>
<path d="M48.5214 60.2593C43.7631 60.2593 40.6953 63.7654 40.6953 68.0854C40.6953 72.4054 43.7631 75.9115 48.5214 75.9115H65.7388C68.337 75.9115 70.4344 73.8141 70.4344 71.2159V58.6941C70.4344 57.8333 69.7301 57.1289 68.8692 57.1289H67.304C67.304 58.788 65.5979 60.2593 64.1736 60.2593H59.4779H48.5214Z" stroke="white" stroke-width="3" stroke-miterlimit="10" stroke-linecap="round" stroke-linejoin="round"/>
<path d="M46.957 68.0859H50.0875" stroke="white" stroke-width="3" stroke-miterlimit="10"/>
</g>
<g clip-path="url(#clip2)">
<path d="M40.3449 15.9191L40.0234 15.5977" stroke="white" stroke-width="2.2668" stroke-miterlimit="10" stroke-linecap="round" stroke-linejoin="round"/>
<path d="M44.7812 20.3554L44.4727 20.0469" stroke="white" stroke-width="2.2668" stroke-miterlimit="10" stroke-linecap="round" stroke-linejoin="round"/>
<path d="M40.3449 20.0469L40.0234 20.3554" stroke="white" stroke-width="2.2668" stroke-miterlimit="10" stroke-linecap="round" stroke-linejoin="round"/>
<path d="M44.7812 15.5977L44.4727 15.9191" stroke="white" stroke-width="2.2668" stroke-miterlimit="10" stroke-linecap="round" stroke-linejoin="round"/>
</g>
<g clip-path="url(#clip3)">
<path d="M81.4894 40.3449L81.168 40.0234" stroke="white" stroke-width="2.2668" stroke-miterlimit="10" stroke-linecap="round" stroke-linejoin="round"/>
<path d="M85.9258 44.7812L85.6172 44.4727" stroke="white" stroke-width="2.2668" stroke-miterlimit="10" stroke-linecap="round" stroke-linejoin="round"/>
<path d="M81.4894 44.4727L81.168 44.7812" stroke="white" stroke-width="2.2668" stroke-miterlimit="10" stroke-linecap="round" stroke-linejoin="round"/>
<path d="M85.9258 40.0234L85.6172 40.3449" stroke="white" stroke-width="2.2668" stroke-miterlimit="10" stroke-linecap="round" stroke-linejoin="round"/>
</g>
<path d="M68.5133 36.8233C67.762 36.3537 49.8984 25.3839 49.8984 13.7754C49.8984 8.17778 54.4629 3.61328 60.0606 3.61328C63.8361 3.61328 67.236 5.71708 68.9829 8.91035C70.7298 5.6983 74.1297 3.61328 77.9053 3.61328C83.5029 3.61328 88.0674 8.17778 88.0674 13.7754C88.0674 25.3839 70.2039 36.3725 69.4525 36.8233L68.9829 37.1051L68.5133 36.8233Z" stroke="white" stroke-width="3" stroke-miterlimit="10" stroke-linecap="round" stroke-linejoin="round"/>
<path d="M77.9062 9.85156C80.0664 9.85156 81.8133 11.5985 81.8133 13.7586" stroke="white" stroke-width="3" stroke-miterlimit="10" stroke-linecap="round" stroke-linejoin="round"/>
<path d="M28.4531 7.81536L29.456 6.8125" stroke="white" stroke-width="2.2668" stroke-miterlimit="10" stroke-linecap="round" stroke-linejoin="round"/>
<path d="M33.8125 2.45598L34.8154 1.45312" stroke="white" stroke-width="2.2668" stroke-miterlimit="10" stroke-linecap="round" stroke-linejoin="round"/>
<path d="M34.8154 7.81536L33.8125 6.8125" stroke="white" stroke-width="2.2668" stroke-miterlimit="10" stroke-linecap="round" stroke-linejoin="round"/>
<path d="M29.456 2.45598L28.4531 1.45312" stroke="white" stroke-width="2.2668" stroke-miterlimit="10" stroke-linecap="round" stroke-linejoin="round"/>
</g>
<defs>
<clipPath id="clip0">
<rect width="90" height="90" fill="white"/>
</clipPath>
<clipPath id="clip1">
<rect width="72" height="67.3043" fill="white" transform="translate(0 22.6953)"/>
</clipPath>
<clipPath id="clip2">
<rect width="7.66286" height="7.66286" fill="white" transform="translate(38.5703 14.1445)"/>
</clipPath>
<clipPath id="clip3">
<rect width="7.66286" height="7.66286" fill="white" transform="translate(79.7148 38.5703)"/>
</clipPath>
</defs>
</svg>
