<svg width="62" height="26" viewBox="0 0 62 26" fill="none" xmlns="http://www.w3.org/2000/svg">
<path d="M5.44775 13.25V17H3.29443V6.33594H6.92725C7.98193 6.33594 8.82178 6.66309 9.44678 7.31738C10.0767 7.97168 10.3916 8.82129 10.3916 9.86621C10.3916 10.9111 10.0815 11.7363 9.46143 12.3418C8.84131 12.9473 7.98193 13.25 6.8833 13.25H5.44775ZM5.44775 11.4556H6.92725C7.3374 11.4556 7.65479 11.3213 7.87939 11.0527C8.104 10.7842 8.21631 10.3936 8.21631 9.88086C8.21631 9.34863 8.10156 8.92627 7.87207 8.61377C7.64258 8.29639 7.33496 8.13525 6.94922 8.13037H5.44775V11.4556ZM19.3418 12.6274C19.3418 14.0581 19.0024 15.1689 18.3237 15.96C17.6499 16.751 16.7124 17.1465 15.5112 17.1465C14.3149 17.1465 13.375 16.7559 12.6914 15.9746C12.0078 15.1885 11.6611 14.0898 11.6514 12.6787V10.855C11.6514 9.39014 11.9907 8.24756 12.6694 7.42725C13.3481 6.60205 14.2905 6.18945 15.4966 6.18945C16.6831 6.18945 17.6182 6.59473 18.3018 7.40527C18.9854 8.21094 19.332 9.34375 19.3418 10.8037V12.6274ZM17.1812 10.8403C17.1812 9.87842 17.0444 9.16309 16.771 8.69434C16.4976 8.22559 16.0728 7.99121 15.4966 7.99121C14.9253 7.99121 14.5029 8.21826 14.2295 8.67236C13.9561 9.12158 13.8145 9.80762 13.8047 10.7305V12.6274C13.8047 13.5601 13.9438 14.2485 14.2222 14.6929C14.5005 15.1323 14.9302 15.3521 15.5112 15.3521C16.0728 15.3521 16.4902 15.1372 16.7637 14.7075C17.0371 14.2729 17.1763 13.6016 17.1812 12.6934V10.8403ZM23.1357 17H20.9824V6.33594H23.1357V17ZM32.4009 17H30.2476L27.0981 10.0054V17H24.9448V6.33594H27.0981L30.2549 13.3379V6.33594H32.4009V17ZM40.8164 8.13037H38.1797V17H36.019V8.13037H33.4263V6.33594H40.8164V8.13037ZM51.1069 12.5908C51.1069 14.0654 50.8384 15.1934 50.3013 15.9746C49.769 16.7559 49.0073 17.1465 48.0161 17.1465C47.0347 17.1465 46.2754 16.7681 45.7383 16.0112C45.2061 15.2495 44.9302 14.1606 44.9106 12.7446V10.7305C44.9106 9.26074 45.1768 8.1377 45.709 7.36133C46.2412 6.58008 47.0054 6.18945 48.0015 6.18945C48.9976 6.18945 49.7617 6.5752 50.2939 7.34668C50.8262 8.11816 51.0972 9.21924 51.1069 10.6499V12.5908ZM49.0269 10.4302C49.0269 9.59033 48.9438 8.96045 48.7778 8.54053C48.6118 8.12061 48.353 7.91064 48.0015 7.91064C47.3423 7.91064 47.0005 8.67969 46.9761 10.2178V12.8765C46.9761 13.7358 47.0591 14.3755 47.2251 14.7954C47.396 15.2153 47.6597 15.4253 48.0161 15.4253C48.353 15.4253 48.6021 15.23 48.7632 14.8394C48.9292 14.4438 49.0171 13.8408 49.0269 13.0303V10.4302ZM58.7827 17H52.4985V15.5352L55.3843 11.8657C55.7505 11.3579 56.019 10.9136 56.1899 10.5327C56.3657 10.147 56.4536 9.77832 56.4536 9.42676C56.4536 8.95312 56.3706 8.58203 56.2046 8.31348C56.0435 8.04492 55.8091 7.91064 55.5015 7.91064C55.1646 7.91064 54.896 8.06689 54.6958 8.37939C54.5005 8.69189 54.4028 9.13135 54.4028 9.69775H52.3228C52.3228 9.04346 52.457 8.44531 52.7256 7.90332C52.999 7.36133 53.3799 6.94141 53.8682 6.64355C54.3613 6.34082 54.918 6.18945 55.5381 6.18945C56.4902 6.18945 57.2275 6.45312 57.75 6.98047C58.2773 7.50293 58.541 8.24756 58.541 9.21436C58.541 9.81494 58.3945 10.4253 58.1016 11.0454C57.8135 11.6606 57.2886 12.4199 56.5269 13.3232L55.1572 15.2788H58.7827V17Z" fill="white"/>
<rect x="29.4141" y="24" width="6" height="2" fill="white"/>
</svg>
