<svg width="488" height="222" viewBox="0 0 488 222" fill="none" xmlns="http://www.w3.org/2000/svg">
<path d="M56.2485 195.216C55.8965 196.08 55.5125 197.008 55.1285 197.776H49.1445L49.6885 197.68C49.4645 197.008 49.0485 196.048 48.6005 195.216H56.2485ZM66.5845 209.488V206.352H54.1365V204.944H63.7365V202.192H54.1365V200.752H65.2405V197.776H58.9685C59.4485 197.008 59.9605 196.144 60.4725 195.216H66.4885V192.112H62.3285C63.0645 190.992 63.9285 189.552 64.8245 188.08L60.8245 187.12C60.3765 188.528 59.5765 190.448 58.8085 191.76L59.9605 192.112H57.1125V186.896H53.5285V192.112H51.1605V186.896H47.6085V192.112H44.6965L46.2645 191.536C45.8165 190.288 44.7605 188.4 43.8325 187.024L40.5685 188.144C41.2725 189.36 42.1045 190.896 42.5525 192.112H38.2645V195.216H44.9525L44.5685 195.28C44.9845 196.016 45.4005 196.976 45.6565 197.776H39.5765V200.752H50.3925V202.192H41.1765V204.944H50.3925V206.352H38.1685V209.488H47.3525C44.6005 211.152 40.8245 212.496 37.2405 213.232C38.0405 214 39.1285 215.472 39.6725 216.4C43.4805 215.408 47.4165 213.552 50.3925 211.216V216.784H54.1365V211.024C57.0805 213.52 60.9525 215.44 64.8885 216.432C65.4645 215.408 66.5845 213.808 67.4485 212.976C63.7365 212.4 60.0245 211.152 57.3045 209.488H66.5845ZM76.7925 196.208H82.3925V198.512H76.7925V196.208ZM76.7925 191.056H82.3925V193.36H76.7925V191.056ZM91.8325 193.36H86.2325V191.056H91.8325V193.36ZM91.8325 198.512H86.2325V196.208H91.8325V198.512ZM95.8005 201.584V187.984H72.9845V201.584H78.0725C75.8005 203.536 72.6325 205.2 69.4325 206.128C70.2645 206.928 71.3845 208.336 71.9285 209.264C73.9765 208.528 75.9285 207.536 77.7525 206.288V207.44C77.7525 209.488 77.1125 212.176 71.7685 213.904C72.6005 214.64 73.8805 216.08 74.3925 217.008C80.7605 214.672 81.6885 210.64 81.6885 207.6V205.392H78.9685C80.4085 204.24 81.7525 202.992 82.8085 201.584H86.1045C87.1285 203.024 88.4085 204.272 89.8485 205.424H87.4485V216.688H91.4165V206.576C93.0805 207.664 94.9045 208.528 96.8245 209.168C97.4005 208.144 98.5525 206.672 99.3525 205.904C96.0565 205.072 92.8885 203.504 90.5845 201.584H95.8005ZM123.033 191.664H109.465V190.352H123.033V191.664ZM123.033 195.312H109.465V193.968H123.033V195.312ZM126.841 187.92H105.817V197.744H126.841V187.92ZM125.017 206.032C124.441 207.184 123.705 208.24 122.841 209.168C121.977 208.24 121.241 207.184 120.697 206.032H125.017ZM108.057 209.84H112.217V211.088C110.809 211.216 109.401 211.312 108.057 211.408V209.84ZM108.057 205.872H112.217V207.216H108.057V205.872ZM112.217 201.936V203.216H108.057V201.936H112.217ZM127.257 202.992L126.617 203.12H116.665V206.032H119.609L117.497 206.608C118.265 208.368 119.257 209.968 120.409 211.344C119.065 212.336 117.497 213.104 115.865 213.648V201.936H130.521V198.928H102.073V201.936H104.569V211.664C103.577 211.76 102.617 211.792 101.785 211.856L102.073 215.12C104.889 214.864 108.536 214.544 112.217 214.192V216.784H115.865V214.192C116.505 214.96 117.208 216.016 117.561 216.752C119.545 216.016 121.369 215.024 123.001 213.776C124.697 215.088 126.681 216.08 128.953 216.752C129.465 215.856 130.457 214.48 131.193 213.776C129.081 213.264 127.161 212.464 125.561 211.408C127.353 209.392 128.729 206.896 129.593 203.888L127.257 202.992ZM151.033 211.6H145.497V209.52H151.033V211.6ZM161.273 202.384H135.609V216.784H139.321V205.552H157.433V212.688C157.433 213.072 157.305 213.168 156.825 213.2C156.473 213.232 155.481 213.232 154.393 213.2V206.992H142.169V215.6H145.497V214.16H153.753C154.105 214.992 154.393 215.984 154.489 216.72C156.793 216.72 158.489 216.688 159.673 216.112C160.921 215.536 161.273 214.512 161.273 212.752V202.384ZM153.177 198.48H143.193V196.528H153.177V198.48ZM139.577 194V201.04H157.049V194H139.577ZM150.041 189.552V186.864H146.169V189.552H134.329V192.784H162.297V189.552H150.041ZM182.649 189.04L177.977 187.504C177.689 188.592 177.017 190.064 176.537 190.864C174.937 193.616 172.153 197.744 166.553 201.168L170.137 203.824C173.273 201.68 176.057 198.864 178.201 196.08H187.193C186.681 198.48 184.825 202.32 182.649 204.816C179.865 207.984 176.313 210.768 169.753 212.72L173.529 216.112C179.545 213.744 183.417 210.8 186.457 207.088C189.337 203.504 191.161 199.248 192.025 196.4C192.281 195.6 192.729 194.704 193.081 194.096L189.817 192.08C189.081 192.304 188.025 192.464 187.033 192.464H180.601C180.633 192.4 180.665 192.368 180.697 192.304C181.081 191.6 181.913 190.16 182.649 189.04ZM203.449 189.456V193.584C204.377 193.52 205.753 193.488 206.777 193.488H219.033C220.185 193.488 221.689 193.52 222.553 193.584V189.456C221.657 189.584 220.089 189.616 219.097 189.616H206.777C205.689 189.616 204.345 189.584 203.449 189.456ZM225.241 198.736L222.393 196.976C221.945 197.168 221.081 197.296 220.057 197.296H204.217C203.225 197.296 201.849 197.2 200.505 197.104V201.264C201.849 201.136 203.449 201.104 204.217 201.104H219.673C219.097 202.896 218.105 204.88 216.377 206.64C213.944 209.136 210.105 211.248 205.305 212.24L208.473 215.856C212.569 214.704 216.665 212.528 219.897 208.944C222.297 206.288 223.673 203.184 224.633 200.08C224.761 199.728 225.017 199.152 225.241 198.736ZM254.376 192.304L251.752 190.352C251.112 190.576 249.832 190.768 248.456 190.768H237.16C236.2 190.768 234.248 190.672 233.384 190.544V195.088C234.056 195.056 235.816 194.864 237.16 194.864H248.008C247.304 197.136 245.352 200.304 243.24 202.704C240.232 206.064 235.272 209.968 230.12 211.888L233.416 215.344C237.8 213.264 242.056 209.936 245.448 206.352C248.456 209.264 251.432 212.528 253.512 215.408L257.16 212.24C255.272 209.936 251.4 205.84 248.232 203.088C250.376 200.208 252.168 196.784 253.256 194.288C253.544 193.648 254.12 192.656 254.376 192.304ZM289.352 202.736C289.352 195.76 284.36 190.256 276.424 190.256C268.135 190.256 261.736 196.56 261.736 203.952C261.736 209.36 264.68 213.264 268.232 213.264C271.72 213.264 274.472 209.296 276.392 202.832C277.319 199.824 277.864 196.88 278.312 194.16C282.632 194.896 285.032 198.192 285.032 202.608C285.032 207.28 281.832 210.224 277.736 211.184C276.872 211.376 275.976 211.568 274.76 211.696L277.16 215.504C285.224 214.256 289.352 209.488 289.352 202.736ZM265.832 203.536C265.832 200.016 268.68 195.344 273.96 194.256C273.608 196.912 273 199.632 272.264 202C270.952 206.32 269.704 208.336 268.36 208.336C267.112 208.336 265.832 206.768 265.832 203.536ZM322.344 203.28H309.704V199.536H320.456V195.888H309.704V191.696C313.224 191.28 316.584 190.736 319.432 190L316.68 186.832C311.432 188.208 302.664 189.072 294.952 189.392C295.336 190.224 295.816 191.76 295.911 192.752C299.048 192.624 302.408 192.432 305.736 192.144V195.888H295.272V199.536H305.736V203.28H293.096V206.992H305.736V212.144C305.736 212.784 305.448 213.008 304.712 213.04C304.008 213.04 301.32 213.04 298.952 212.944C299.56 213.968 300.296 215.632 300.52 216.72C303.784 216.752 306.088 216.656 307.624 216.08C309.128 215.472 309.704 214.48 309.704 212.208V206.992H322.344V203.28ZM331.112 191.6H354.024V188.144H327.336V197.936C327.336 202.96 327.144 210.064 324.456 214.896C325.384 215.248 327.048 216.176 327.784 216.784C330.664 211.568 331.112 203.408 331.112 197.936V191.6ZM336.904 198.512H347.592V199.824H336.904V198.512ZM336.904 195.056H347.592V196.368H336.904V195.056ZM351.304 202.128V192.752H333.288V202.128H351.304ZM354.312 208.4H345.864C347.976 207.44 350.088 206.256 351.816 205.104L349.64 203.088L348.84 203.28H333.064V205.84H345.064C344.456 206.192 343.784 206.544 343.144 206.832H340.488V208.4H330.856V211.344H340.488V213.2C340.488 213.616 340.328 213.744 339.784 213.776C339.24 213.808 337.128 213.808 335.432 213.712C335.912 214.576 336.488 215.824 336.712 216.784C339.24 216.816 341.096 216.784 342.472 216.336C343.848 215.856 344.264 215.056 344.264 213.36V211.344H354.312V208.4ZM364.008 191.12L359.08 191.056C359.272 192.048 359.336 193.424 359.336 194.32C359.336 196.272 359.368 200.016 359.688 202.96C360.584 211.536 363.624 214.704 367.144 214.704C369.704 214.704 371.72 212.752 373.832 207.184L370.632 203.28C370.024 205.84 368.744 209.584 367.24 209.584C365.224 209.584 364.264 206.416 363.816 201.808C363.624 199.504 363.592 197.104 363.624 195.024C363.624 194.128 363.784 192.272 364.008 191.12ZM380.008 191.856L375.944 193.168C379.432 197.136 381.128 204.912 381.64 210.064L385.832 208.432C385.48 203.536 383.048 195.536 380.008 191.856ZM414.248 199.952V202.224H411.24V199.952H414.248ZM411.24 207.472V205.168H414.248V207.472H411.24ZM404.712 207.472V205.168H407.624V207.472H404.712ZM407.624 199.952V202.224H404.712V199.952H407.624ZM418.568 194.672V191.312H416.84L418.216 189.936C417.32 189.008 415.432 187.792 413.992 187.024L411.912 189.008C412.968 189.648 414.216 190.512 415.144 191.312H411.24V186.96H407.624V191.312H400.232V194.672H407.624V196.752H401.224V200.208L399.336 198.8C398.952 199.664 398.28 200.816 397.64 201.776C397.32 201.392 397.032 201.04 396.776 200.72C397.992 198.544 399.048 196.176 399.784 193.808L397.864 192.592L397.192 192.72H396.296V186.992H392.776V192.72H389.224V196.112H395.528C393.864 199.92 391.112 203.632 388.36 205.84C388.936 206.448 389.799 208.304 390.152 209.264C391.048 208.496 391.944 207.568 392.808 206.512V216.752H396.328V204.624C397.192 205.904 398.024 207.216 398.504 208.144L400.712 205.616L399.112 203.6C399.752 202.8 400.488 201.808 401.224 200.848V216.72H404.712V210.48H407.624V216.624H411.24V210.48H414.248V213.136C414.248 213.488 414.152 213.584 413.832 213.584C413.544 213.584 412.68 213.584 411.848 213.552C412.328 214.416 412.84 215.888 413 216.816C414.568 216.816 415.752 216.72 416.648 216.176C417.576 215.6 417.832 214.704 417.832 213.2V196.752H411.24V194.672H418.568ZM446.792 193.712V194.928H432.744V193.712H446.792ZM443.624 198.192H435.816V196.848H443.624V198.192ZM429.512 196.432H432.52V200.112H447.08V196.432H450.184V191.088H446.76C447.4 190.256 448.168 189.264 448.936 188.176L445.32 187.184C444.936 188.24 444.168 189.776 443.56 190.8L444.392 191.088H441.768V187.12H438.056V191.088H435.432L436.456 190.704C436.072 189.744 435.304 188.272 434.504 187.216L431.624 188.208C432.232 189.072 432.776 190.16 433.16 191.088H429.704C430.152 190.096 430.568 189.104 430.952 188.144L427.336 186.992C425.704 191.568 422.952 196.112 420.072 198.992C420.712 199.888 421.736 202 422.088 202.928C422.824 202.16 423.56 201.296 424.264 200.368V216.72H427.88V194.736C428.456 193.68 429 192.592 429.512 191.536V196.432ZM434.536 208.816H445.032V209.904H434.536V208.816ZM434.536 205.968H445.032V207.088H434.536V205.968ZM434.536 203.184H445.032V204.272H434.536V203.184ZM448.648 211.952V201.168H431.112V211.952H435.304C433.48 212.816 430.856 213.744 428.488 214.288C429.192 214.928 430.152 216.016 430.6 216.784C433.288 216.112 436.456 214.928 438.632 213.52L436.392 211.952H442.696L440.84 213.776C443.56 214.672 446.408 215.888 448.008 216.848L450.952 214.608C449.352 213.776 446.664 212.752 444.168 211.952H448.648Z" fill="#FCEC62"/>
<path d="M451.5 178.51C451.951 178.51 452.325 178.136 452.325 177.685C452.325 177.234 451.951 176.86 451.5 176.86C451.049 176.86 450.675 177.234 450.675 177.685C450.675 178.136 451.049 178.51 451.5 178.51ZM455.13 176.871L451.5 180.501L447.87 176.871L447.551 177.19L451.181 180.82L447.54 184.461L447.859 184.78L451.5 181.139L455.13 184.769L455.449 184.45L451.819 180.82L455.449 177.19L455.13 176.871ZM449.19 180.82C449.19 180.369 448.816 179.995 448.365 179.995C447.914 179.995 447.54 180.369 447.54 180.82C447.54 181.271 447.914 181.645 448.365 181.645C448.816 181.645 449.19 181.271 449.19 180.82ZM453.81 180.82C453.81 181.271 454.184 181.645 454.635 181.645C455.086 181.645 455.46 181.271 455.46 180.82C455.46 180.369 455.086 179.995 454.635 179.995C454.184 179.995 453.81 180.369 453.81 180.82ZM451.5 183.13C451.049 183.13 450.675 183.504 450.675 183.955C450.675 184.406 451.049 184.78 451.5 184.78C451.951 184.78 452.325 184.406 452.325 183.955C452.325 183.504 451.951 183.13 451.5 183.13ZM457.968 185H462.39V184.164H460.773V176.926H460.003C459.563 177.19 459.046 177.377 458.331 177.509V178.147H459.761V184.164H457.968V185Z" fill="white"/>
<path d="M256.191 72.4704L268.451 75.7569C268.773 75.8226 269.031 76.0866 269.104 76.4113L272.337 88.7944C272.424 89.1581 272.742 89.4133 273.111 89.4133C273.482 89.4133 273.794 89.1579 273.877 88.7944L277.117 76.4113C277.184 76.0866 277.445 75.8226 277.766 75.7569L290.03 72.4704C290.388 72.4026 290.642 72.0797 290.642 71.7076C290.642 71.332 290.388 71.0159 290.03 70.943L277.766 67.6584C277.445 67.5891 277.184 67.3287 277.117 67.004L273.877 54.621C273.794 54.2606 273.482 54 273.111 54C272.742 54 272.424 54.2606 272.337 54.6208L269.104 67.0038C269.031 67.3285 268.773 67.5889 268.451 67.6582L256.191 70.943C255.829 71.0157 255.578 71.332 255.578 71.7076C255.578 72.0797 255.829 72.4026 256.191 72.4704Z" fill="white"/>
<path d="M213.096 88.9279L215.404 97.7759C215.468 98.038 215.696 98.2191 215.957 98.2191C216.222 98.2191 216.446 98.0382 216.51 97.7759L218.818 88.9279C218.868 88.6947 219.056 88.507 219.287 88.4578L228.05 86.1136C228.304 86.0596 228.489 85.8261 228.489 85.5621C228.489 85.2982 228.304 85.0717 228.05 85.0175L219.287 82.6699C219.056 82.6191 218.868 82.4364 218.818 82.2029L216.51 73.35C216.446 73.093 216.222 72.9102 215.957 72.9102C215.696 72.9102 215.468 73.0928 215.404 73.35L213.096 82.2029C213.043 82.4364 212.858 82.6191 212.627 82.6699L203.868 85.0175C203.607 85.0717 203.426 85.2982 203.426 85.5621C203.426 85.8259 203.607 86.0594 203.868 86.1136L212.627 88.4578C212.858 88.507 213.043 88.6947 213.096 88.9279Z" fill="white"/>
<path d="M204.52 127.227V135.197C204.52 136.511 204.781 137.791 205.3 139.063C205.823 140.332 206.603 141.592 207.642 142.823C208.08 143.339 208.573 143.85 209.102 144.352V131.597C208.757 131.337 208.422 131.075 208.094 130.809C206.737 129.689 205.534 128.493 204.52 127.227Z" fill="white"/>
<path d="M212.762 147.26C213.984 148.07 215.324 148.846 216.778 149.573C217.405 149.888 218.054 150.186 218.718 150.477V136.915C216.577 136.042 214.584 135.073 212.762 134.016V147.26Z" fill="white"/>
<path d="M222.386 138.266V151.856H222.168C224.781 152.798 227.611 153.605 230.629 154.25V140.441C228.673 140.044 226.777 139.587 224.962 139.066C224.084 138.812 223.223 138.546 222.386 138.266Z" fill="white"/>
<path d="M234.297 154.919C238.069 155.535 242.058 155.917 246.208 156.002V142.11C242.078 142.029 238.089 141.682 234.297 141.09V154.919Z" fill="white"/>
<path d="M249.879 155.991C254.2 155.907 258.344 155.494 262.249 154.836V141.027C258.32 141.656 254.173 142.034 249.879 142.118V155.991Z" fill="white"/>
<path d="M265.914 154.142C267.358 153.825 268.768 153.478 270.121 153.089C271.521 152.686 272.868 152.246 274.161 151.773V138.109C271.575 138.991 268.815 139.745 265.914 140.351V154.142Z" fill="white"/>
<path d="M277.828 136.723V150.278C280.056 149.263 282.052 148.147 283.787 146.946V133.746C282.876 134.287 281.928 134.81 280.933 135.309C279.942 135.804 278.9 136.275 277.828 136.723Z" fill="white"/>
<path d="M287.234 131.405H287.452V143.911C288.996 142.343 290.122 140.708 290.792 139.064C291.314 137.792 291.575 136.511 291.575 135.197V127.23C291.462 127.369 291.351 127.508 291.237 127.645C290.102 128.983 288.755 130.233 287.234 131.405Z" fill="white"/>
<path d="M290.791 119.056C291.313 117.783 291.575 116.505 291.575 115.192C291.575 113.88 291.313 112.601 290.791 111.329C290.272 110.059 289.491 108.799 288.449 107.569C286.373 105.108 283.247 102.784 279.308 100.819C271.43 96.8743 260.325 94.3643 248.045 94.3711C239.989 94.3711 232.436 95.4433 225.971 97.3022C219.503 99.1577 214.123 101.812 210.412 104.872C207.93 106.906 206.208 109.108 205.3 111.329C204.781 112.601 204.52 113.88 204.52 115.192C204.52 116.505 204.781 117.783 205.3 119.055C205.823 120.324 206.603 121.584 207.642 122.814C209.722 125.278 212.844 127.599 216.783 129.566C224.661 133.512 235.769 136.02 248.045 136.015C256.105 136.015 263.655 134.941 270.123 133.081C276.592 131.225 281.971 128.573 285.683 125.515C288.162 123.477 289.886 121.275 290.791 119.056ZM253.077 127.895H252.323H248.18H247.828H243.684H242.934L243.416 121.956L234.767 122.02L235.297 117.633L243.778 117.516L244.009 114.303L235.632 114.443L236.127 110.333L242.09 110.197L236.376 100.225L242.971 99.9913L248.002 108.193L253.037 99.9913L259.633 100.225L253.918 110.197L259.884 110.333L260.379 114.443L252.002 114.303L252.23 117.516L260.711 117.633L261.24 122.02L252.591 121.956L253.077 127.895ZM284.202 117.384L278.444 118.927C278.29 118.957 278.169 119.083 278.136 119.238L276.618 125.05C276.578 125.219 276.431 125.341 276.256 125.341C276.082 125.341 275.935 125.219 275.895 125.05L274.374 119.238C274.34 119.082 274.22 118.957 274.066 118.927L268.311 117.384C268.14 117.351 268.02 117.198 268.02 117.026C268.02 116.85 268.14 116.699 268.311 116.664L274.066 115.125C274.22 115.087 274.341 114.969 274.374 114.817L275.895 109.002C275.935 108.831 276.082 108.709 276.256 108.709C276.43 108.709 276.578 108.831 276.618 109.002L278.136 114.817C278.169 114.969 278.29 115.087 278.444 115.125L284.202 116.664C284.369 116.699 284.49 116.85 284.49 117.026C284.49 117.198 284.369 117.351 284.202 117.384Z" fill="white"/>
<path d="M224.034 13.25V17H221.88V6.33594H225.513C226.568 6.33594 227.408 6.66309 228.033 7.31738C228.663 7.97168 228.978 8.82129 228.978 9.86621C228.978 10.9111 228.667 11.7363 228.047 12.3418C227.427 12.9473 226.568 13.25 225.469 13.25H224.034ZM224.034 11.4556H225.513C225.923 11.4556 226.241 11.3213 226.465 11.0527C226.69 10.7842 226.802 10.3936 226.802 9.88086C226.802 9.34863 226.688 8.92627 226.458 8.61377C226.229 8.29639 225.921 8.13525 225.535 8.13037H224.034V11.4556ZM237.928 12.6274C237.928 14.0581 237.588 15.1689 236.91 15.96C236.236 16.751 235.298 17.1465 234.097 17.1465C232.901 17.1465 231.961 16.7559 231.277 15.9746C230.594 15.1885 230.247 14.0898 230.237 12.6787V10.855C230.237 9.39014 230.577 8.24756 231.255 7.42725C231.934 6.60205 232.876 6.18945 234.083 6.18945C235.269 6.18945 236.204 6.59473 236.888 7.40527C237.571 8.21094 237.918 9.34375 237.928 10.8037V12.6274ZM235.767 10.8403C235.767 9.87842 235.63 9.16309 235.357 8.69434C235.083 8.22559 234.659 7.99121 234.083 7.99121C233.511 7.99121 233.089 8.21826 232.815 8.67236C232.542 9.12158 232.4 9.80762 232.391 10.7305V12.6274C232.391 13.5601 232.53 14.2485 232.808 14.6929C233.086 15.1323 233.516 15.3521 234.097 15.3521C234.659 15.3521 235.076 15.1372 235.35 14.7075C235.623 14.2729 235.762 13.6016 235.767 12.6934V10.8403ZM241.722 17H239.568V6.33594H241.722V17ZM250.987 17H248.833L245.684 10.0054V17H243.531V6.33594H245.684L248.841 13.3379V6.33594H250.987V17ZM259.402 8.13037H256.766V17H254.605V8.13037H252.012V6.33594H259.402V8.13037ZM269.693 12.5908C269.693 14.0654 269.424 15.1934 268.887 15.9746C268.355 16.7559 267.593 17.1465 266.602 17.1465C265.621 17.1465 264.861 16.7681 264.324 16.0112C263.792 15.2495 263.516 14.1606 263.497 12.7446V10.7305C263.497 9.26074 263.763 8.1377 264.295 7.36133C264.827 6.58008 265.591 6.18945 266.587 6.18945C267.583 6.18945 268.348 6.5752 268.88 7.34668C269.412 8.11816 269.683 9.21924 269.693 10.6499V12.5908ZM267.613 10.4302C267.613 9.59033 267.53 8.96045 267.364 8.54053C267.198 8.12061 266.939 7.91064 266.587 7.91064C265.928 7.91064 265.586 8.67969 265.562 10.2178V12.8765C265.562 13.7358 265.645 14.3755 265.811 14.7954C265.982 15.2153 266.246 15.4253 266.602 15.4253C266.939 15.4253 267.188 15.23 267.349 14.8394C267.515 14.4438 267.603 13.8408 267.613 13.0303V10.4302ZM275.647 17H273.567V8.85547L271.539 9.63916V7.91064L275.428 6.32129H275.647V17Z" fill="white"/>
<rect x="248" y="24" width="6" height="2" fill="white"/>
</svg>
