<svg width="360" height="216" viewBox="0 0 360 216" fill="none" xmlns="http://www.w3.org/2000/svg">
<path d="M155.034 13.25V17H152.88V6.33594H156.513C157.568 6.33594 158.408 6.66309 159.033 7.31738C159.663 7.97168 159.978 8.82129 159.978 9.86621C159.978 10.9111 159.667 11.7363 159.047 12.3418C158.427 12.9473 157.568 13.25 156.469 13.25H155.034ZM155.034 11.4556H156.513C156.923 11.4556 157.241 11.3213 157.465 11.0527C157.69 10.7842 157.802 10.3936 157.802 9.88086C157.802 9.34863 157.688 8.92627 157.458 8.61377C157.229 8.29639 156.921 8.13525 156.535 8.13037H155.034V11.4556ZM168.928 12.6274C168.928 14.0581 168.588 15.1689 167.91 15.96C167.236 16.751 166.298 17.1465 165.097 17.1465C163.901 17.1465 162.961 16.7559 162.277 15.9746C161.594 15.1885 161.247 14.0898 161.237 12.6787V10.855C161.237 9.39014 161.577 8.24756 162.255 7.42725C162.934 6.60205 163.876 6.18945 165.083 6.18945C166.269 6.18945 167.204 6.59473 167.888 7.40527C168.571 8.21094 168.918 9.34375 168.928 10.8037V12.6274ZM166.767 10.8403C166.767 9.87842 166.63 9.16309 166.357 8.69434C166.083 8.22559 165.659 7.99121 165.083 7.99121C164.511 7.99121 164.089 8.21826 163.815 8.67236C163.542 9.12158 163.4 9.80762 163.391 10.7305V12.6274C163.391 13.5601 163.53 14.2485 163.808 14.6929C164.086 15.1323 164.516 15.3521 165.097 15.3521C165.659 15.3521 166.076 15.1372 166.35 14.7075C166.623 14.2729 166.762 13.6016 166.767 12.6934V10.8403ZM172.722 17H170.568V6.33594H172.722V17ZM181.987 17H179.833L176.684 10.0054V17H174.531V6.33594H176.684L179.841 13.3379V6.33594H181.987V17ZM190.402 8.13037H187.766V17H185.605V8.13037H183.012V6.33594H190.402V8.13037ZM200.693 12.5908C200.693 14.0654 200.424 15.1934 199.887 15.9746C199.355 16.7559 198.593 17.1465 197.602 17.1465C196.621 17.1465 195.861 16.7681 195.324 16.0112C194.792 15.2495 194.516 14.1606 194.497 12.7446V10.7305C194.497 9.26074 194.763 8.1377 195.295 7.36133C195.827 6.58008 196.591 6.18945 197.587 6.18945C198.583 6.18945 199.348 6.5752 199.88 7.34668C200.412 8.11816 200.683 9.21924 200.693 10.6499V12.5908ZM198.613 10.4302C198.613 9.59033 198.53 8.96045 198.364 8.54053C198.198 8.12061 197.939 7.91064 197.587 7.91064C196.928 7.91064 196.586 8.67969 196.562 10.2178V12.8765C196.562 13.7358 196.645 14.3755 196.811 14.7954C196.982 15.2153 197.246 15.4253 197.602 15.4253C197.939 15.4253 198.188 15.23 198.349 14.8394C198.515 14.4438 198.603 13.8408 198.613 13.0303V10.4302ZM207.548 12.9717H208.457V14.6929H207.548V17H205.476V14.6929H201.945L201.85 13.3525L205.468 6.33594H207.548V12.9717ZM203.864 12.9717H205.476V9.40479L205.432 9.48535L203.864 12.9717Z" fill="white"/>
<rect x="184" y="24" width="6" height="2" fill="white"/>
<path d="M14.88 184.85L10.98 184.76C11.01 185.27 10.95 185.99 10.92 186.56C10.86 187.07 10.8 187.61 10.74 188.18C10.35 188.18 9.96 188.18 9.54 188.18C7.71 188.18 5.07 187.94 4.02 187.76L4.11 191.24C5.52 191.3 7.86 191.42 9.42 191.42C9.75 191.42 10.05 191.42 10.38 191.42C10.26 192.65 10.17 193.91 10.11 195.2C5.91 197.18 2.73 201.2 2.73 205.07C2.73 208.1 4.59 209.42 6.78 209.42C8.37 209.42 9.96 208.94 11.43 208.22C11.55 208.64 11.7 209.06 11.82 209.45L15.27 208.4C15.03 207.68 14.79 206.93 14.58 206.18C16.86 204.29 19.26 201.14 20.88 197.06C22.95 197.87 24 199.46 24 201.26C24 204.2 21.66 207.14 15.87 207.77L17.85 210.92C25.23 209.81 27.72 205.7 27.72 201.44C27.72 197.96 25.41 195.23 21.93 194.09C22.11 193.52 22.35 192.89 22.47 192.56L18.81 191.69C18.78 192.14 18.66 192.89 18.54 193.49C18.36 193.49 18.18 193.49 18 193.49C16.53 193.49 14.97 193.7 13.53 194.03C13.56 193.13 13.65 192.2 13.74 191.3C17.43 191.15 21.45 190.79 24.39 190.25L24.36 186.77C21.06 187.55 17.82 187.94 14.16 188.09C14.25 187.49 14.37 186.95 14.46 186.44C14.58 185.99 14.7 185.45 14.88 184.85ZM6.27 204.29C6.27 202.58 7.77 200.3 10.02 198.77C10.08 200.84 10.32 202.91 10.65 204.77C9.57 205.4 8.49 205.76 7.65 205.76C6.69 205.76 6.27 205.25 6.27 204.29ZM13.41 197.3V197.21C14.58 196.85 15.96 196.58 17.55 196.55C16.53 198.98 15.18 200.81 13.77 202.28C13.53 200.78 13.41 199.13 13.41 197.3ZM37.8 187.55L33.18 187.49C33.36 188.42 33.42 189.71 33.42 190.55C33.42 192.38 33.45 195.89 33.75 198.65C34.59 206.69 37.44 209.66 40.74 209.66C43.14 209.66 45.03 207.83 47.01 202.61L44.01 198.95C43.44 201.35 42.24 204.86 40.83 204.86C38.94 204.86 38.04 201.89 37.62 197.57C37.44 195.41 37.41 193.16 37.44 191.21C37.44 190.37 37.59 188.63 37.8 187.55ZM52.8 188.24L48.99 189.47C52.26 193.19 53.85 200.48 54.33 205.31L58.26 203.78C57.93 199.19 55.65 191.69 52.8 188.24ZM73.08 184.64H68.94C69.03 185.18 69.15 186.65 69.15 187.28C69.15 187.79 69.15 188.66 69.12 189.71C68.52 189.74 67.92 189.77 67.38 189.77C66.3 189.77 65.01 189.74 63.24 189.53L63.3 193.16C64.32 193.28 65.49 193.31 67.5 193.31C67.98 193.31 68.52 193.28 69.09 193.25C69.09 194.09 69.09 194.93 69.09 195.77C69.09 196.46 69.09 197.18 69.12 197.9C65.43 199.49 62.43 202.22 62.43 204.83C62.43 208.01 66.54 210.53 69.45 210.53C71.43 210.53 72.75 209.54 72.75 205.82C72.75 204.8 72.69 202.46 72.63 200.09C74.46 199.55 76.41 199.25 78.27 199.25C80.88 199.25 82.68 200.45 82.68 202.49C82.68 204.68 80.76 205.88 78.33 206.33C77.28 206.51 75.99 206.54 74.64 206.54L76.02 210.41C77.25 210.32 78.57 210.23 79.95 209.93C84.72 208.73 86.58 206.06 86.58 202.52C86.58 198.38 82.95 195.98 78.33 195.98C76.68 195.98 74.61 196.25 72.57 196.76C72.57 196.37 72.57 196.01 72.57 195.65C72.57 194.78 72.57 193.85 72.6 192.95C74.55 192.71 76.62 192.41 78.33 192.02L78.24 188.3C76.68 188.75 74.7 189.14 72.72 189.38C72.75 188.63 72.78 187.91 72.81 187.25C72.87 186.47 72.99 185.18 73.08 184.64ZM81.63 187.88L79.98 190.79C81.84 191.69 85.77 193.94 87.21 195.17L89.01 192.11C87.42 190.97 83.94 188.99 81.63 187.88ZM66.12 204.68C66.12 203.63 67.35 202.4 69.18 201.41C69.24 203.03 69.27 204.41 69.27 205.16C69.27 206.18 68.85 206.42 68.31 206.42C67.53 206.42 66.12 205.61 66.12 204.68ZM97.8 187.55L93.18 187.49C93.36 188.42 93.42 189.71 93.42 190.55C93.42 192.38 93.45 195.89 93.75 198.65C94.59 206.69 97.44 209.66 100.74 209.66C103.14 209.66 105.03 207.83 107.01 202.61L104.01 198.95C103.44 201.35 102.24 204.86 100.83 204.86C98.94 204.86 98.04 201.89 97.62 197.57C97.44 195.41 97.41 193.16 97.44 191.21C97.44 190.37 97.59 188.63 97.8 187.55ZM112.8 188.24L108.99 189.47C112.26 193.19 113.85 200.48 114.33 205.31L118.26 203.78C117.93 199.19 115.65 191.69 112.8 188.24ZM125.1 188.63V192.98C126.12 192.92 127.5 192.86 128.64 192.86H141.03C142.08 192.86 143.49 192.95 144.36 192.98V188.63C143.52 188.72 142.23 188.81 141.03 188.81H128.61C127.59 188.81 126.18 188.75 125.1 188.63ZM122.58 203.3V207.89C123.69 207.8 125.16 207.71 126.33 207.71H143.55C144.45 207.71 145.8 207.77 146.85 207.89V203.3C145.83 203.42 144.57 203.48 143.55 203.48H126.33C125.16 203.48 123.75 203.39 122.58 203.3ZM165.15 191.18L161.58 192.35C162.33 193.91 163.65 197.54 164.01 199.01L167.61 197.75C167.19 196.37 165.72 192.47 165.15 191.18ZM176.22 193.37L172.02 192.02C171.66 195.77 170.22 199.76 168.18 202.31C165.69 205.43 161.52 207.71 158.22 208.58L161.37 211.79C164.88 210.47 168.63 207.95 171.42 204.35C173.46 201.71 174.72 198.59 175.5 195.56C175.68 194.96 175.86 194.33 176.22 193.37ZM158.19 192.77L154.59 194.06C155.31 195.38 156.81 199.37 157.32 200.99L160.98 199.61C160.38 197.93 158.94 194.3 158.19 192.77ZM188.46 205.01C188.46 208.55 189.45 210.2 196.29 210.2C199.5 210.2 203.1 209.9 205.59 209.54L205.71 205.46C202.74 206.06 199.41 206.48 196.26 206.48C192.96 206.48 192.42 205.82 192.42 203.96V196.01C196.68 195.14 200.73 194.36 201.66 194.15C200.82 195.74 198.84 198.47 196.86 200.24L200.16 202.19C202.32 200.06 205.05 195.95 206.37 193.46C206.64 192.92 207.09 192.23 207.36 191.81L204.48 189.59C203.91 189.89 203.19 190.1 202.35 190.28C201 190.61 196.8 191.45 192.42 192.29V188.75C192.42 187.73 192.57 186.23 192.69 185.3H188.22C188.37 186.23 188.46 187.76 188.46 188.75V193.04C185.49 193.58 182.85 194.03 181.44 194.21L182.16 198.14C183.42 197.84 185.79 197.36 188.46 196.82V205.01ZM211.86 197.33L213.75 201.11C217.44 200.03 221.25 198.41 224.34 196.79V206.39C224.34 207.71 224.25 209.6 224.13 210.32H228.87C228.66 209.57 228.6 207.71 228.6 206.39V194.27C231.51 192.35 234.39 190.01 236.67 187.76L233.43 184.67C231.48 187.04 228.06 190.04 224.97 191.96C221.64 194 217.23 195.95 211.86 197.33ZM257.82 198.74V202.88H252.21V198.74H257.82ZM261.12 205.82V195.8H248.91V207.8H252.21V205.82H261.12ZM262.47 190.49H247.5V193.49H262.47V190.49ZM267.75 185H242.31V211.61H245.79V188.39H264.24V207.47C264.24 207.95 264.03 208.13 263.52 208.16C263.01 208.19 261.27 208.19 259.68 208.1C260.22 209.03 260.76 210.65 260.91 211.64C263.4 211.64 265.08 211.55 266.22 210.95C267.36 210.35 267.75 209.36 267.75 207.5V185ZM280.35 195.8H284.7V192.5H280.35V187.91C281.94 187.55 283.5 187.13 284.82 186.65L282.51 183.86C279.78 184.94 275.4 185.9 271.5 186.44C271.89 187.22 272.31 188.42 272.46 189.23C273.84 189.05 275.28 188.84 276.75 188.6V192.5H271.41V195.8H275.88C274.71 199.1 272.79 202.55 270.75 204.71C271.35 205.61 272.22 207.02 272.55 208.07C274.14 206.3 275.55 203.72 276.75 200.9V211.58H280.35V200.51C281.34 201.92 282.3 203.42 282.87 204.44L284.91 201.47C284.25 200.66 281.55 197.51 280.35 196.31V195.8ZM288.99 204.38V189.83H293.79V204.38H288.99ZM285.48 186.41V210.17H288.99V207.8H293.79V209.96H297.48V186.41H285.48ZM323.55 188.99H316.65V187.01H323.55V188.99ZM327.03 184.58H313.44V191.42H327.03V184.58ZM311.49 196.19C310.47 196.46 309.45 196.73 308.43 196.97V192.53H311.46V189.23H308.43V183.62H304.92V189.23H301.2V192.53H304.92V197.84C303.36 198.23 301.89 198.56 300.69 198.8L301.56 202.22L304.92 201.35V207.77C304.92 208.19 304.77 208.31 304.38 208.34C303.99 208.34 302.76 208.34 301.62 208.28C302.01 209.21 302.49 210.65 302.58 211.55C304.68 211.55 306.12 211.46 307.14 210.92C308.13 210.38 308.43 209.51 308.43 207.74V200.42C309.6 200.12 310.77 199.79 311.91 199.46L311.49 196.19ZM316.08 202.43H324.15V203.87H316.08V202.43ZM316.08 198.68H324.15V200.12H316.08V198.68ZM316.08 194.99H324.15V196.37H316.08V194.99ZM327.69 206.33V192.5H312.72V206.33H315.06C313.59 207.41 311.4 208.58 309.48 209.24C310.32 209.9 311.4 210.95 311.97 211.64C314.28 210.77 317.19 209.15 318.9 207.65L316.89 206.33H322.83L320.91 207.65C322.65 208.82 324.66 210.47 325.65 211.64L329.22 209.96C328.14 208.91 326.25 207.5 324.42 206.33H327.69ZM337.68 183.65C336.12 187.91 333.39 192.17 330.6 194.87C331.2 195.74 332.19 197.66 332.52 198.53C333.3 197.72 334.05 196.82 334.8 195.86V211.55H338.19V190.64C339.27 188.72 340.2 186.68 340.98 184.73L337.68 183.65ZM344.97 188.03H353.76V192.05H344.97V188.03ZM358.8 201.14V197.9H351.06V195.2H357.33V184.88H341.58V195.2H347.46V197.9H339.6V201.14H345.75C343.89 203.78 341.22 206.21 338.52 207.62C339.33 208.31 340.44 209.6 340.98 210.47C343.35 208.94 345.63 206.66 347.46 204.02V211.61H351.06V203.87C352.77 206.54 354.96 208.97 357.15 210.53C357.72 209.63 358.86 208.37 359.67 207.68C357.15 206.21 354.57 203.75 352.8 201.14H358.8Z" fill="#FCEC62"/>
<path d="M78.012 155.824L75.204 155.104C74.718 157.678 73.53 160.792 71.802 162.88C70.2 164.824 67.77 166.606 64.962 167.56L67.014 169.666C69.786 168.55 72.306 166.354 73.836 164.446C75.294 162.628 76.464 159.91 77.22 157.84C77.436 157.264 77.688 156.472 78.012 155.824ZM91.296 154.294H88.524C88.65 155.068 88.668 155.446 88.668 155.95V157.336H84.816C84.132 157.336 83.592 157.318 82.98 157.246C83.052 157.678 83.07 158.398 83.07 158.794V161.908C83.07 162.394 83.034 162.97 82.98 163.42H85.464C85.428 163.06 85.41 162.502 85.41 162.088V159.46H94.338C94.122 161.062 93.654 162.772 92.736 164.086C91.728 165.544 90.144 166.606 88.65 167.164C87.912 167.452 86.922 167.722 86.112 167.866L87.984 170.026C91.188 169.198 93.888 167.29 95.328 164.626C96.21 162.988 96.696 161.26 97.002 159.532C97.074 159.172 97.218 158.488 97.362 158.092L95.796 157.138C95.49 157.246 95.058 157.336 94.302 157.336H91.17V155.95C91.17 155.446 91.206 155.068 91.296 154.294ZM102.69 163.06C102.078 164.644 101.016 166.588 99.9 168.064L102.42 169.126C103.356 167.776 104.418 165.724 105.066 163.978C105.696 162.304 106.344 159.838 106.596 158.56C106.668 158.164 106.884 157.282 107.028 156.76L104.4 156.22C104.184 158.506 103.5 161.062 102.69 163.06ZM111.582 162.682C112.302 164.626 112.95 166.912 113.454 169.036L116.118 168.172C115.614 166.39 114.66 163.528 114.03 161.89C113.346 160.162 112.104 157.39 111.366 155.986L108.972 156.76C109.728 158.146 110.898 160.792 111.582 162.682ZM127.296 154.294H124.524C124.65 155.068 124.668 155.446 124.668 155.95V157.336H120.816C120.132 157.336 119.592 157.318 118.98 157.246C119.052 157.678 119.07 158.398 119.07 158.794V161.908C119.07 162.394 119.034 162.97 118.98 163.42H121.464C121.428 163.06 121.41 162.502 121.41 162.088V159.46H130.338C130.122 161.062 129.654 162.772 128.736 164.086C127.728 165.544 126.144 166.606 124.65 167.164C123.912 167.452 122.922 167.722 122.112 167.866L123.984 170.026C127.188 169.198 129.888 167.29 131.328 164.626C132.21 162.988 132.696 161.26 133.002 159.532C133.074 159.172 133.218 158.488 133.362 158.092L131.796 157.138C131.49 157.246 131.058 157.336 130.302 157.336H127.17V155.95C127.17 155.446 127.206 155.068 127.296 154.294ZM149.166 156.724H144.306V155.824H149.166V156.724ZM149.166 159.01H144.306V158.092H149.166V159.01ZM151.218 154.312H142.344V160.522H151.218V154.312ZM141.444 163.294L141.156 161.368L139.536 161.8V159.136H141.336V157.156H139.536V153.754H137.592V157.156H135.648V159.136H137.592V162.322C136.782 162.52 136.062 162.718 135.45 162.844L135.936 164.914C136.458 164.77 136.998 164.608 137.592 164.446V168.046C137.592 168.28 137.502 168.352 137.286 168.352C137.07 168.37 136.458 168.37 135.792 168.352C136.062 168.91 136.296 169.792 136.35 170.314C137.502 170.332 138.294 170.26 138.834 169.9C139.374 169.576 139.536 169.054 139.536 168.064V163.87L141.444 163.294ZM147.726 166.336H151.164V164.662H147.726V163.078H152.118V161.35H141.48V163.078H145.71V167.776C145.062 167.362 144.54 166.714 144.144 165.67C144.288 165.112 144.396 164.5 144.486 163.852L142.542 163.618C142.272 166.066 141.534 168.064 140.04 169.252C140.472 169.522 141.282 170.188 141.624 170.53C142.398 169.792 143.046 168.838 143.496 167.704C144.72 169.882 146.538 170.314 148.896 170.314H152.028C152.1 169.774 152.352 168.874 152.604 168.442C151.83 168.46 149.598 168.46 148.986 168.46C148.536 168.46 148.14 168.442 147.726 168.406V166.336ZM157.41 153.79C156.51 156.364 154.926 158.902 153.306 160.522C153.684 161.044 154.26 162.214 154.458 162.754C154.836 162.34 155.214 161.908 155.592 161.422V170.548H157.698V158.164C158.346 156.94 158.94 155.662 159.408 154.42L157.41 153.79ZM161.604 165.724C160.866 167.002 159.606 168.316 158.346 169.162C158.814 169.45 159.624 170.116 160.02 170.512C161.262 169.486 162.702 167.902 163.602 166.336L161.604 165.724ZM165.528 166.642C166.662 167.812 167.922 169.468 168.498 170.548L170.298 169.414C169.65 168.37 168.408 166.84 167.238 165.706L165.528 166.642ZM163.206 159.316H165.816V162.898H163.206V159.316ZM167.904 162.898V159.316H170.244V157.264H167.904V153.88H165.816V157.264H163.206V153.898H161.118V157.264H159.156V159.316H161.118V162.898H158.706V164.986H170.388V162.898H167.904ZM179.532 166.66C179.532 165.976 180.216 165.544 181.242 165.544C181.728 165.544 182.214 165.616 182.682 165.742C182.682 165.868 182.682 165.976 182.682 166.066C182.682 167.128 182.304 167.704 181.206 167.704C180.252 167.704 179.532 167.398 179.532 166.66ZM184.878 154.906H182.304C182.376 155.266 182.43 155.824 182.43 156.094C182.43 156.472 182.448 157.21 182.448 158.092C182.034 158.11 181.602 158.11 181.188 158.11C180.108 158.11 179.064 158.056 178.038 157.948V160.09C179.1 160.162 180.126 160.198 181.188 160.198C181.602 160.198 182.034 160.198 182.466 160.18C182.484 161.458 182.556 162.772 182.592 163.888C182.232 163.834 181.836 163.816 181.422 163.816C178.974 163.816 177.426 165.076 177.426 166.894C177.426 168.784 178.974 169.828 181.458 169.828C183.888 169.828 184.86 168.604 184.968 166.876C185.688 167.362 186.408 167.992 187.164 168.694L188.406 166.804C187.542 166.012 186.408 165.094 184.914 164.482C184.842 163.258 184.752 161.818 184.716 160.072C185.706 160 186.642 159.892 187.506 159.766V157.516C186.642 157.696 185.706 157.84 184.716 157.93C184.734 157.138 184.752 156.472 184.77 156.076C184.788 155.68 184.824 155.248 184.878 154.906ZM176.094 155.104L173.61 154.888C173.592 155.464 173.502 156.148 173.43 156.652C173.232 158.038 172.692 161.44 172.692 164.158C172.692 166.606 173.034 168.658 173.412 169.918L175.446 169.756C175.428 169.504 175.41 169.198 175.41 169.018C175.41 168.82 175.446 168.424 175.5 168.172C175.716 167.2 176.292 165.364 176.796 163.888L175.698 162.988C175.428 163.6 175.122 164.212 174.888 164.842C174.834 164.482 174.816 164.032 174.816 163.672C174.816 161.872 175.41 157.912 175.68 156.706C175.734 156.382 175.95 155.464 176.094 155.104ZM192.564 157.336H203.4V159.586H205.686V155.356H199.08V153.754H196.812V155.356H190.386V159.586H192.564V157.336ZM200.538 162.448C200.16 163.834 199.53 164.914 198.648 165.778C197.46 165.346 196.29 164.95 195.192 164.644C195.57 163.942 195.966 163.204 196.344 162.448H200.538ZM206.01 162.448V160.432H197.352C197.73 159.676 198.09 158.938 198.414 158.236L196.164 157.768C195.804 158.596 195.372 159.514 194.904 160.432H190.008V162.448H193.878C193.104 163.906 192.348 165.274 191.7 166.318L193.932 166.93L194.274 166.336C195.03 166.588 195.804 166.876 196.596 167.164C194.976 167.938 192.924 168.37 190.404 168.622C190.818 169.09 191.43 170.062 191.628 170.566C194.652 170.134 197.1 169.432 199.008 168.154C200.826 168.946 202.482 169.792 203.58 170.53L205.29 168.784C204.156 168.082 202.536 167.326 200.79 166.606C201.762 165.508 202.5 164.158 203.022 162.448H206.01ZM219.456 160.432C220.896 162.412 222.156 165.166 222.516 167.002L224.694 165.922C224.244 164.05 222.966 161.422 221.436 159.442L219.456 160.432ZM209.16 160.162C208.926 162.556 208.404 164.878 207.342 166.426L209.34 167.578C210.528 165.814 210.996 163.06 211.266 160.594L209.16 160.162ZM212.436 155.482C214.56 156.292 217.062 157.678 218.448 158.83L219.852 156.94C218.43 155.896 215.946 154.564 213.822 153.808L212.436 155.482ZM212.382 158.884V167.434C212.382 169.684 213.012 170.386 215.298 170.386H218.232C220.392 170.386 220.968 169.324 221.202 165.976C220.608 165.814 219.708 165.436 219.204 165.04C219.078 167.866 218.934 168.424 218.052 168.424H215.586C214.74 168.424 214.614 168.298 214.614 167.434V158.884H212.382ZM234 159.856C232.74 159.856 231.696 160.9 231.696 162.16C231.696 163.42 232.74 164.464 234 164.464C235.26 164.464 236.304 163.42 236.304 162.16C236.304 160.9 235.26 159.856 234 159.856ZM246.564 157.336H257.4V159.586H259.686V155.356H253.08V153.754H250.812V155.356H244.386V159.586H246.564V157.336ZM254.538 162.448C254.16 163.834 253.53 164.914 252.648 165.778C251.46 165.346 250.29 164.95 249.192 164.644C249.57 163.942 249.966 163.204 250.344 162.448H254.538ZM260.01 162.448V160.432H251.352C251.73 159.676 252.09 158.938 252.414 158.236L250.164 157.768C249.804 158.596 249.372 159.514 248.904 160.432H244.008V162.448H247.878C247.104 163.906 246.348 165.274 245.7 166.318L247.932 166.93L248.274 166.336C249.03 166.588 249.804 166.876 250.596 167.164C248.976 167.938 246.924 168.37 244.404 168.622C244.818 169.09 245.43 170.062 245.628 170.566C248.652 170.134 251.1 169.432 253.008 168.154C254.826 168.946 256.482 169.792 257.58 170.53L259.29 168.784C258.156 168.082 256.536 167.326 254.79 166.606C255.762 165.508 256.5 164.158 257.022 162.448H260.01ZM265.428 160.234C267.3 158.848 268.902 157.228 269.928 155.77C270.972 157.228 272.7 158.866 274.572 160.234H265.428ZM271.062 166.066H276.102V164.194H271.062V162.124H275.274V160.72C275.922 161.17 276.57 161.566 277.218 161.926C277.614 161.26 278.082 160.576 278.64 160C275.796 158.794 272.862 156.436 270.936 153.7H268.722C267.39 155.896 264.492 158.668 261.414 160.216C261.9 160.666 262.494 161.44 262.764 161.944C263.448 161.566 264.114 161.152 264.762 160.702V162.124H268.83V164.194H263.844V166.066H268.83V168.208H262.404V170.134H277.722V168.208H271.062V166.066ZM295.686 162.664C295.686 158.74 292.878 155.644 288.414 155.644C283.752 155.644 280.152 159.19 280.152 163.348C280.152 166.39 281.808 168.586 283.806 168.586C285.768 168.586 287.316 166.354 288.396 162.718C288.918 161.026 289.224 159.37 289.476 157.84C291.906 158.254 293.256 160.108 293.256 162.592C293.256 165.22 291.456 166.876 289.152 167.416C288.666 167.524 288.162 167.632 287.478 167.704L288.828 169.846C293.364 169.144 295.686 166.462 295.686 162.664ZM282.456 163.114C282.456 161.134 284.058 158.506 287.028 157.894C286.83 159.388 286.488 160.918 286.074 162.25C285.336 164.68 284.634 165.814 283.878 165.814C283.176 165.814 282.456 164.932 282.456 163.114Z" fill="white"/>
<g clip-path="url(#clip0)">
<path d="M124.446 72.0393L124.184 71.7773" stroke="white" stroke-width="2.2668" stroke-miterlimit="10" stroke-linecap="round" stroke-linejoin="round"/>
<path d="M128.06 75.6577L127.809 75.4062" stroke="white" stroke-width="2.2668" stroke-miterlimit="10" stroke-linecap="round" stroke-linejoin="round"/>
<path d="M124.446 75.4062L124.184 75.6577" stroke="white" stroke-width="2.2668" stroke-miterlimit="10" stroke-linecap="round" stroke-linejoin="round"/>
<path d="M128.06 71.7773L127.809 72.0393" stroke="white" stroke-width="2.2668" stroke-miterlimit="10" stroke-linecap="round" stroke-linejoin="round"/>
</g>
<g clip-path="url(#clip1)">
<path d="M129.422 64.377L130.239 63.5586" stroke="white" stroke-width="2.2668" stroke-miterlimit="10" stroke-linecap="round" stroke-linejoin="round"/>
<path d="M133.793 60.002L134.61 59.1836" stroke="white" stroke-width="2.2668" stroke-miterlimit="10" stroke-linecap="round" stroke-linejoin="round"/>
<path d="M134.61 64.377L133.793 63.5586" stroke="white" stroke-width="2.2668" stroke-miterlimit="10" stroke-linecap="round" stroke-linejoin="round"/>
<path d="M130.239 60.002L129.422 59.1836" stroke="white" stroke-width="2.2668" stroke-miterlimit="10" stroke-linecap="round" stroke-linejoin="round"/>
</g>
<g clip-path="url(#clip2)">
<path d="M134.356 85.1019L134.008 84.7539" stroke="white" stroke-width="3.01161" stroke-miterlimit="10" stroke-linecap="round" stroke-linejoin="round"/>
<path d="M139.158 89.9122L138.824 89.5781" stroke="white" stroke-width="3.01161" stroke-miterlimit="10" stroke-linecap="round" stroke-linejoin="round"/>
<path d="M134.356 89.5781L134.008 89.9122" stroke="white" stroke-width="3.01161" stroke-miterlimit="10" stroke-linecap="round" stroke-linejoin="round"/>
<path d="M139.158 84.7539L138.824 85.1019" stroke="white" stroke-width="3.01161" stroke-miterlimit="10" stroke-linecap="round" stroke-linejoin="round"/>
</g>
<g clip-path="url(#clip3)">
<path d="M213.932 122.478L213.582 122.828" stroke="white" stroke-width="3.01161" stroke-miterlimit="10" stroke-linecap="round" stroke-linejoin="round"/>
<path d="M218.77 117.636L218.434 117.973" stroke="white" stroke-width="3.01161" stroke-miterlimit="10" stroke-linecap="round" stroke-linejoin="round"/>
<path d="M218.434 122.478L218.77 122.828" stroke="white" stroke-width="3.01161" stroke-miterlimit="10" stroke-linecap="round" stroke-linejoin="round"/>
<path d="M213.582 117.636L213.932 117.973" stroke="white" stroke-width="3.01161" stroke-miterlimit="10" stroke-linecap="round" stroke-linejoin="round"/>
</g>
<g clip-path="url(#clip4)">
<path d="M231.734 111.598L230.641 110.503" stroke="white" stroke-width="3.01161" stroke-miterlimit="10" stroke-linecap="round" stroke-linejoin="round"/>
<path d="M225.886 105.746L224.793 104.651" stroke="white" stroke-width="3.01161" stroke-miterlimit="10" stroke-linecap="round" stroke-linejoin="round"/>
<path d="M231.734 104.651L230.641 105.746" stroke="white" stroke-width="3.01161" stroke-miterlimit="10" stroke-linecap="round" stroke-linejoin="round"/>
<path d="M225.886 110.503L224.793 111.598" stroke="white" stroke-width="3.01161" stroke-miterlimit="10" stroke-linecap="round" stroke-linejoin="round"/>
</g>
<path d="M217.605 58.4215C209.81 50.2848 197.733 49.8499 189.526 57.4248C188.451 58.4034 187.502 59.545 186.462 60.7592C185.961 61.3572 185.441 61.9734 184.885 62.5895L184.24 63.3144L181.983 60.9223C181.015 59.8894 180.173 59.0014 179.313 58.1315C175.263 54.0904 170.031 51.9883 164.834 51.9883C161.699 51.9883 158.563 52.7494 155.696 54.326C149.962 57.4792 146.145 62.9157 145.213 69.2583C144.281 75.6915 146.432 82.1247 151.109 86.9089C158.151 94.1032 165.229 101.279 172.306 108.437L181.588 117.843C181.785 118.042 181.965 118.241 182.18 118.404C183.291 119.329 184.921 119.311 185.871 118.368C186.874 117.372 186.892 115.686 185.907 114.508C185.692 114.255 185.441 114.019 185.208 113.765L184.903 113.457L176.75 105.176C169.457 97.7638 162.146 90.352 154.854 82.9583C152.166 80.2582 150.661 76.9963 150.392 73.2632C149.944 67.3374 153.366 61.4297 158.724 58.8745C164.333 56.1925 170.658 57.2617 175.209 61.6653C176.553 62.9701 177.861 64.3111 179.169 65.6521C180.065 66.5763 180.961 67.4824 181.857 68.3885C183.309 69.8382 184.724 69.8382 186.158 68.4066C187.484 67.0837 188.81 65.7427 190.118 64.4017L192.537 61.9371C195.296 59.1464 198.611 57.6423 202.356 57.461C208.395 57.1711 213.932 60.6686 216.422 66.3769C218.859 71.9403 217.659 78.3735 213.376 82.7409C209.918 86.2746 206.46 89.7902 202.983 93.3058C200.17 96.151 197.375 98.9961 194.579 101.841C193.289 103.164 193.164 104.868 194.275 106.009C194.777 106.517 195.386 106.788 196.067 106.788C196.855 106.788 197.679 106.408 198.36 105.719L203.091 100.953C207.768 96.2416 212.606 91.3849 217.265 86.4921C224.79 78.6454 224.916 66.0689 217.605 58.4215Z" fill="white"/>
<defs>
<clipPath id="clip0">
<rect width="6.24492" height="6.25439" fill="white" transform="translate(123 70.5898)"/>
</clipPath>
<clipPath id="clip1">
<rect width="7.55469" height="7.56543" fill="white" transform="translate(128.238 57.9961)"/>
</clipPath>
<clipPath id="clip2">
<rect width="8.29683" height="8.30859" fill="white" transform="translate(132.434 83.1797)"/>
</clipPath>
<clipPath id="clip3">
<rect width="8.36523" height="8.35321" fill="white" transform="translate(212 124.414) rotate(-90)"/>
</clipPath>
<clipPath id="clip4">
<rect width="10.1201" height="10.1051" fill="white" transform="translate(223.211 113.184) rotate(-90)"/>
</clipPath>
</defs>
</svg>
