<svg width="56" height="12" viewBox="0 0 56 12" fill="none" xmlns="http://www.w3.org/2000/svg">
<path d="M2.44775 7.25V11H0.294434V0.335938H3.92725C4.98193 0.335938 5.82178 0.663086 6.44678 1.31738C7.07666 1.97168 7.3916 2.82129 7.3916 3.86621C7.3916 4.91113 7.08154 5.73633 6.46143 6.3418C5.84131 6.94727 4.98193 7.25 3.8833 7.25H2.44775ZM2.44775 5.45557H3.92725C4.3374 5.45557 4.65479 5.32129 4.87939 5.05273C5.104 4.78418 5.21631 4.39355 5.21631 3.88086C5.21631 3.34863 5.10156 2.92627 4.87207 2.61377C4.64258 2.29639 4.33496 2.13525 3.94922 2.13037H2.44775V5.45557ZM16.3418 6.62744C16.3418 8.05811 16.0024 9.16895 15.3237 9.95996C14.6499 10.751 13.7124 11.1465 12.5112 11.1465C11.3149 11.1465 10.375 10.7559 9.69141 9.97461C9.00781 9.18848 8.66113 8.08984 8.65137 6.67871V4.85498C8.65137 3.39014 8.99072 2.24756 9.66943 1.42725C10.3481 0.602051 11.2905 0.189453 12.4966 0.189453C13.6831 0.189453 14.6182 0.594727 15.3018 1.40527C15.9854 2.21094 16.332 3.34375 16.3418 4.80371V6.62744ZM14.1812 4.84033C14.1812 3.87842 14.0444 3.16309 13.771 2.69434C13.4976 2.22559 13.0728 1.99121 12.4966 1.99121C11.9253 1.99121 11.5029 2.21826 11.2295 2.67236C10.9561 3.12158 10.8145 3.80762 10.8047 4.73047V6.62744C10.8047 7.56006 10.9438 8.24854 11.2222 8.69287C11.5005 9.13232 11.9302 9.35205 12.5112 9.35205C13.0728 9.35205 13.4902 9.13721 13.7637 8.70752C14.0371 8.27295 14.1763 7.60156 14.1812 6.69336V4.84033ZM20.1357 11H17.9824V0.335938H20.1357V11ZM29.4009 11H27.2476L24.0981 4.00537V11H21.9448V0.335938H24.0981L27.2549 7.33789V0.335938H29.4009V11ZM37.8164 2.13037H35.1797V11H33.019V2.13037H30.4263V0.335938H37.8164V2.13037ZM48.1069 6.59082C48.1069 8.06543 47.8384 9.19336 47.3013 9.97461C46.769 10.7559 46.0073 11.1465 45.0161 11.1465C44.0347 11.1465 43.2754 10.7681 42.7383 10.0112C42.2061 9.24951 41.9302 8.16064 41.9106 6.74463V4.73047C41.9106 3.26074 42.1768 2.1377 42.709 1.36133C43.2412 0.580078 44.0054 0.189453 45.0015 0.189453C45.9976 0.189453 46.7617 0.575195 47.2939 1.34668C47.8262 2.11816 48.0972 3.21924 48.1069 4.6499V6.59082ZM46.0269 4.43018C46.0269 3.59033 45.9438 2.96045 45.7778 2.54053C45.6118 2.12061 45.353 1.91064 45.0015 1.91064C44.3423 1.91064 44.0005 2.67969 43.9761 4.21777V6.87646C43.9761 7.73584 44.0591 8.37549 44.2251 8.79541C44.396 9.21533 44.6597 9.42529 45.0161 9.42529C45.353 9.42529 45.6021 9.22998 45.7632 8.83936C45.9292 8.44385 46.0171 7.84082 46.0269 7.03027V4.43018ZM51.3442 4.72314H52.3477C52.7285 4.72314 53.0068 4.59131 53.1826 4.32764C53.3633 4.05908 53.4536 3.70264 53.4536 3.2583C53.4536 2.8335 53.3608 2.50391 53.1753 2.26953C52.9946 2.03027 52.7505 1.91064 52.4429 1.91064C52.1548 1.91064 51.918 2.02295 51.7324 2.24756C51.5518 2.47217 51.4614 2.75537 51.4614 3.09717H49.3887C49.3887 2.54053 49.5156 2.04248 49.7695 1.60303C50.0283 1.15869 50.3872 0.812012 50.8462 0.562988C51.3101 0.313965 51.8228 0.189453 52.3843 0.189453C53.3657 0.189453 54.1348 0.460449 54.6914 1.00244C55.248 1.54443 55.5264 2.28662 55.5264 3.229C55.5264 3.7124 55.3994 4.16162 55.1455 4.57666C54.8965 4.98682 54.5669 5.30176 54.1567 5.52148C54.6597 5.73633 55.0332 6.05859 55.2773 6.48828C55.5264 6.91797 55.6509 7.42578 55.6509 8.01172C55.6509 8.95898 55.3481 9.71826 54.7427 10.2896C54.1421 10.8608 53.3511 11.1465 52.3696 11.1465C51.4565 11.1465 50.7144 10.8657 50.1431 10.3042C49.5767 9.73779 49.2935 8.99561 49.2935 8.07764H51.3662C51.3662 8.4585 51.4663 8.77832 51.6665 9.03711C51.8667 9.2959 52.1206 9.42529 52.4282 9.42529C52.7847 9.42529 53.0654 9.29346 53.2705 9.02979C53.4805 8.76611 53.5854 8.41455 53.5854 7.9751C53.5854 6.92529 53.1777 6.39795 52.3623 6.39307H51.3442V4.72314Z" fill="white"/>
</svg>
