<svg width="240" height="257" viewBox="0 0 240 257" fill="none" xmlns="http://www.w3.org/2000/svg">
<g clip-path="url(#clip0)">
<path d="M58.4455 72.0393L58.1836 71.7773" stroke="white" stroke-width="2.2668" stroke-miterlimit="10" stroke-linecap="round" stroke-linejoin="round"/>
<path d="M62.062 75.6577L61.8105 75.4062" stroke="white" stroke-width="2.2668" stroke-miterlimit="10" stroke-linecap="round" stroke-linejoin="round"/>
<path d="M58.4455 75.4062L58.1836 75.6577" stroke="white" stroke-width="2.2668" stroke-miterlimit="10" stroke-linecap="round" stroke-linejoin="round"/>
<path d="M62.062 71.7773L61.8105 72.0393" stroke="white" stroke-width="2.2668" stroke-miterlimit="10" stroke-linecap="round" stroke-linejoin="round"/>
</g>
<g clip-path="url(#clip1)">
<path d="M63.4219 64.377L64.2392 63.5586" stroke="white" stroke-width="2.2668" stroke-miterlimit="10" stroke-linecap="round" stroke-linejoin="round"/>
<path d="M67.791 60.002L68.6083 59.1836" stroke="white" stroke-width="2.2668" stroke-miterlimit="10" stroke-linecap="round" stroke-linejoin="round"/>
<path d="M68.6083 64.377L67.791 63.5586" stroke="white" stroke-width="2.2668" stroke-miterlimit="10" stroke-linecap="round" stroke-linejoin="round"/>
<path d="M64.2392 60.002L63.4219 59.1836" stroke="white" stroke-width="2.2668" stroke-miterlimit="10" stroke-linecap="round" stroke-linejoin="round"/>
</g>
<g clip-path="url(#clip2)">
<path d="M68.3519 85.1019L68.0039 84.7539" stroke="white" stroke-width="3.01161" stroke-miterlimit="10" stroke-linecap="round" stroke-linejoin="round"/>
<path d="M73.1544 89.9122L72.8203 89.5781" stroke="white" stroke-width="3.01161" stroke-miterlimit="10" stroke-linecap="round" stroke-linejoin="round"/>
<path d="M68.3519 89.5781L68.0039 89.9122" stroke="white" stroke-width="3.01161" stroke-miterlimit="10" stroke-linecap="round" stroke-linejoin="round"/>
<path d="M73.1544 84.7539L72.8203 85.1019" stroke="white" stroke-width="3.01161" stroke-miterlimit="10" stroke-linecap="round" stroke-linejoin="round"/>
</g>
<g clip-path="url(#clip3)">
<path d="M147.932 122.478L147.582 122.828" stroke="white" stroke-width="3.01161" stroke-miterlimit="10" stroke-linecap="round" stroke-linejoin="round"/>
<path d="M152.768 117.636L152.432 117.973" stroke="white" stroke-width="3.01161" stroke-miterlimit="10" stroke-linecap="round" stroke-linejoin="round"/>
<path d="M152.432 122.478L152.768 122.828" stroke="white" stroke-width="3.01161" stroke-miterlimit="10" stroke-linecap="round" stroke-linejoin="round"/>
<path d="M147.582 117.636L147.932 117.973" stroke="white" stroke-width="3.01161" stroke-miterlimit="10" stroke-linecap="round" stroke-linejoin="round"/>
</g>
<g clip-path="url(#clip4)">
<path d="M165.732 111.598L164.639 110.503" stroke="white" stroke-width="3.01161" stroke-miterlimit="10" stroke-linecap="round" stroke-linejoin="round"/>
<path d="M159.888 105.746L158.795 104.651" stroke="white" stroke-width="3.01161" stroke-miterlimit="10" stroke-linecap="round" stroke-linejoin="round"/>
<path d="M165.732 104.651L164.639 105.746" stroke="white" stroke-width="3.01161" stroke-miterlimit="10" stroke-linecap="round" stroke-linejoin="round"/>
<path d="M159.888 110.503L158.795 111.598" stroke="white" stroke-width="3.01161" stroke-miterlimit="10" stroke-linecap="round" stroke-linejoin="round"/>
</g>
<path d="M151.605 58.4215C143.81 50.2848 131.733 49.8499 123.526 57.4248C122.451 58.4034 121.502 59.545 120.462 60.7592C119.961 61.3572 119.441 61.9734 118.885 62.5895L118.24 63.3144L115.983 60.9223C115.015 59.8894 114.173 59.0014 113.313 58.1315C109.263 54.0904 104.031 51.9883 98.8343 51.9883C95.6985 51.9883 92.5627 52.7494 89.6957 54.326C83.9617 57.4792 80.145 62.9157 79.2132 69.2583C78.2815 75.6915 80.4317 82.1247 85.1085 86.9089C92.1506 94.1032 99.2285 101.279 106.306 108.437L115.588 117.843C115.785 118.042 115.965 118.241 116.18 118.404C117.291 119.329 118.921 119.311 119.871 118.368C120.874 117.372 120.892 115.686 119.907 114.508C119.692 114.255 119.441 114.019 119.208 113.765L118.903 113.457L110.75 105.176C103.457 97.7638 96.1465 90.352 88.8535 82.9583C86.1657 80.2582 84.6605 76.9963 84.3918 73.2632C83.9438 67.3374 87.3663 61.4297 92.724 58.8745C98.3326 56.1925 104.658 57.2617 109.209 61.6653C110.553 62.9701 111.861 64.3111 113.169 65.6521C114.065 66.5763 114.961 67.4824 115.857 68.3885C117.309 69.8382 118.724 69.8382 120.158 68.4066C121.484 67.0837 122.81 65.7427 124.118 64.4017L126.537 61.9371C129.296 59.1464 132.611 57.6423 136.356 57.461C142.395 57.1711 147.932 60.6686 150.422 66.3769C152.859 71.9403 151.659 78.3735 147.376 82.7409C143.918 86.2746 140.46 89.7902 136.983 93.3058C134.17 96.151 131.375 98.9961 128.579 101.841C127.289 103.164 127.164 104.868 128.275 106.009C128.777 106.517 129.386 106.788 130.067 106.788C130.855 106.788 131.679 106.408 132.36 105.719L137.091 100.953C141.768 96.2416 146.606 91.3849 151.265 86.4921C158.79 78.6454 158.916 66.0689 151.605 58.4215Z" fill="white"/>
<path d="M15.3 184.64L10.62 184.52C10.65 185.12 10.59 185.93 10.53 186.53C10.5 186.92 10.44 187.31 10.38 187.73C10.14 187.73 9.9 187.73 9.66 187.73C7.53 187.73 4.89 187.46 3.81 187.31L3.93 191.45C5.43 191.51 7.77 191.66 9.51 191.66C9.66 191.66 9.81 191.66 9.99 191.66C9.87 192.77 9.78 193.91 9.72 195.05C5.49 197.09 2.43 201.14 2.43 205.01C2.43 208.34 4.44 209.72 6.75 209.72C8.28 209.72 9.81 209.3 11.16 208.7C11.28 209.06 11.37 209.42 11.49 209.72L15.66 208.49C15.42 207.8 15.21 207.08 15 206.36C17.16 204.59 19.5 201.56 21.09 197.63C22.71 198.38 23.55 199.73 23.55 201.26C23.55 203.69 21.75 206.69 15.75 207.35L18.15 211.16C25.74 210.02 28.05 205.7 28.05 201.47C28.05 197.9 25.71 195.23 22.35 194C22.53 193.46 22.74 192.92 22.86 192.62L18.45 191.57C18.42 191.99 18.33 192.65 18.21 193.28C18.15 193.28 18.09 193.28 18.03 193.28C16.62 193.28 15.18 193.43 13.86 193.7C13.92 192.98 13.98 192.26 14.04 191.54C17.76 191.39 21.78 191 24.6 190.49L24.57 186.32C21.18 187.16 18.15 187.52 14.61 187.64C14.67 187.22 14.76 186.77 14.85 186.38C14.97 185.87 15.09 185.33 15.3 184.64ZM6.69 204.02C6.69 202.73 7.83 200.84 9.69 199.4C9.78 201.23 9.99 203 10.26 204.59C9.39 205.07 8.55 205.31 7.89 205.31C6.99 205.31 6.69 204.86 6.69 204.02ZM13.74 197.51C14.7 197.24 15.78 197.03 17.04 196.97C16.2 198.89 15.15 200.36 14.01 201.59C13.86 200.36 13.77 199.01 13.74 197.51ZM38.4 187.28L32.82 187.22C33.03 188.27 33.09 189.56 33.09 190.46C33.09 192.35 33.12 195.8 33.42 198.65C34.26 206.84 37.2 209.87 40.77 209.87C43.38 209.87 45.3 208.01 47.4 202.7L43.74 198.2C43.29 200.24 42.24 203.99 40.86 203.99C39.12 203.99 38.52 201.23 38.16 197.3C37.98 195.29 37.98 193.34 37.98 191.36C37.98 190.49 38.16 188.54 38.4 187.28ZM53.07 187.85L48.42 189.35C51.93 193.19 53.4 201.08 53.82 205.61L58.65 203.75C58.38 199.43 56.01 191.3 53.07 187.85ZM73.53 184.4H68.55C68.64 184.97 68.76 186.71 68.76 187.34V189.23C68.25 189.26 67.77 189.26 67.32 189.26C66.24 189.26 64.83 189.26 63 189.05L63.09 193.43C64.11 193.55 65.31 193.58 67.47 193.58C67.86 193.58 68.28 193.58 68.76 193.55V195.26C68.76 196.04 68.76 196.82 68.79 197.6C65.01 199.25 62.01 202.07 62.01 204.77C62.01 208.22 66.27 210.86 69.51 210.86C71.67 210.86 73.17 209.81 73.17 205.58C73.17 204.65 73.11 202.55 73.05 200.3C74.73 199.88 76.53 199.64 78.18 199.64C80.67 199.64 82.17 200.72 82.17 202.49C82.17 204.32 80.49 205.43 78.18 205.82C77.19 206 75.87 206.03 74.43 206.03L76.08 210.74C77.4 210.62 78.75 210.5 80.16 210.2C85.29 208.91 86.91 206.03 86.91 202.52C86.91 198.08 82.98 195.65 78.24 195.65C76.74 195.65 74.85 195.86 72.96 196.28C72.96 195.86 72.96 195.47 72.96 195.11C72.96 194.45 72.96 193.82 72.99 193.19C74.82 192.98 76.74 192.68 78.39 192.32L78.3 187.82C76.8 188.24 74.97 188.6 73.11 188.84C73.14 188.33 73.17 187.82 73.2 187.31C73.26 186.53 73.41 184.97 73.53 184.4ZM81.63 187.61L79.68 191.15C81.51 191.99 85.74 194.33 87.15 195.44L89.31 191.75C87.63 190.64 84.03 188.72 81.63 187.61ZM66.48 204.56C66.48 203.72 67.38 202.73 68.88 201.89C68.91 203.12 68.94 204.14 68.94 204.71C68.94 205.76 68.52 205.88 68.07 205.88C67.5 205.88 66.48 205.28 66.48 204.56ZM98.4 187.28L92.82 187.22C93.03 188.27 93.09 189.56 93.09 190.46C93.09 192.35 93.12 195.8 93.42 198.65C94.26 206.84 97.2 209.87 100.77 209.87C103.38 209.87 105.3 208.01 107.4 202.7L103.74 198.2C103.29 200.24 102.24 203.99 100.86 203.99C99.12 203.99 98.52 201.23 98.16 197.3C97.98 195.29 97.98 193.34 97.98 191.36C97.98 190.49 98.16 188.54 98.4 187.28ZM113.07 187.85L108.42 189.35C111.93 193.19 113.4 201.08 113.82 205.61L118.65 203.75C118.38 199.43 116.01 191.3 113.07 187.85ZM124.95 188.15V193.43C126.03 193.37 127.62 193.31 128.82 193.31H140.97C142.05 193.31 143.61 193.4 144.51 193.43V188.15C143.64 188.27 142.23 188.36 140.97 188.36H128.79C127.74 188.36 126.12 188.3 124.95 188.15ZM122.46 202.73V208.28C123.66 208.16 125.34 208.07 126.57 208.07H143.37C144.3 208.07 145.83 208.16 147 208.28V202.73C145.89 202.85 144.45 202.94 143.37 202.94H126.57C125.34 202.94 123.72 202.82 122.46 202.73ZM165.51 190.88L161.19 192.29C162 193.97 163.26 197.51 163.68 199.01L168.03 197.51C167.58 196.1 166.11 192.2 165.51 190.88ZM176.7 193.34L171.57 191.69C171.3 195.41 169.89 199.49 167.91 201.98C165.42 205.13 161.04 207.41 157.86 208.22L161.67 212.12C165.27 210.74 169.05 208.13 171.84 204.47C173.82 201.89 175.08 198.83 175.86 195.95C176.07 195.23 176.28 194.51 176.7 193.34ZM158.55 192.5L154.17 194.06C154.98 195.5 156.42 199.43 156.93 201.05L161.37 199.4C160.77 197.66 159.39 194.18 158.55 192.5ZM188.07 204.92C188.07 208.82 189.03 210.56 196.56 210.56C199.5 210.56 203.43 210.23 205.8 209.9L205.95 204.98C202.98 205.58 199.38 206.03 196.41 206.03C193.29 206.03 192.9 205.4 192.9 203.63V196.25C196.53 195.53 199.83 194.87 200.91 194.66C200.1 196.1 198.27 198.53 196.44 200.15L200.43 202.49C202.44 200.57 205.38 196.25 206.67 193.73C206.97 193.13 207.48 192.35 207.78 191.87L204.27 189.14C203.61 189.5 202.8 189.71 201.84 189.95C200.46 190.28 196.8 191.03 192.9 191.75V188.87C192.9 187.76 193.05 185.96 193.2 185.03H187.8C187.95 185.96 188.07 187.79 188.07 188.87V192.65C185.22 193.16 182.67 193.58 181.23 193.76L182.1 198.5C183.39 198.2 185.58 197.75 188.07 197.24V204.92ZM211.47 196.88L213.72 201.47C217.2 200.48 220.83 198.95 223.86 197.42V206.21C223.86 207.65 223.74 209.75 223.62 210.56H229.38C229.14 209.72 229.08 207.65 229.08 206.21V194.39C231.93 192.5 234.84 190.16 237.09 187.97L233.16 184.22C231.27 186.5 227.61 189.74 224.58 191.6C221.22 193.64 216.93 195.5 211.47 196.88ZM77.19 240.34V243.64H72.84V240.34H77.19ZM81.21 247.21V236.8H68.85V249.1H72.84V247.21H81.21ZM82.38 231.37H67.5V235H82.38V231.37ZM88.02 225.7H62.04V252.85H66.27V229.81H83.73V247.96C83.73 248.44 83.55 248.62 83.04 248.65C82.53 248.65 80.79 248.65 79.38 248.56C80.01 249.67 80.67 251.68 80.82 252.88C83.31 252.88 85.05 252.76 86.34 252.04C87.63 251.35 88.02 250.15 88.02 248.02V225.7ZM100.68 237.34H104.58V233.32H100.68V229.21C102.15 228.85 103.59 228.46 104.88 228.01L102.09 224.59C99.27 225.7 95.1 226.69 91.2 227.23C91.68 228.16 92.22 229.66 92.4 230.62C93.66 230.47 94.98 230.29 96.3 230.08V233.32H91.2V237.34H95.25C94.2 240.37 92.52 243.49 90.6 245.59C91.32 246.7 92.34 248.44 92.76 249.7C94.11 248.17 95.31 246.04 96.3 243.7V252.82H100.68V242.98C101.4 244.12 102.12 245.26 102.57 246.16L105.03 242.53C104.43 241.78 101.91 238.93 100.68 237.7V237.34ZM109.5 244.81V231.34H113.28V244.81H109.5ZM105.24 227.17V251.32H109.5V248.98H113.28V251.11H117.78V227.17H105.24ZM143.04 229.51H137.34V228.22H143.04V229.51ZM147.3 225.31H133.38V232.42H147.3V225.31ZM131.55 236.86L128.76 237.52V233.8H131.55V229.78H128.76V224.35H124.47V229.78H120.99V233.8H124.47V238.51C123 238.81 121.62 239.11 120.48 239.32L121.47 243.49L124.47 242.77V248.29C124.47 248.71 124.32 248.83 123.9 248.86C123.51 248.86 122.28 248.86 121.23 248.8C121.74 249.91 122.28 251.68 122.4 252.79C124.59 252.79 126.15 252.67 127.29 252.01C128.43 251.35 128.76 250.3 128.76 248.29V241.69C129.87 241.42 130.98 241.15 132.06 240.85L131.55 236.86ZM136.83 243.58H143.55V244.54H136.83V243.58ZM136.83 239.86H143.55V240.82H136.83V239.86ZM136.83 236.17H143.55V237.1H136.83V236.17ZM147.87 247.48V233.2H132.72V247.48H134.4C132.99 248.47 131.1 249.46 129.42 250.03C130.41 250.81 131.76 252.07 132.48 252.91C134.79 252.04 137.7 250.36 139.38 248.86L137.31 247.48H142.59L140.58 248.83C142.23 250 144.15 251.74 145.05 252.91L149.46 250.9C148.53 249.94 146.88 248.62 145.2 247.48H147.87ZM165.78 229.42H173.28V232.6H165.78V229.42ZM179.01 242.47V238.54H171.6V236.41H177.66V225.61H161.67V236.41H167.22V238.54H159.81V242.47H165.21C163.5 244.81 161.13 246.97 158.64 248.26V231.46C159.66 229.57 160.56 227.62 161.31 225.73L157.26 224.41C155.76 228.55 153.15 232.69 150.48 235.3C151.2 236.38 152.37 238.78 152.73 239.83C153.33 239.23 153.93 238.54 154.5 237.82V252.76H158.64V248.32C159.6 249.16 160.95 250.72 161.61 251.77C163.68 250.39 165.6 248.47 167.22 246.22V252.85H171.6V246.04C173.13 248.35 174.96 250.42 176.85 251.86C177.54 250.78 178.95 249.19 179.94 248.38C177.6 247 175.29 244.81 173.61 242.47H179.01Z" fill="#FCEC62"/>
<path d="M18.012 151.824L15.204 151.104C14.718 153.678 13.53 156.792 11.802 158.88C10.2 160.824 7.77 162.606 4.962 163.56L7.014 165.666C9.786 164.55 12.306 162.354 13.836 160.446C15.294 158.628 16.464 155.91 17.22 153.84C17.436 153.264 17.688 152.472 18.012 151.824ZM31.296 150.294H28.524C28.65 151.068 28.668 151.446 28.668 151.95V153.336H24.816C24.132 153.336 23.592 153.318 22.98 153.246C23.052 153.678 23.07 154.398 23.07 154.794V157.908C23.07 158.394 23.034 158.97 22.98 159.42H25.464C25.428 159.06 25.41 158.502 25.41 158.088V155.46H34.338C34.122 157.062 33.654 158.772 32.736 160.086C31.728 161.544 30.144 162.606 28.65 163.164C27.912 163.452 26.922 163.722 26.112 163.866L27.984 166.026C31.188 165.198 33.888 163.29 35.328 160.626C36.21 158.988 36.696 157.26 37.002 155.532C37.074 155.172 37.218 154.488 37.362 154.092L35.796 153.138C35.49 153.246 35.058 153.336 34.302 153.336H31.17V151.95C31.17 151.446 31.206 151.068 31.296 150.294ZM42.69 159.06C42.078 160.644 41.016 162.588 39.9 164.064L42.42 165.126C43.356 163.776 44.418 161.724 45.066 159.978C45.696 158.304 46.344 155.838 46.596 154.56C46.668 154.164 46.884 153.282 47.028 152.76L44.4 152.22C44.184 154.506 43.5 157.062 42.69 159.06ZM51.582 158.682C52.302 160.626 52.95 162.912 53.454 165.036L56.118 164.172C55.614 162.39 54.66 159.528 54.03 157.89C53.346 156.162 52.104 153.39 51.366 151.986L48.972 152.76C49.728 154.146 50.898 156.792 51.582 158.682ZM67.296 150.294H64.524C64.65 151.068 64.668 151.446 64.668 151.95V153.336H60.816C60.132 153.336 59.592 153.318 58.98 153.246C59.052 153.678 59.07 154.398 59.07 154.794V157.908C59.07 158.394 59.034 158.97 58.98 159.42H61.464C61.428 159.06 61.41 158.502 61.41 158.088V155.46H70.338C70.122 157.062 69.654 158.772 68.736 160.086C67.728 161.544 66.144 162.606 64.65 163.164C63.912 163.452 62.922 163.722 62.112 163.866L63.984 166.026C67.188 165.198 69.888 163.29 71.328 160.626C72.21 158.988 72.696 157.26 73.002 155.532C73.074 155.172 73.218 154.488 73.362 154.092L71.796 153.138C71.49 153.246 71.058 153.336 70.302 153.336H67.17V151.95C67.17 151.446 67.206 151.068 67.296 150.294ZM89.166 152.724H84.306V151.824H89.166V152.724ZM89.166 155.01H84.306V154.092H89.166V155.01ZM91.218 150.312H82.344V156.522H91.218V150.312ZM81.444 159.294L81.156 157.368L79.536 157.8V155.136H81.336V153.156H79.536V149.754H77.592V153.156H75.648V155.136H77.592V158.322C76.782 158.52 76.062 158.718 75.45 158.844L75.936 160.914C76.458 160.77 76.998 160.608 77.592 160.446V164.046C77.592 164.28 77.502 164.352 77.286 164.352C77.07 164.37 76.458 164.37 75.792 164.352C76.062 164.91 76.296 165.792 76.35 166.314C77.502 166.332 78.294 166.26 78.834 165.9C79.374 165.576 79.536 165.054 79.536 164.064V159.87L81.444 159.294ZM87.726 162.336H91.164V160.662H87.726V159.078H92.118V157.35H81.48V159.078H85.71V163.776C85.062 163.362 84.54 162.714 84.144 161.67C84.288 161.112 84.396 160.5 84.486 159.852L82.542 159.618C82.272 162.066 81.534 164.064 80.04 165.252C80.472 165.522 81.282 166.188 81.624 166.53C82.398 165.792 83.046 164.838 83.496 163.704C84.72 165.882 86.538 166.314 88.896 166.314H92.028C92.1 165.774 92.352 164.874 92.604 164.442C91.83 164.46 89.598 164.46 88.986 164.46C88.536 164.46 88.14 164.442 87.726 164.406V162.336ZM97.41 149.79C96.51 152.364 94.926 154.902 93.306 156.522C93.684 157.044 94.26 158.214 94.458 158.754C94.836 158.34 95.214 157.908 95.592 157.422V166.548H97.698V154.164C98.346 152.94 98.94 151.662 99.408 150.42L97.41 149.79ZM101.604 161.724C100.866 163.002 99.606 164.316 98.346 165.162C98.814 165.45 99.624 166.116 100.02 166.512C101.262 165.486 102.702 163.902 103.602 162.336L101.604 161.724ZM105.528 162.642C106.662 163.812 107.922 165.468 108.498 166.548L110.298 165.414C109.65 164.37 108.408 162.84 107.238 161.706L105.528 162.642ZM103.206 155.316H105.816V158.898H103.206V155.316ZM107.904 158.898V155.316H110.244V153.264H107.904V149.88H105.816V153.264H103.206V149.898H101.118V153.264H99.156V155.316H101.118V158.898H98.706V160.986H110.388V158.898H107.904ZM119.532 162.66C119.532 161.976 120.216 161.544 121.242 161.544C121.728 161.544 122.214 161.616 122.682 161.742C122.682 161.868 122.682 161.976 122.682 162.066C122.682 163.128 122.304 163.704 121.206 163.704C120.252 163.704 119.532 163.398 119.532 162.66ZM124.878 150.906H122.304C122.376 151.266 122.43 151.824 122.43 152.094C122.43 152.472 122.448 153.21 122.448 154.092C122.034 154.11 121.602 154.11 121.188 154.11C120.108 154.11 119.064 154.056 118.038 153.948V156.09C119.1 156.162 120.126 156.198 121.188 156.198C121.602 156.198 122.034 156.198 122.466 156.18C122.484 157.458 122.556 158.772 122.592 159.888C122.232 159.834 121.836 159.816 121.422 159.816C118.974 159.816 117.426 161.076 117.426 162.894C117.426 164.784 118.974 165.828 121.458 165.828C123.888 165.828 124.86 164.604 124.968 162.876C125.688 163.362 126.408 163.992 127.164 164.694L128.406 162.804C127.542 162.012 126.408 161.094 124.914 160.482C124.842 159.258 124.752 157.818 124.716 156.072C125.706 156 126.642 155.892 127.506 155.766V153.516C126.642 153.696 125.706 153.84 124.716 153.93C124.734 153.138 124.752 152.472 124.77 152.076C124.788 151.68 124.824 151.248 124.878 150.906ZM116.094 151.104L113.61 150.888C113.592 151.464 113.502 152.148 113.43 152.652C113.232 154.038 112.692 157.44 112.692 160.158C112.692 162.606 113.034 164.658 113.412 165.918L115.446 165.756C115.428 165.504 115.41 165.198 115.41 165.018C115.41 164.82 115.446 164.424 115.5 164.172C115.716 163.2 116.292 161.364 116.796 159.888L115.698 158.988C115.428 159.6 115.122 160.212 114.888 160.842C114.834 160.482 114.816 160.032 114.816 159.672C114.816 157.872 115.41 153.912 115.68 152.706C115.734 152.382 115.95 151.464 116.094 151.104ZM132.564 153.336H143.4V155.586H145.686V151.356H139.08V149.754H136.812V151.356H130.386V155.586H132.564V153.336ZM140.538 158.448C140.16 159.834 139.53 160.914 138.648 161.778C137.46 161.346 136.29 160.95 135.192 160.644C135.57 159.942 135.966 159.204 136.344 158.448H140.538ZM146.01 158.448V156.432H137.352C137.73 155.676 138.09 154.938 138.414 154.236L136.164 153.768C135.804 154.596 135.372 155.514 134.904 156.432H130.008V158.448H133.878C133.104 159.906 132.348 161.274 131.7 162.318L133.932 162.93L134.274 162.336C135.03 162.588 135.804 162.876 136.596 163.164C134.976 163.938 132.924 164.37 130.404 164.622C130.818 165.09 131.43 166.062 131.628 166.566C134.652 166.134 137.1 165.432 139.008 164.154C140.826 164.946 142.482 165.792 143.58 166.53L145.29 164.784C144.156 164.082 142.536 163.326 140.79 162.606C141.762 161.508 142.5 160.158 143.022 158.448H146.01ZM159.456 156.432C160.896 158.412 162.156 161.166 162.516 163.002L164.694 161.922C164.244 160.05 162.966 157.422 161.436 155.442L159.456 156.432ZM149.16 156.162C148.926 158.556 148.404 160.878 147.342 162.426L149.34 163.578C150.528 161.814 150.996 159.06 151.266 156.594L149.16 156.162ZM152.436 151.482C154.56 152.292 157.062 153.678 158.448 154.83L159.852 152.94C158.43 151.896 155.946 150.564 153.822 149.808L152.436 151.482ZM152.382 154.884V163.434C152.382 165.684 153.012 166.386 155.298 166.386H158.232C160.392 166.386 160.968 165.324 161.202 161.976C160.608 161.814 159.708 161.436 159.204 161.04C159.078 163.866 158.934 164.424 158.052 164.424H155.586C154.74 164.424 154.614 164.298 154.614 163.434V154.884H152.382ZM174 155.856C172.74 155.856 171.696 156.9 171.696 158.16C171.696 159.42 172.74 160.464 174 160.464C175.26 160.464 176.304 159.42 176.304 158.16C176.304 156.9 175.26 155.856 174 155.856ZM186.564 153.336H197.4V155.586H199.686V151.356H193.08V149.754H190.812V151.356H184.386V155.586H186.564V153.336ZM194.538 158.448C194.16 159.834 193.53 160.914 192.648 161.778C191.46 161.346 190.29 160.95 189.192 160.644C189.57 159.942 189.966 159.204 190.344 158.448H194.538ZM200.01 158.448V156.432H191.352C191.73 155.676 192.09 154.938 192.414 154.236L190.164 153.768C189.804 154.596 189.372 155.514 188.904 156.432H184.008V158.448H187.878C187.104 159.906 186.348 161.274 185.7 162.318L187.932 162.93L188.274 162.336C189.03 162.588 189.804 162.876 190.596 163.164C188.976 163.938 186.924 164.37 184.404 164.622C184.818 165.09 185.43 166.062 185.628 166.566C188.652 166.134 191.1 165.432 193.008 164.154C194.826 164.946 196.482 165.792 197.58 166.53L199.29 164.784C198.156 164.082 196.536 163.326 194.79 162.606C195.762 161.508 196.5 160.158 197.022 158.448H200.01ZM205.428 156.234C207.3 154.848 208.902 153.228 209.928 151.77C210.972 153.228 212.7 154.866 214.572 156.234H205.428ZM211.062 162.066H216.102V160.194H211.062V158.124H215.274V156.72C215.922 157.17 216.57 157.566 217.218 157.926C217.614 157.26 218.082 156.576 218.64 156C215.796 154.794 212.862 152.436 210.936 149.7H208.722C207.39 151.896 204.492 154.668 201.414 156.216C201.9 156.666 202.494 157.44 202.764 157.944C203.448 157.566 204.114 157.152 204.762 156.702V158.124H208.83V160.194H203.844V162.066H208.83V164.208H202.404V166.134H217.722V164.208H211.062V162.066ZM235.686 158.664C235.686 154.74 232.878 151.644 228.414 151.644C223.752 151.644 220.152 155.19 220.152 159.348C220.152 162.39 221.808 164.586 223.806 164.586C225.768 164.586 227.316 162.354 228.396 158.718C228.918 157.026 229.224 155.37 229.476 153.84C231.906 154.254 233.256 156.108 233.256 158.592C233.256 161.22 231.456 162.876 229.152 163.416C228.666 163.524 228.162 163.632 227.478 163.704L228.828 165.846C233.364 165.144 235.686 162.462 235.686 158.664ZM222.456 159.114C222.456 157.134 224.058 154.506 227.028 153.894C226.83 155.388 226.488 156.918 226.074 158.25C225.336 160.68 224.634 161.814 223.878 161.814C223.176 161.814 222.456 160.932 222.456 159.114Z" fill="white"/>
<path d="M94.0337 13.25V17H91.8804V6.33594H95.5132C96.5679 6.33594 97.4077 6.66309 98.0327 7.31738C98.6626 7.97168 98.9775 8.82129 98.9775 9.86621C98.9775 10.9111 98.6675 11.7363 98.0474 12.3418C97.4272 12.9473 96.5679 13.25 95.4692 13.25H94.0337ZM94.0337 11.4556H95.5132C95.9233 11.4556 96.2407 11.3213 96.4653 11.0527C96.6899 10.7842 96.8022 10.3936 96.8022 9.88086C96.8022 9.34863 96.6875 8.92627 96.458 8.61377C96.2285 8.29639 95.9209 8.13525 95.5352 8.13037H94.0337V11.4556ZM107.928 12.6274C107.928 14.0581 107.588 15.1689 106.91 15.96C106.236 16.751 105.298 17.1465 104.097 17.1465C102.901 17.1465 101.961 16.7559 101.277 15.9746C100.594 15.1885 100.247 14.0898 100.237 12.6787V10.855C100.237 9.39014 100.577 8.24756 101.255 7.42725C101.934 6.60205 102.876 6.18945 104.083 6.18945C105.269 6.18945 106.204 6.59473 106.888 7.40527C107.571 8.21094 107.918 9.34375 107.928 10.8037V12.6274ZM105.767 10.8403C105.767 9.87842 105.63 9.16309 105.357 8.69434C105.083 8.22559 104.659 7.99121 104.083 7.99121C103.511 7.99121 103.089 8.21826 102.815 8.67236C102.542 9.12158 102.4 9.80762 102.391 10.7305V12.6274C102.391 13.5601 102.53 14.2485 102.808 14.6929C103.086 15.1323 103.516 15.3521 104.097 15.3521C104.659 15.3521 105.076 15.1372 105.35 14.7075C105.623 14.2729 105.762 13.6016 105.767 12.6934V10.8403ZM111.722 17H109.568V6.33594H111.722V17ZM120.987 17H118.833L115.684 10.0054V17H113.531V6.33594H115.684L118.841 13.3379V6.33594H120.987V17ZM129.402 8.13037H126.766V17H124.605V8.13037H122.012V6.33594H129.402V8.13037ZM139.693 12.5908C139.693 14.0654 139.424 15.1934 138.887 15.9746C138.355 16.7559 137.593 17.1465 136.602 17.1465C135.621 17.1465 134.861 16.7681 134.324 16.0112C133.792 15.2495 133.516 14.1606 133.497 12.7446V10.7305C133.497 9.26074 133.763 8.1377 134.295 7.36133C134.827 6.58008 135.591 6.18945 136.587 6.18945C137.583 6.18945 138.348 6.5752 138.88 7.34668C139.412 8.11816 139.683 9.21924 139.693 10.6499V12.5908ZM137.613 10.4302C137.613 9.59033 137.53 8.96045 137.364 8.54053C137.198 8.12061 136.939 7.91064 136.587 7.91064C135.928 7.91064 135.586 8.67969 135.562 10.2178V12.8765C135.562 13.7358 135.645 14.3755 135.811 14.7954C135.982 15.2153 136.246 15.4253 136.602 15.4253C136.939 15.4253 137.188 15.23 137.349 14.8394C137.515 14.4438 137.603 13.8408 137.613 13.0303V10.4302ZM146.548 12.9717H147.457V14.6929H146.548V17H144.476V14.6929H140.945L140.85 13.3525L144.468 6.33594H146.548V12.9717ZM142.864 12.9717H144.476V9.40479L144.432 9.48535L142.864 12.9717Z" fill="white"/>
<rect x="118" y="24" width="6" height="2" fill="white"/>
<defs>
<clipPath id="clip0">
<rect width="6.24492" height="6.25439" fill="white" transform="translate(57 70.5898)"/>
</clipPath>
<clipPath id="clip1">
<rect width="7.55469" height="7.56543" fill="white" transform="translate(62.2383 57.9961)"/>
</clipPath>
<clipPath id="clip2">
<rect width="8.29683" height="8.30859" fill="white" transform="translate(66.4316 83.1797)"/>
</clipPath>
<clipPath id="clip3">
<rect width="8.36523" height="8.35321" fill="white" transform="translate(145.998 124.414) rotate(-90)"/>
</clipPath>
<clipPath id="clip4">
<rect width="10.1201" height="10.1051" fill="white" transform="translate(157.211 113.184) rotate(-90)"/>
</clipPath>
</defs>
</svg>
