<svg width="256" height="250" viewBox="0 0 256 250" fill="none" xmlns="http://www.w3.org/2000/svg">
<path d="M103.034 13.9141V17.6641H100.88V7H104.513C105.568 7 106.408 7.32715 107.033 7.98145C107.663 8.63574 107.978 9.48535 107.978 10.5303C107.978 11.5752 107.667 12.4004 107.047 13.0059C106.427 13.6113 105.568 13.9141 104.469 13.9141H103.034ZM103.034 12.1196H104.513C104.923 12.1196 105.241 11.9854 105.465 11.7168C105.69 11.4482 105.802 11.0576 105.802 10.5449C105.802 10.0127 105.688 9.59033 105.458 9.27783C105.229 8.96045 104.921 8.79932 104.535 8.79443H103.034V12.1196ZM116.928 13.2915C116.928 14.7222 116.588 15.833 115.91 16.624C115.236 17.415 114.298 17.8105 113.097 17.8105C111.901 17.8105 110.961 17.4199 110.277 16.6387C109.594 15.8525 109.247 14.7539 109.237 13.3428V11.519C109.237 10.0542 109.577 8.91162 110.255 8.09131C110.934 7.26611 111.876 6.85352 113.083 6.85352C114.269 6.85352 115.204 7.25879 115.888 8.06934C116.571 8.875 116.918 10.0078 116.928 11.4678V13.2915ZM114.767 11.5044C114.767 10.5425 114.63 9.82715 114.357 9.3584C114.083 8.88965 113.659 8.65527 113.083 8.65527C112.511 8.65527 112.089 8.88232 111.815 9.33643C111.542 9.78564 111.4 10.4717 111.391 11.3945V13.2915C111.391 14.2241 111.53 14.9126 111.808 15.3569C112.086 15.7964 112.516 16.0161 113.097 16.0161C113.659 16.0161 114.076 15.8013 114.35 15.3716C114.623 14.937 114.762 14.2656 114.767 13.3574V11.5044ZM120.722 17.6641H118.568V7H120.722V17.6641ZM129.987 17.6641H127.833L124.684 10.6694V17.6641H122.531V7H124.684L127.841 14.002V7H129.987V17.6641ZM138.402 8.79443H135.766V17.6641H133.605V8.79443H131.012V7H138.402V8.79443ZM148.693 13.2549C148.693 14.7295 148.424 15.8574 147.887 16.6387C147.355 17.4199 146.593 17.8105 145.602 17.8105C144.621 17.8105 143.861 17.4321 143.324 16.6753C142.792 15.9136 142.516 14.8247 142.497 13.4087V11.3945C142.497 9.9248 142.763 8.80176 143.295 8.02539C143.827 7.24414 144.591 6.85352 145.587 6.85352C146.583 6.85352 147.348 7.23926 147.88 8.01074C148.412 8.78223 148.683 9.8833 148.693 11.314V13.2549ZM146.613 11.0942C146.613 10.2544 146.53 9.62451 146.364 9.20459C146.198 8.78467 145.939 8.57471 145.587 8.57471C144.928 8.57471 144.586 9.34375 144.562 10.8818V13.5405C144.562 14.3999 144.645 15.0396 144.811 15.4595C144.982 15.8794 145.246 16.0894 145.602 16.0894C145.939 16.0894 146.188 15.894 146.349 15.5034C146.515 15.1079 146.603 14.5049 146.613 13.6943V11.0942ZM154.647 17.6641H152.567V9.51953L150.539 10.3032V8.57471L154.428 6.98535H154.647V17.6641Z" fill="white"/>
<rect x="127" y="24.6641" width="6" height="2" fill="white"/>
<g clip-path="url(#clip0)">
<path d="M139.191 69.4704L151.451 72.7569C151.773 72.8226 152.031 73.0866 152.104 73.4113L155.337 85.7944C155.424 86.1581 155.742 86.4133 156.111 86.4133C156.482 86.4133 156.794 86.1579 156.877 85.7944L160.117 73.4113C160.184 73.0866 160.445 72.8226 160.766 72.7569L173.03 69.4704C173.388 69.4026 173.642 69.0797 173.642 68.7076C173.642 68.332 173.388 68.0159 173.03 67.943L160.766 64.6584C160.445 64.5891 160.184 64.3287 160.117 64.004L156.877 51.621C156.794 51.2606 156.482 51 156.111 51C155.742 51 155.424 51.2606 155.337 51.6208L152.104 64.0038C152.031 64.3285 151.773 64.5889 151.451 64.6582L139.191 67.943C138.829 68.0157 138.578 68.332 138.578 68.7076C138.578 69.0797 138.829 69.4026 139.191 69.4704Z" fill="white"/>
<path d="M96.0963 85.9279L98.4043 94.7759C98.4681 95.038 98.6957 95.2191 98.9571 95.2191C99.2218 95.2191 99.4461 95.0382 99.5098 94.7759L101.818 85.9279C101.868 85.6947 102.056 85.507 102.287 85.4578L111.05 83.1136C111.304 83.0596 111.489 82.8261 111.489 82.5621C111.489 82.2982 111.304 82.0717 111.05 82.0175L102.287 79.6699C102.056 79.6191 101.868 79.4364 101.818 79.2029L99.5098 70.35C99.4461 70.093 99.2218 69.9102 98.9571 69.9102C98.6957 69.9102 98.4681 70.0928 98.4043 70.35L96.0963 79.2029C96.0427 79.4364 95.8584 79.6191 95.6274 79.6699L86.8679 82.0175C86.6067 82.0717 86.4258 82.2982 86.4258 82.5621C86.4258 82.8259 86.6067 83.0594 86.8679 83.1136L95.6274 85.4578C95.8584 85.507 96.0427 85.6947 96.0963 85.9279Z" fill="white"/>
<path d="M87.5195 124.227V132.197C87.5195 133.511 87.7809 134.791 88.3001 136.063C88.8227 137.332 89.6032 138.592 90.6417 139.823C91.0804 140.339 91.5727 140.85 92.102 141.352V128.597C91.757 128.337 91.422 128.075 91.0938 127.809C89.737 126.689 88.5345 125.493 87.5195 124.227Z" fill="white"/>
<path d="M95.7617 144.26C96.9844 145.07 98.3242 145.846 99.778 146.573C100.405 146.888 101.054 147.186 101.718 147.477V133.915C99.577 133.042 97.5841 132.073 95.7617 131.016V144.26Z" fill="white"/>
<path d="M105.386 135.266V148.856H105.168C107.781 149.798 110.611 150.605 113.629 151.25V137.441C111.673 137.044 109.777 136.587 107.962 136.066C107.084 135.812 106.223 135.546 105.386 135.266Z" fill="white"/>
<path d="M117.301 151.919C121.072 152.535 125.062 152.917 129.212 153.002V139.11C125.082 139.029 121.093 138.682 117.301 138.09V151.919Z" fill="white"/>
<path d="M132.879 152.991C137.2 152.907 141.344 152.494 145.249 151.836V138.027C141.32 138.656 137.173 139.034 132.879 139.118V152.991Z" fill="white"/>
<path d="M148.914 151.142C150.358 150.825 151.768 150.478 153.121 150.089C154.521 149.686 155.868 149.246 157.161 148.773V135.109C154.575 135.991 151.815 136.745 148.914 137.351V151.142Z" fill="white"/>
<path d="M160.828 133.723V147.278C163.056 146.263 165.052 145.147 166.787 143.946V130.746C165.876 131.287 164.928 131.81 163.933 132.309C162.942 132.804 161.9 133.275 160.828 133.723Z" fill="white"/>
<path d="M170.23 128.405H170.448V140.911C171.992 139.343 173.118 137.708 173.788 136.064C174.31 134.792 174.571 133.511 174.571 132.197V124.23C174.458 124.369 174.347 124.508 174.233 124.645C173.098 125.983 171.751 127.233 170.23 128.405Z" fill="white"/>
<path d="M173.791 116.056C174.313 114.783 174.575 113.505 174.575 112.192C174.575 110.88 174.313 109.601 173.791 108.329C173.272 107.059 172.491 105.799 171.449 104.569C169.373 102.108 166.247 99.7841 162.308 97.8186C154.43 93.8743 143.325 91.3643 131.045 91.3711C122.989 91.3711 115.436 92.4433 108.971 94.3022C102.503 96.1577 97.1232 98.8117 93.4117 101.872C90.9297 103.906 89.2079 106.108 88.3001 108.329C87.7809 109.601 87.5195 110.88 87.5195 112.192C87.5195 113.505 87.7809 114.783 88.3001 116.055C88.8227 117.324 89.6032 118.584 90.6417 119.814C92.7216 122.278 95.8437 124.599 99.7827 126.566C107.661 130.512 118.769 133.02 131.045 133.015C139.105 133.015 146.655 131.941 153.123 130.081C159.592 128.225 164.971 125.573 168.683 122.515C171.162 120.477 172.886 118.275 173.791 116.056ZM136.077 124.895H135.323H131.18H130.828H126.684H125.934L126.416 118.956L117.767 119.02L118.297 114.633L126.778 114.516L127.009 111.303L118.632 111.443L119.127 107.333L125.09 107.197L119.376 97.2246L125.971 96.9913L131.002 105.193L136.037 96.9913L142.633 97.2246L136.918 107.197L142.884 107.333L143.379 111.443L135.002 111.303L135.23 114.516L143.711 114.633L144.24 119.02L135.591 118.956L136.077 124.895ZM167.202 114.384L161.444 115.927C161.29 115.957 161.169 116.083 161.136 116.238L159.618 122.05C159.578 122.219 159.431 122.341 159.256 122.341C159.082 122.341 158.935 122.219 158.895 122.05L157.374 116.238C157.34 116.082 157.22 115.957 157.066 115.927L151.311 114.384C151.14 114.351 151.02 114.198 151.02 114.026C151.02 113.85 151.14 113.699 151.311 113.664L157.066 112.125C157.22 112.087 157.341 111.969 157.374 111.817L158.895 106.002C158.935 105.831 159.082 105.709 159.256 105.709C159.43 105.709 159.578 105.831 159.618 106.002L161.136 111.817C161.169 111.969 161.29 112.087 161.444 112.125L167.202 113.664C167.369 113.699 167.49 113.85 167.49 114.026C167.49 114.198 167.369 114.351 167.202 114.384Z" fill="white"/>
</g>
<path d="M20.2485 187.716C19.8965 188.58 19.5125 189.508 19.1285 190.276H13.1445L13.6885 190.18C13.4645 189.508 13.0485 188.548 12.6005 187.716H20.2485ZM30.5845 201.988V198.852H18.1365V197.444H27.7365V194.692H18.1365V193.252H29.2405V190.276H22.9685C23.4485 189.508 23.9605 188.644 24.4725 187.716H30.4885V184.612H26.3285C27.0645 183.492 27.9285 182.052 28.8245 180.58L24.8245 179.62C24.3765 181.028 23.5765 182.948 22.8085 184.26L23.9605 184.612H21.1125V179.396H17.5285V184.612H15.1605V179.396H11.6085V184.612H8.6965L10.2645 184.036C9.8165 182.788 8.7605 180.9 7.8325 179.524L4.5685 180.644C5.2725 181.86 6.1045 183.396 6.5525 184.612H2.2645V187.716H8.9525L8.5685 187.78C8.9845 188.516 9.4005 189.476 9.6565 190.276H3.5765V193.252H14.3925V194.692H5.1765V197.444H14.3925V198.852H2.1685V201.988H11.3525C8.6005 203.652 4.8245 204.996 1.2405 205.732C2.0405 206.5 3.1285 207.972 3.6725 208.9C7.4805 207.908 11.4165 206.052 14.3925 203.716V209.284H18.1365V203.524C21.0805 206.02 24.9525 207.94 28.8885 208.932C29.4645 207.908 30.5845 206.308 31.4485 205.476C27.7365 204.9 24.0245 203.652 21.3045 201.988H30.5845ZM40.7925 188.708H46.3925V191.012H40.7925V188.708ZM40.7925 183.556H46.3925V185.86H40.7925V183.556ZM55.8325 185.86H50.2325V183.556H55.8325V185.86ZM55.8325 191.012H50.2325V188.708H55.8325V191.012ZM59.8005 194.084V180.484H36.9845V194.084H42.0725C39.8005 196.036 36.6325 197.7 33.4325 198.628C34.2645 199.428 35.3845 200.836 35.9285 201.764C37.9765 201.028 39.9285 200.036 41.7525 198.788V199.94C41.7525 201.988 41.1125 204.676 35.7685 206.404C36.6005 207.14 37.8805 208.58 38.3925 209.508C44.7605 207.172 45.6885 203.14 45.6885 200.1V197.892H42.9685C44.4085 196.74 45.7525 195.492 46.8085 194.084H50.1045C51.1285 195.524 52.4085 196.772 53.8485 197.924H51.4485V209.188H55.4165V199.076C57.0805 200.164 58.9045 201.028 60.8245 201.668C61.4005 200.644 62.5525 199.172 63.3525 198.404C60.0565 197.572 56.8885 196.004 54.5845 194.084H59.8005ZM87.0325 184.164H73.4645V182.852H87.0325V184.164ZM87.0325 187.812H73.4645V186.468H87.0325V187.812ZM90.8405 180.42H69.8165V190.244H90.8405V180.42ZM89.0165 198.532C88.4405 199.684 87.7045 200.74 86.8405 201.668C85.9765 200.74 85.2405 199.684 84.6965 198.532H89.0165ZM72.0565 202.34H76.2165V203.588C74.8085 203.716 73.4005 203.812 72.0565 203.908V202.34ZM72.0565 198.372H76.2165V199.716H72.0565V198.372ZM76.2165 194.436V195.716H72.0565V194.436H76.2165ZM91.2565 195.492L90.6165 195.62H80.6645V198.532H83.6085L81.4965 199.108C82.2645 200.868 83.2565 202.468 84.4085 203.844C83.0645 204.836 81.4965 205.604 79.8645 206.148V194.436H94.5205V191.428H66.0725V194.436H68.5685V204.164C67.5765 204.26 66.6165 204.292 65.7845 204.356L66.0725 207.62C68.8885 207.364 72.5365 207.044 76.2165 206.692V209.284H79.8645V206.692C80.5045 207.46 81.2085 208.516 81.5605 209.252C83.5445 208.516 85.3685 207.524 87.0005 206.276C88.6965 207.588 90.6805 208.58 92.9525 209.252C93.4645 208.356 94.4565 206.98 95.1925 206.276C93.0805 205.764 91.1605 204.964 89.5605 203.908C91.3525 201.892 92.7285 199.396 93.5925 196.388L91.2565 195.492ZM115.033 204.1H109.497V202.02H115.033V204.1ZM125.273 194.884H99.6085V209.284H103.321V198.052H121.433V205.188C121.433 205.572 121.305 205.668 120.825 205.7C120.473 205.732 119.481 205.732 118.393 205.7V199.492H106.169V208.1H109.497V206.66H117.753C118.105 207.492 118.393 208.484 118.489 209.22C120.793 209.22 122.489 209.188 123.673 208.612C124.921 208.036 125.273 207.012 125.273 205.252V194.884ZM117.177 190.98H107.193V189.028H117.177V190.98ZM103.577 186.5V193.54H121.049V186.5H103.577ZM114.041 182.052V179.364H110.169V182.052H98.3285V185.284H126.297V182.052H114.041ZM146.649 181.54L141.977 180.004C141.689 181.092 141.017 182.564 140.537 183.364C138.937 186.116 136.153 190.244 130.553 193.668L134.137 196.324C137.273 194.18 140.057 191.364 142.201 188.58H151.193C150.681 190.98 148.825 194.82 146.649 197.316C143.865 200.484 140.313 203.268 133.753 205.22L137.529 208.612C143.545 206.244 147.417 203.3 150.457 199.588C153.337 196.004 155.161 191.748 156.025 188.9C156.281 188.1 156.729 187.204 157.081 186.596L153.817 184.58C153.081 184.804 152.025 184.964 151.033 184.964H144.601C144.633 184.9 144.665 184.868 144.697 184.804C145.081 184.1 145.913 182.66 146.649 181.54ZM167.449 181.956V186.084C168.377 186.02 169.753 185.988 170.777 185.988H183.033C184.185 185.988 185.689 186.02 186.553 186.084V181.956C185.657 182.084 184.089 182.116 183.097 182.116H170.777C169.689 182.116 168.345 182.084 167.449 181.956ZM189.241 191.236L186.393 189.476C185.945 189.668 185.081 189.796 184.057 189.796H168.217C167.225 189.796 165.849 189.7 164.505 189.604V193.764C165.849 193.636 167.449 193.604 168.217 193.604H183.673C183.097 195.396 182.105 197.38 180.377 199.14C177.944 201.636 174.105 203.748 169.305 204.74L172.473 208.356C176.569 207.204 180.665 205.028 183.897 201.444C186.297 198.788 187.673 195.684 188.633 192.58C188.761 192.228 189.017 191.652 189.241 191.236ZM218.376 184.804L215.752 182.852C215.112 183.076 213.832 183.268 212.456 183.268H201.16C200.2 183.268 198.248 183.172 197.384 183.044V187.588C198.056 187.556 199.816 187.364 201.16 187.364H212.008C211.304 189.636 209.352 192.804 207.24 195.204C204.232 198.564 199.272 202.468 194.12 204.388L197.416 207.844C201.8 205.764 206.056 202.436 209.448 198.852C212.456 201.764 215.432 205.028 217.512 207.908L221.16 204.74C219.272 202.436 215.4 198.34 212.232 195.588C214.376 192.708 216.168 189.284 217.256 186.788C217.544 186.148 218.12 185.156 218.376 184.804ZM253.352 195.236C253.352 188.26 248.36 182.756 240.424 182.756C232.135 182.756 225.736 189.06 225.736 196.452C225.736 201.86 228.68 205.764 232.232 205.764C235.72 205.764 238.472 201.796 240.392 195.332C241.319 192.324 241.864 189.38 242.312 186.66C246.632 187.396 249.032 190.692 249.032 195.108C249.032 199.78 245.832 202.724 241.736 203.684C240.872 203.876 239.976 204.068 238.76 204.196L241.16 208.004C249.224 206.756 253.352 201.988 253.352 195.236ZM229.832 196.036C229.832 192.516 232.68 187.844 237.96 186.756C237.608 189.412 237 192.132 236.264 194.5C234.952 198.82 233.704 200.836 232.36 200.836C231.112 200.836 229.832 199.268 229.832 196.036ZM78.656 233.78H66.016V230.036H76.768V226.388H66.016V222.196C69.536 221.78 72.896 221.236 75.744 220.5L72.992 217.332C67.744 218.708 58.976 219.572 51.264 219.892C51.648 220.724 52.128 222.26 52.224 223.252C55.36 223.124 58.72 222.932 62.048 222.644V226.388H51.584V230.036H62.048V233.78H49.408V237.492H62.048V242.644C62.048 243.284 61.76 243.508 61.024 243.54C60.32 243.54 57.632 243.54 55.264 243.444C55.872 244.468 56.608 246.132 56.832 247.22C60.096 247.252 62.4 247.156 63.936 246.58C65.44 245.972 66.016 244.98 66.016 242.708V237.492H78.656V233.78ZM87.424 222.1H110.336V218.644H83.648V228.436C83.648 233.46 83.456 240.564 80.768 245.396C81.696 245.748 83.36 246.676 84.096 247.284C86.976 242.068 87.424 233.908 87.424 228.436V222.1ZM93.216 229.012H103.904V230.324H93.216V229.012ZM93.216 225.556H103.904V226.868H93.216V225.556ZM107.616 232.628V223.252H89.6V232.628H107.616ZM110.624 238.9H102.176C104.288 237.94 106.4 236.756 108.128 235.604L105.952 233.588L105.152 233.78H89.376V236.34H101.376C100.768 236.692 100.096 237.044 99.456 237.332H96.8V238.9H87.168V241.844H96.8V243.7C96.8 244.116 96.64 244.244 96.096 244.276C95.552 244.308 93.44 244.308 91.744 244.212C92.224 245.076 92.8 246.324 93.024 247.284C95.552 247.316 97.408 247.284 98.784 246.836C100.16 246.356 100.576 245.556 100.576 243.86V241.844H110.624V238.9ZM120.32 221.62L115.392 221.556C115.584 222.548 115.648 223.924 115.648 224.82C115.648 226.772 115.68 230.516 116 233.46C116.896 242.036 119.936 245.204 123.456 245.204C126.016 245.204 128.032 243.252 130.144 237.684L126.944 233.78C126.336 236.34 125.056 240.084 123.552 240.084C121.536 240.084 120.576 236.916 120.128 232.308C119.936 230.004 119.904 227.604 119.936 225.524C119.936 224.628 120.096 222.772 120.32 221.62ZM136.32 222.356L132.256 223.668C135.744 227.636 137.44 235.412 137.952 240.564L142.144 238.932C141.792 234.036 139.36 226.036 136.32 222.356ZM170.56 230.452V232.724H167.552V230.452H170.56ZM167.552 237.972V235.668H170.56V237.972H167.552ZM161.024 237.972V235.668H163.936V237.972H161.024ZM163.936 230.452V232.724H161.024V230.452H163.936ZM174.88 225.172V221.812H173.152L174.528 220.436C173.632 219.508 171.744 218.292 170.304 217.524L168.224 219.508C169.28 220.148 170.528 221.012 171.456 221.812H167.552V217.46H163.936V221.812H156.544V225.172H163.936V227.252H157.536V230.708L155.648 229.3C155.264 230.164 154.592 231.316 153.952 232.276C153.632 231.892 153.344 231.54 153.088 231.22C154.304 229.044 155.36 226.676 156.096 224.308L154.176 223.092L153.504 223.22H152.608V217.492H149.088V223.22H145.536V226.612H151.84C150.176 230.42 147.424 234.132 144.672 236.34C145.248 236.948 146.112 238.804 146.464 239.764C147.36 238.996 148.256 238.068 149.12 237.012V247.252H152.64V235.124C153.504 236.404 154.336 237.716 154.816 238.644L157.024 236.116L155.424 234.1C156.064 233.3 156.8 232.308 157.536 231.348V247.22H161.024V240.98H163.936V247.124H167.552V240.98H170.56V243.636C170.56 243.988 170.464 244.084 170.144 244.084C169.856 244.084 168.992 244.084 168.16 244.052C168.64 244.916 169.152 246.388 169.312 247.316C170.88 247.316 172.064 247.22 172.96 246.676C173.888 246.1 174.144 245.204 174.144 243.7V227.252H167.552V225.172H174.88ZM203.104 224.212V225.428H189.056V224.212H203.104ZM199.936 228.692H192.128V227.348H199.936V228.692ZM185.824 226.932H188.832V230.612H203.392V226.932H206.496V221.588H203.072C203.712 220.756 204.48 219.764 205.248 218.676L201.632 217.684C201.248 218.74 200.48 220.276 199.872 221.3L200.704 221.588H198.08V217.62H194.368V221.588H191.744L192.768 221.204C192.384 220.244 191.616 218.772 190.816 217.716L187.936 218.708C188.544 219.572 189.088 220.66 189.472 221.588H186.016C186.464 220.596 186.88 219.604 187.264 218.644L183.648 217.492C182.016 222.068 179.264 226.612 176.384 229.492C177.024 230.388 178.048 232.5 178.4 233.428C179.136 232.66 179.872 231.796 180.576 230.868V247.22H184.192V225.236C184.768 224.18 185.312 223.092 185.824 222.036V226.932ZM190.848 239.316H201.344V240.404H190.848V239.316ZM190.848 236.468H201.344V237.588H190.848V236.468ZM190.848 233.684H201.344V234.772H190.848V233.684ZM204.96 242.452V231.668H187.424V242.452H191.616C189.792 243.316 187.168 244.244 184.8 244.788C185.504 245.428 186.464 246.516 186.912 247.284C189.6 246.612 192.768 245.428 194.944 244.02L192.704 242.452H199.008L197.152 244.276C199.872 245.172 202.72 246.388 204.32 247.348L207.264 245.108C205.664 244.276 202.976 243.252 200.48 242.452H204.96Z" fill="#FCEC62"/>
<path d="M215.5 224.01C215.951 224.01 216.325 223.636 216.325 223.185C216.325 222.734 215.951 222.36 215.5 222.36C215.049 222.36 214.675 222.734 214.675 223.185C214.675 223.636 215.049 224.01 215.5 224.01ZM219.13 222.371L215.5 226.001L211.87 222.371L211.551 222.69L215.181 226.32L211.54 229.961L211.859 230.28L215.5 226.639L219.13 230.269L219.449 229.95L215.819 226.32L219.449 222.69L219.13 222.371ZM213.19 226.32C213.19 225.869 212.816 225.495 212.365 225.495C211.914 225.495 211.54 225.869 211.54 226.32C211.54 226.771 211.914 227.145 212.365 227.145C212.816 227.145 213.19 226.771 213.19 226.32ZM217.81 226.32C217.81 226.771 218.184 227.145 218.635 227.145C219.086 227.145 219.46 226.771 219.46 226.32C219.46 225.869 219.086 225.495 218.635 225.495C218.184 225.495 217.81 225.869 217.81 226.32ZM215.5 228.63C215.049 228.63 214.675 229.004 214.675 229.455C214.675 229.906 215.049 230.28 215.5 230.28C215.951 230.28 216.325 229.906 216.325 229.455C216.325 229.004 215.951 228.63 215.5 228.63ZM221.968 230.5H226.39V229.664H224.773V222.426H224.003C223.563 222.69 223.046 222.877 222.331 223.009V223.647H223.761V229.664H221.968V230.5Z" fill="white"/>
<defs>
<clipPath id="clip0">
<rect width="101" height="102" fill="white" transform="translate(80 51)"/>
</clipPath>
</defs>
</svg>
