<svg width="249" height="150" viewBox="0 0 249 150" fill="none" xmlns="http://www.w3.org/2000/svg">
<rect opacity="0.9" y="30" width="249" height="120" fill="#5FBBB5"/>
<path d="M32.454 85.032H29.736C29.808 85.536 29.844 86.112 29.844 86.832V90.252C29.844 93.06 29.61 94.41 28.368 95.76C27.288 96.93 25.83 97.614 24.048 98.028L25.92 100.008C27.234 99.594 29.106 98.712 30.294 97.416C31.626 95.94 32.382 94.266 32.382 90.396V86.832C32.382 86.112 32.418 85.536 32.454 85.032ZM24.102 85.176H21.51C21.564 85.59 21.582 86.22 21.582 86.562V92.628C21.582 93.168 21.51 93.87 21.492 94.212H24.102C24.066 93.798 24.048 93.096 24.048 92.646V86.562C24.048 85.986 24.066 85.59 24.102 85.176ZM41.652 97.272C41.652 97.992 41.58 99.072 41.472 99.792H44.28C44.208 99.054 44.118 97.794 44.118 97.272V92.178C46.062 92.844 48.762 93.888 50.616 94.86L51.642 92.376C49.986 91.566 46.53 90.288 44.118 89.586V86.922C44.118 86.184 44.208 85.392 44.28 84.762H41.472C41.598 85.392 41.652 86.292 41.652 86.922V97.272ZM63.054 98.604L64.566 99.846C64.728 99.702 64.944 99.522 65.34 99.306C67.356 98.28 69.948 96.336 71.442 94.392L70.056 92.412C68.85 94.158 67.068 95.58 65.61 96.21V86.796C65.61 85.986 65.718 85.284 65.736 85.23H63.054C63.072 85.284 63.198 85.968 63.198 86.778V97.272C63.198 97.758 63.126 98.262 63.054 98.604ZM54.72 98.334L56.916 99.792C58.446 98.424 59.58 96.66 60.12 94.626C60.606 92.808 60.66 89.01 60.66 86.886C60.66 86.13 60.768 85.338 60.786 85.248H58.14C58.248 85.698 58.302 86.184 58.302 86.904C58.302 89.082 58.284 92.484 57.78 94.032C57.276 95.562 56.304 97.218 54.72 98.334ZM88.002 87.012L86.238 85.878C85.752 86.004 85.176 86.022 84.816 86.022H76.5C75.906 86.022 74.88 85.932 74.34 85.878V88.416C74.808 88.38 75.672 88.344 76.482 88.344H84.87C84.636 89.874 83.952 91.926 82.764 93.42C81.306 95.238 79.272 96.804 75.708 97.65L77.67 99.792C80.874 98.766 83.268 96.984 84.906 94.824C86.4 92.826 87.192 90.036 87.606 88.272C87.696 87.894 87.84 87.372 88.002 87.012ZM106.002 90.018L104.67 88.812C104.382 88.902 103.608 88.938 103.212 88.938H94.86C94.266 88.938 93.546 88.884 92.988 88.794V91.116C93.654 91.044 94.266 91.008 94.86 91.008H102.672C102.24 91.764 101.106 93.042 100.08 93.744L101.88 95.004C103.158 94.014 104.832 91.746 105.462 90.738C105.57 90.558 105.84 90.216 106.002 90.018ZM99.828 91.908H97.344C97.416 92.286 97.47 92.754 97.47 93.186C97.47 95.454 97.092 97.056 95.058 98.442C94.518 98.82 94.068 99.036 93.6 99.216L95.508 100.746C99.72 98.424 99.72 95.274 99.828 91.908ZM113.13 84.906L112.284 87.03C114.822 87.354 119.934 88.506 122.022 89.28L122.94 87.03C120.672 86.238 115.488 85.194 113.13 84.906ZM112.302 89.748L111.474 91.926C114.156 92.358 118.764 93.402 120.834 94.194L121.716 91.944C119.448 91.152 114.876 90.18 112.302 89.748ZM111.384 94.896L110.484 97.164C113.364 97.596 119.052 98.838 121.482 99.846L122.472 97.596C120.006 96.678 114.462 95.382 111.384 94.896ZM140.454 85.032H137.736C137.808 85.536 137.844 86.112 137.844 86.832V90.252C137.844 93.06 137.61 94.41 136.368 95.76C135.288 96.93 133.83 97.614 132.048 98.028L133.92 100.008C135.234 99.594 137.106 98.712 138.294 97.416C139.626 95.94 140.382 94.266 140.382 90.396V86.832C140.382 86.112 140.418 85.536 140.454 85.032ZM132.102 85.176H129.51C129.564 85.59 129.582 86.22 129.582 86.562V92.628C129.582 93.168 129.51 93.87 129.492 94.212H132.102C132.066 93.798 132.048 93.096 132.048 92.646V86.562C132.048 85.986 132.066 85.59 132.102 85.176ZM145.656 90.666V93.492C146.322 93.438 147.528 93.402 148.554 93.402H158.22C158.976 93.402 159.894 93.474 160.326 93.492V90.666C159.858 90.702 159.066 90.774 158.22 90.774H148.554C147.618 90.774 146.304 90.72 145.656 90.666ZM170.19 84.906L167.508 84.636C167.544 85.77 167.382 87.084 167.13 88.434C166.212 88.524 165.366 88.578 164.808 88.596C164.142 88.614 163.548 88.65 162.882 88.596L163.098 91.044C163.656 90.954 164.592 90.828 165.114 90.738C165.438 90.702 166.014 90.63 166.662 90.558C165.996 93.024 164.754 96.66 163.008 99.018L165.348 99.954C167.004 97.308 168.336 93.042 169.02 90.306C169.542 90.27 169.992 90.234 170.28 90.234C171.396 90.234 172.026 90.432 172.026 91.872C172.026 93.654 171.774 95.832 171.288 96.858C171 97.452 170.55 97.632 169.938 97.632C169.47 97.632 168.426 97.452 167.742 97.254L168.12 99.63C168.732 99.756 169.596 99.882 170.28 99.882C171.648 99.882 172.638 99.486 173.232 98.226C174.006 96.66 174.258 93.744 174.258 91.62C174.258 89.028 172.908 88.182 171 88.182C170.622 88.182 170.1 88.218 169.488 88.254C169.614 87.606 169.758 86.94 169.866 86.4C169.956 85.95 170.082 85.374 170.19 84.906ZM178.2 83.412L176.76 83.988C177.264 84.672 177.84 85.734 178.218 86.472L179.64 85.86C179.334 85.23 178.668 84.096 178.2 83.412ZM176.058 84.222L174.636 84.816C175.05 85.392 175.5 86.256 175.86 86.94L174.24 87.642C175.518 89.226 176.796 92.394 177.264 94.392L179.55 93.348C179.046 91.746 177.696 88.74 176.616 87.066L177.498 86.688C177.156 86.022 176.508 84.888 176.058 84.222ZM19.278 120.284C19.134 121.796 18.846 123.398 18.324 124.46C18.792 124.622 19.584 125 19.962 125.234C20.484 124.082 20.862 122.282 21.042 120.59L19.278 120.284ZM23.292 120.68C23.742 121.778 24.21 123.236 24.354 124.154L26.046 123.56C25.83 122.642 25.362 121.238 24.876 120.176L23.292 120.68ZM28.908 112.796C29.25 111.968 29.556 111.104 29.79 110.222L27.594 109.754C27.018 112.022 25.956 114.326 24.624 115.748L24.498 115.532L22.986 116.198C23.202 116.576 23.418 117.008 23.616 117.44L21.798 117.512C22.968 116.054 24.228 114.218 25.236 112.634L23.418 111.878C22.986 112.778 22.41 113.822 21.762 114.83C21.582 114.596 21.366 114.326 21.132 114.074C21.78 113.066 22.518 111.68 23.166 110.438L21.276 109.772C20.97 110.708 20.466 111.914 19.962 112.904C19.818 112.778 19.674 112.652 19.53 112.526L18.522 114.002C19.278 114.722 20.16 115.694 20.682 116.468C20.412 116.864 20.124 117.242 19.854 117.584L18.522 117.638L18.702 119.51L21.366 119.33V126.584H23.256V119.186L24.282 119.114C24.39 119.474 24.48 119.798 24.534 120.086L26.154 119.33C25.956 118.43 25.38 117.098 24.75 115.964C25.29 116.288 26.082 116.828 26.442 117.152C26.982 116.504 27.486 115.712 27.972 114.83H32.94C32.742 120.968 32.472 123.596 31.932 124.154C31.716 124.388 31.518 124.46 31.176 124.46C30.69 124.46 29.664 124.46 28.53 124.352C28.926 124.964 29.214 125.9 29.25 126.512C30.294 126.548 31.41 126.566 32.058 126.458C32.814 126.35 33.282 126.152 33.786 125.468C34.542 124.514 34.794 121.67 35.028 113.786C35.046 113.516 35.046 112.796 35.046 112.796H28.908ZM30.942 121.022C30.564 119.888 29.538 118.232 28.602 116.99L26.892 117.854C27.81 119.15 28.746 120.878 29.088 122.012L30.942 121.022ZM40.59 116.702H43.866V118.718H40.59V116.702ZM49.446 116.702V118.718H46.098V116.702H49.446ZM51.66 120.59V114.83H46.098V113.408H52.704V111.428H46.098V109.772H43.866V111.428H37.332V113.408H43.866V114.83H38.502V120.59H42.732C41.148 122.156 38.844 123.56 36.594 124.352C37.08 124.784 37.728 125.612 38.07 126.152C40.14 125.27 42.228 123.884 43.866 122.21V126.584H46.098V122.066C47.754 123.812 49.842 125.288 51.93 126.188C52.272 125.612 52.956 124.73 53.46 124.298C51.21 123.524 48.888 122.138 47.322 120.59H51.66ZM65.754 110.492H63.144C63.198 110.708 63.27 111.32 63.324 112.058C63.342 112.202 63.342 112.382 63.36 112.616C60.912 112.652 57.636 112.724 55.584 112.724L55.638 114.902C57.852 114.776 60.66 114.668 63.378 114.632C63.396 115.028 63.396 115.442 63.396 115.838C63.162 115.802 62.928 115.784 62.676 115.784C60.714 115.784 59.076 117.116 59.076 119.15C59.076 121.346 60.786 122.462 62.172 122.462C62.46 122.462 62.73 122.426 62.982 122.372C61.992 123.452 60.408 124.046 58.59 124.424L60.516 126.332C64.908 125.108 66.276 122.12 66.276 119.78C66.276 118.844 66.06 117.998 65.628 117.314C65.628 116.522 65.61 115.532 65.61 114.614C68.058 114.614 69.732 114.65 70.812 114.704L70.83 112.58C69.894 112.562 67.428 112.598 65.61 112.598C65.628 112.382 65.628 112.184 65.628 112.04C65.646 111.752 65.718 110.78 65.754 110.492ZM61.236 119.114C61.236 118.16 61.92 117.674 62.622 117.674C63.108 117.674 63.54 117.89 63.792 118.304C64.044 119.888 63.378 120.464 62.622 120.464C61.902 120.464 61.236 119.942 61.236 119.114ZM79.02 122.876C79.02 122.426 79.452 122.012 80.136 122.012C81.108 122.012 81.774 122.768 81.882 123.938C81.558 123.974 81.216 123.992 80.838 123.992C79.758 123.992 79.02 123.542 79.02 122.876ZM75.96 111.284L76.032 113.624C76.446 113.57 77.022 113.516 77.508 113.48C78.462 113.426 80.946 113.318 81.864 113.3C80.982 114.074 79.11 115.586 78.102 116.414C77.04 117.296 74.862 119.132 73.584 120.158L75.222 121.85C77.148 119.654 78.948 118.196 81.702 118.196C83.826 118.196 85.446 119.294 85.446 120.914C85.446 122.012 84.942 122.84 83.952 123.362C83.7 121.652 82.35 120.284 80.118 120.284C78.21 120.284 76.896 121.634 76.896 123.092C76.896 124.892 78.786 126.044 81.288 126.044C85.644 126.044 87.804 123.794 87.804 120.95C87.804 118.322 85.482 116.414 82.422 116.414C81.846 116.414 81.306 116.468 80.712 116.612C81.846 115.712 83.736 114.128 84.708 113.444C85.122 113.138 85.554 112.886 85.968 112.616L84.798 111.014C84.582 111.086 84.168 111.14 83.43 111.212C82.404 111.302 78.552 111.374 77.598 111.374C77.094 111.374 76.464 111.356 75.96 111.284ZM106.794 110.78H98.046V112.814H106.794V110.78ZM94.59 109.754C93.726 111.014 92.016 112.634 90.522 113.588C90.9 114.002 91.44 114.866 91.71 115.334C93.42 114.146 95.364 112.292 96.66 110.6L94.59 109.754ZM95.274 113.642C94.122 115.676 92.16 117.764 90.324 119.024C90.756 119.474 91.476 120.446 91.782 120.878C92.268 120.482 92.754 120.032 93.258 119.546V126.584H95.4V117.188C96.12 116.288 96.786 115.352 97.326 114.434L95.274 113.642ZM107.244 115.73H97.29V117.764H102.6V124.028C102.6 124.298 102.474 124.37 102.15 124.37C101.826 124.388 100.638 124.388 99.612 124.334C99.9 124.964 100.17 125.882 100.26 126.512C101.862 126.512 103.014 126.476 103.77 126.152C104.562 125.828 104.778 125.234 104.778 124.082V117.764H107.244V115.73ZM114.192 122.84H117.45V121.328H114.192V120.626H117.378V115.064H114.192V114.362H117.648V115.766H119.286C119.16 118.988 118.728 121.562 117.324 123.506C116.28 123.596 115.218 123.686 114.192 123.758V122.84ZM110.844 119.294V118.484H112.248V119.294H110.844ZM115.596 118.484V119.294H114.192V118.484H115.596ZM114.192 117.206V116.414H115.596V117.206H114.192ZM110.844 116.414H112.248V117.206H110.844V116.414ZM121.374 113.804C121.41 112.616 121.41 111.356 121.41 110.042H119.358C119.358 111.374 119.358 112.616 119.34 113.804H117.648V112.814H114.192V111.932C115.362 111.806 116.478 111.644 117.432 111.446L116.496 109.844C114.516 110.276 111.402 110.582 108.738 110.726C108.936 111.14 109.134 111.806 109.206 112.238C110.178 112.22 111.204 112.166 112.248 112.094V112.814H108.702V114.362H112.248V115.064H109.152V120.626H112.248V121.328H109.08V122.84H112.248V123.92C110.862 124.01 109.602 124.1 108.594 124.172L108.846 125.972C110.79 125.81 113.382 125.54 115.974 125.27C116.442 125.666 116.964 126.26 117.234 126.692C120.258 124.298 121.086 120.59 121.32 115.766H122.94C122.832 121.58 122.652 123.776 122.274 124.262C122.112 124.496 121.932 124.568 121.662 124.568C121.32 124.568 120.636 124.55 119.844 124.478C120.204 125.072 120.438 125.936 120.474 126.53C121.338 126.548 122.166 126.566 122.706 126.458C123.3 126.332 123.714 126.152 124.128 125.558C124.704 124.73 124.848 122.12 125.01 114.758C125.01 114.506 125.028 113.804 125.028 113.804H121.374ZM132.912 117.332C132.3 117.494 131.67 117.656 131.04 117.818V115.118H132.876V113.138H131.04V109.772H128.934V113.138H126.702V115.118H128.934V118.322C128.016 118.538 127.152 118.736 126.432 118.88L126.936 120.932L128.934 120.41V124.262C128.934 124.514 128.844 124.586 128.592 124.604C128.358 124.604 127.638 124.604 126.936 124.568C127.188 125.126 127.476 125.99 127.53 126.53C128.79 126.53 129.654 126.476 130.248 126.152C130.86 125.81 131.04 125.306 131.04 124.244V119.87C131.76 119.672 132.462 119.474 133.164 119.276L132.912 117.332ZM140.4 120.122V121.22H135.81V120.122H140.4ZM135.81 124.082V122.894H140.4V124.082H135.81ZM133.776 126.566H135.81V125.792H140.4V126.494H142.524V118.358H133.776V126.566ZM137.178 115.406C136.134 115.406 135.954 115.316 135.954 114.632V113.876C138.096 113.444 140.49 112.832 142.326 112.094L140.742 110.546C139.554 111.104 137.754 111.68 135.954 112.13V109.772H133.812V114.65C133.812 116.72 134.46 117.332 136.962 117.332H140.454C142.506 117.332 143.136 116.648 143.406 114.11C142.812 114.002 141.912 113.66 141.462 113.336C141.336 115.118 141.192 115.406 140.292 115.406H137.178ZM147.186 114.398C147.978 113.516 148.59 112.598 149.094 111.788C149.976 112.544 150.894 113.57 151.506 114.398H147.186ZM161.424 115.388H158.094V109.898H155.88V115.388H152.55V117.458H149.922V116.198H151.83V114.848L151.866 114.902L153.324 113.228C152.55 112.184 150.984 110.762 149.742 109.772H147.852C147.204 111.284 146.016 113.066 144.288 114.434C144.72 114.74 145.35 115.46 145.638 115.91C145.818 115.766 145.998 115.604 146.16 115.442V116.198H147.924V117.458H145.116V119.294H147.924V123.866C146.754 124.028 145.674 124.154 144.792 124.262L145.242 126.242C147.33 125.918 150.174 125.504 152.802 125.072L152.712 123.164C151.794 123.308 150.84 123.452 149.922 123.578V119.294H152.676V117.512H155.88V126.548H158.094V117.512H161.424V115.388ZM151.614 123.11C151.938 122.354 152.262 121.238 152.622 120.176L150.912 119.762C150.75 120.626 150.426 121.922 150.156 122.732L151.614 123.11ZM145.314 120.32C145.62 121.31 145.908 122.588 145.98 123.452L147.546 123.002C147.438 122.174 147.132 120.896 146.808 119.942L145.314 120.32Z" fill="white"/>
<path d="M30.6504 52.4902L30.7412 52.9746L30.8623 52.4902L42.3662 13.9219H46.1807L32.4062 58H29.1367L15.3623 13.9219H19.1465L30.6504 52.4902ZM70.4902 45.6787H53.9609L50.207 58H46.6045L60.6514 13.9219H63.8604L77.9072 58H74.3047L70.4902 45.6787ZM54.96 42.4395H69.4912L62.2256 18.7959L54.96 42.4395ZM87.958 54.791H106.122V58H84.4766V13.9219H87.958V54.791ZM137.213 13.9219V45.1943C137.193 49.4528 136.042 52.7526 133.762 55.0938C131.501 57.4349 128.282 58.6055 124.104 58.6055C119.866 58.6055 116.617 57.4551 114.356 55.1543C112.116 52.8333 110.996 49.473 110.996 45.0732V13.9219H114.447V44.9521C114.447 51.915 117.666 55.3965 124.104 55.3965C130.442 55.3965 133.651 52.016 133.731 45.2549V13.9219H137.213ZM167.517 36.8994H150.412V54.791H170.09V58H146.961V13.9219H169.938V17.1914H150.412V33.6904H167.517V36.8994Z" fill="white"/>
<mask id="mask0" mask-type="alpha" maskUnits="userSpaceOnUse" x="1" y="1" width="248" height="29">
<rect x="1" y="1" width="248" height="29" fill="#C4C4C4"/>
</mask>
<g mask="url(#mask0)">
<path d="M30.6504 52.4902L30.7412 52.9746L30.8623 52.4902L42.3662 13.9219H46.1807L32.4062 58H29.1367L15.3623 13.9219H19.1465L30.6504 52.4902ZM70.4902 45.6787H53.9609L50.207 58H46.6045L60.6514 13.9219H63.8604L77.9072 58H74.3047L70.4902 45.6787ZM54.96 42.4395H69.4912L62.2256 18.7959L54.96 42.4395ZM87.958 54.791H106.122V58H84.4766V13.9219H87.958V54.791ZM137.213 13.9219V45.1943C137.193 49.4528 136.042 52.7526 133.762 55.0938C131.501 57.4349 128.282 58.6055 124.104 58.6055C119.866 58.6055 116.617 57.4551 114.356 55.1543C112.116 52.8333 110.996 49.473 110.996 45.0732V13.9219H114.447V44.9521C114.447 51.915 117.666 55.3965 124.104 55.3965C130.442 55.3965 133.651 52.016 133.731 45.2549V13.9219H137.213ZM167.517 36.8994H150.412V54.791H170.09V58H146.961V13.9219H169.938V17.1914H150.412V33.6904H167.517V36.8994Z" fill="#5FBBB5"/>
</g>
</svg>
