<svg width="249" height="150" viewBox="0 0 249 150" fill="none" xmlns="http://www.w3.org/2000/svg">
<rect opacity="0.9" y="30" width="249" height="120" fill="#5FBBB5"/>
<path d="M84.454 92.032H81.736C81.808 92.536 81.844 93.112 81.844 93.832V97.252C81.844 100.06 81.61 101.41 80.368 102.76C79.288 103.93 77.83 104.614 76.048 105.028L77.92 107.008C79.234 106.594 81.106 105.712 82.294 104.416C83.626 102.94 84.382 101.266 84.382 97.396V93.832C84.382 93.112 84.418 92.536 84.454 92.032ZM76.102 92.176H73.51C73.564 92.59 73.582 93.22 73.582 93.562V99.628C73.582 100.168 73.51 100.87 73.492 101.212H76.102C76.066 100.798 76.048 100.096 76.048 99.646V93.562C76.048 92.986 76.066 92.59 76.102 92.176ZM93.652 104.272C93.652 104.992 93.58 106.072 93.472 106.792H96.28C96.208 106.054 96.118 104.794 96.118 104.272V99.178C98.062 99.844 100.762 100.888 102.616 101.86L103.642 99.376C101.986 98.566 98.53 97.288 96.118 96.586V93.922C96.118 93.184 96.208 92.392 96.28 91.762H93.472C93.598 92.392 93.652 93.292 93.652 93.922V104.272ZM115.054 105.604L116.566 106.846C116.728 106.702 116.944 106.522 117.34 106.306C119.356 105.28 121.948 103.336 123.442 101.392L122.056 99.412C120.85 101.158 119.068 102.58 117.61 103.21V93.796C117.61 92.986 117.718 92.284 117.736 92.23H115.054C115.072 92.284 115.198 92.968 115.198 93.778V104.272C115.198 104.758 115.126 105.262 115.054 105.604ZM106.72 105.334L108.916 106.792C110.446 105.424 111.58 103.66 112.12 101.626C112.606 99.808 112.66 96.01 112.66 93.886C112.66 93.13 112.768 92.338 112.786 92.248H110.14C110.248 92.698 110.302 93.184 110.302 93.904C110.302 96.082 110.284 99.484 109.78 101.032C109.276 102.562 108.304 104.218 106.72 105.334ZM140.002 94.012L138.238 92.878C137.752 93.004 137.176 93.022 136.816 93.022H128.5C127.906 93.022 126.88 92.932 126.34 92.878V95.416C126.808 95.38 127.672 95.344 128.482 95.344H136.87C136.636 96.874 135.952 98.926 134.764 100.42C133.306 102.238 131.272 103.804 127.708 104.65L129.67 106.792C132.874 105.766 135.268 103.984 136.906 101.824C138.4 99.826 139.192 97.036 139.606 95.272C139.696 94.894 139.84 94.372 140.002 94.012ZM158.002 97.018L156.67 95.812C156.382 95.902 155.608 95.938 155.212 95.938H146.86C146.266 95.938 145.546 95.884 144.988 95.794V98.116C145.654 98.044 146.266 98.008 146.86 98.008H154.672C154.24 98.764 153.106 100.042 152.08 100.744L153.88 102.004C155.158 101.014 156.832 98.746 157.462 97.738C157.57 97.558 157.84 97.216 158.002 97.018ZM151.828 98.908H149.344C149.416 99.286 149.47 99.754 149.47 100.186C149.47 102.454 149.092 104.056 147.058 105.442C146.518 105.82 146.068 106.036 145.6 106.216L147.508 107.746C151.72 105.424 151.72 102.274 151.828 98.908ZM165.13 91.906L164.284 94.03C166.822 94.354 171.934 95.506 174.022 96.28L174.94 94.03C172.672 93.238 167.488 92.194 165.13 91.906ZM164.302 96.748L163.474 98.926C166.156 99.358 170.764 100.402 172.834 101.194L173.716 98.944C171.448 98.152 166.876 97.18 164.302 96.748ZM163.384 101.896L162.484 104.164C165.364 104.596 171.052 105.838 173.482 106.846L174.472 104.596C172.006 103.678 166.462 102.382 163.384 101.896ZM192.454 92.032H189.736C189.808 92.536 189.844 93.112 189.844 93.832V97.252C189.844 100.06 189.61 101.41 188.368 102.76C187.288 103.93 185.83 104.614 184.048 105.028L185.92 107.008C187.234 106.594 189.106 105.712 190.294 104.416C191.626 102.94 192.382 101.266 192.382 97.396V93.832C192.382 93.112 192.418 92.536 192.454 92.032ZM184.102 92.176H181.51C181.564 92.59 181.582 93.22 181.582 93.562V99.628C181.582 100.168 181.51 100.87 181.492 101.212H184.102C184.066 100.798 184.048 100.096 184.048 99.646V93.562C184.048 92.986 184.066 92.59 184.102 92.176ZM197.656 97.666V100.492C198.322 100.438 199.528 100.402 200.554 100.402H210.22C210.976 100.402 211.894 100.474 212.326 100.492V97.666C211.858 97.702 211.066 97.774 210.22 97.774H200.554C199.618 97.774 198.304 97.72 197.656 97.666ZM222.19 91.906L219.508 91.636C219.544 92.77 219.382 94.084 219.13 95.434C218.212 95.524 217.366 95.578 216.808 95.596C216.142 95.614 215.548 95.65 214.882 95.596L215.098 98.044C215.656 97.954 216.592 97.828 217.114 97.738C217.438 97.702 218.014 97.63 218.662 97.558C217.996 100.024 216.754 103.66 215.008 106.018L217.348 106.954C219.004 104.308 220.336 100.042 221.02 97.306C221.542 97.27 221.992 97.234 222.28 97.234C223.396 97.234 224.026 97.432 224.026 98.872C224.026 100.654 223.774 102.832 223.288 103.858C223 104.452 222.55 104.632 221.938 104.632C221.47 104.632 220.426 104.452 219.742 104.254L220.12 106.63C220.732 106.756 221.596 106.882 222.28 106.882C223.648 106.882 224.638 106.486 225.232 105.226C226.006 103.66 226.258 100.744 226.258 98.62C226.258 96.028 224.908 95.182 223 95.182C222.622 95.182 222.1 95.218 221.488 95.254C221.614 94.606 221.758 93.94 221.866 93.4C221.956 92.95 222.082 92.374 222.19 91.906ZM230.2 90.412L228.76 90.988C229.264 91.672 229.84 92.734 230.218 93.472L231.64 92.86C231.334 92.23 230.668 91.096 230.2 90.412ZM228.058 91.222L226.636 91.816C227.05 92.392 227.5 93.256 227.86 93.94L226.24 94.642C227.518 96.226 228.796 99.394 229.264 101.392L231.55 100.348C231.046 98.746 229.696 95.74 228.616 94.066L229.498 93.688C229.156 93.022 228.508 91.888 228.058 91.222ZM71.278 127.284C71.134 128.796 70.846 130.398 70.324 131.46C70.792 131.622 71.584 132 71.962 132.234C72.484 131.082 72.862 129.282 73.042 127.59L71.278 127.284ZM75.292 127.68C75.742 128.778 76.21 130.236 76.354 131.154L78.046 130.56C77.83 129.642 77.362 128.238 76.876 127.176L75.292 127.68ZM80.908 119.796C81.25 118.968 81.556 118.104 81.79 117.222L79.594 116.754C79.018 119.022 77.956 121.326 76.624 122.748L76.498 122.532L74.986 123.198C75.202 123.576 75.418 124.008 75.616 124.44L73.798 124.512C74.968 123.054 76.228 121.218 77.236 119.634L75.418 118.878C74.986 119.778 74.41 120.822 73.762 121.83C73.582 121.596 73.366 121.326 73.132 121.074C73.78 120.066 74.518 118.68 75.166 117.438L73.276 116.772C72.97 117.708 72.466 118.914 71.962 119.904C71.818 119.778 71.674 119.652 71.53 119.526L70.522 121.002C71.278 121.722 72.16 122.694 72.682 123.468C72.412 123.864 72.124 124.242 71.854 124.584L70.522 124.638L70.702 126.51L73.366 126.33V133.584H75.256V126.186L76.282 126.114C76.39 126.474 76.48 126.798 76.534 127.086L78.154 126.33C77.956 125.43 77.38 124.098 76.75 122.964C77.29 123.288 78.082 123.828 78.442 124.152C78.982 123.504 79.486 122.712 79.972 121.83H84.94C84.742 127.968 84.472 130.596 83.932 131.154C83.716 131.388 83.518 131.46 83.176 131.46C82.69 131.46 81.664 131.46 80.53 131.352C80.926 131.964 81.214 132.9 81.25 133.512C82.294 133.548 83.41 133.566 84.058 133.458C84.814 133.35 85.282 133.152 85.786 132.468C86.542 131.514 86.794 128.67 87.028 120.786C87.046 120.516 87.046 119.796 87.046 119.796H80.908ZM82.942 128.022C82.564 126.888 81.538 125.232 80.602 123.99L78.892 124.854C79.81 126.15 80.746 127.878 81.088 129.012L82.942 128.022ZM92.59 123.702H95.866V125.718H92.59V123.702ZM101.446 123.702V125.718H98.098V123.702H101.446ZM103.66 127.59V121.83H98.098V120.408H104.704V118.428H98.098V116.772H95.866V118.428H89.332V120.408H95.866V121.83H90.502V127.59H94.732C93.148 129.156 90.844 130.56 88.594 131.352C89.08 131.784 89.728 132.612 90.07 133.152C92.14 132.27 94.228 130.884 95.866 129.21V133.584H98.098V129.066C99.754 130.812 101.842 132.288 103.93 133.188C104.272 132.612 104.956 131.73 105.46 131.298C103.21 130.524 100.888 129.138 99.322 127.59H103.66ZM117.754 117.492H115.144C115.198 117.708 115.27 118.32 115.324 119.058C115.342 119.202 115.342 119.382 115.36 119.616C112.912 119.652 109.636 119.724 107.584 119.724L107.638 121.902C109.852 121.776 112.66 121.668 115.378 121.632C115.396 122.028 115.396 122.442 115.396 122.838C115.162 122.802 114.928 122.784 114.676 122.784C112.714 122.784 111.076 124.116 111.076 126.15C111.076 128.346 112.786 129.462 114.172 129.462C114.46 129.462 114.73 129.426 114.982 129.372C113.992 130.452 112.408 131.046 110.59 131.424L112.516 133.332C116.908 132.108 118.276 129.12 118.276 126.78C118.276 125.844 118.06 124.998 117.628 124.314C117.628 123.522 117.61 122.532 117.61 121.614C120.058 121.614 121.732 121.65 122.812 121.704L122.83 119.58C121.894 119.562 119.428 119.598 117.61 119.598C117.628 119.382 117.628 119.184 117.628 119.04C117.646 118.752 117.718 117.78 117.754 117.492ZM113.236 126.114C113.236 125.16 113.92 124.674 114.622 124.674C115.108 124.674 115.54 124.89 115.792 125.304C116.044 126.888 115.378 127.464 114.622 127.464C113.902 127.464 113.236 126.942 113.236 126.114ZM131.02 129.876C131.02 129.426 131.452 129.012 132.136 129.012C133.108 129.012 133.774 129.768 133.882 130.938C133.558 130.974 133.216 130.992 132.838 130.992C131.758 130.992 131.02 130.542 131.02 129.876ZM127.96 118.284L128.032 120.624C128.446 120.57 129.022 120.516 129.508 120.48C130.462 120.426 132.946 120.318 133.864 120.3C132.982 121.074 131.11 122.586 130.102 123.414C129.04 124.296 126.862 126.132 125.584 127.158L127.222 128.85C129.148 126.654 130.948 125.196 133.702 125.196C135.826 125.196 137.446 126.294 137.446 127.914C137.446 129.012 136.942 129.84 135.952 130.362C135.7 128.652 134.35 127.284 132.118 127.284C130.21 127.284 128.896 128.634 128.896 130.092C128.896 131.892 130.786 133.044 133.288 133.044C137.644 133.044 139.804 130.794 139.804 127.95C139.804 125.322 137.482 123.414 134.422 123.414C133.846 123.414 133.306 123.468 132.712 123.612C133.846 122.712 135.736 121.128 136.708 120.444C137.122 120.138 137.554 119.886 137.968 119.616L136.798 118.014C136.582 118.086 136.168 118.14 135.43 118.212C134.404 118.302 130.552 118.374 129.598 118.374C129.094 118.374 128.464 118.356 127.96 118.284ZM158.794 117.78H150.046V119.814H158.794V117.78ZM146.59 116.754C145.726 118.014 144.016 119.634 142.522 120.588C142.9 121.002 143.44 121.866 143.71 122.334C145.42 121.146 147.364 119.292 148.66 117.6L146.59 116.754ZM147.274 120.642C146.122 122.676 144.16 124.764 142.324 126.024C142.756 126.474 143.476 127.446 143.782 127.878C144.268 127.482 144.754 127.032 145.258 126.546V133.584H147.4V124.188C148.12 123.288 148.786 122.352 149.326 121.434L147.274 120.642ZM159.244 122.73H149.29V124.764H154.6V131.028C154.6 131.298 154.474 131.37 154.15 131.37C153.826 131.388 152.638 131.388 151.612 131.334C151.9 131.964 152.17 132.882 152.26 133.512C153.862 133.512 155.014 133.476 155.77 133.152C156.562 132.828 156.778 132.234 156.778 131.082V124.764H159.244V122.73ZM166.192 129.84H169.45V128.328H166.192V127.626H169.378V122.064H166.192V121.362H169.648V122.766H171.286C171.16 125.988 170.728 128.562 169.324 130.506C168.28 130.596 167.218 130.686 166.192 130.758V129.84ZM162.844 126.294V125.484H164.248V126.294H162.844ZM167.596 125.484V126.294H166.192V125.484H167.596ZM166.192 124.206V123.414H167.596V124.206H166.192ZM162.844 123.414H164.248V124.206H162.844V123.414ZM173.374 120.804C173.41 119.616 173.41 118.356 173.41 117.042H171.358C171.358 118.374 171.358 119.616 171.34 120.804H169.648V119.814H166.192V118.932C167.362 118.806 168.478 118.644 169.432 118.446L168.496 116.844C166.516 117.276 163.402 117.582 160.738 117.726C160.936 118.14 161.134 118.806 161.206 119.238C162.178 119.22 163.204 119.166 164.248 119.094V119.814H160.702V121.362H164.248V122.064H161.152V127.626H164.248V128.328H161.08V129.84H164.248V130.92C162.862 131.01 161.602 131.1 160.594 131.172L160.846 132.972C162.79 132.81 165.382 132.54 167.974 132.27C168.442 132.666 168.964 133.26 169.234 133.692C172.258 131.298 173.086 127.59 173.32 122.766H174.94C174.832 128.58 174.652 130.776 174.274 131.262C174.112 131.496 173.932 131.568 173.662 131.568C173.32 131.568 172.636 131.55 171.844 131.478C172.204 132.072 172.438 132.936 172.474 133.53C173.338 133.548 174.166 133.566 174.706 133.458C175.3 133.332 175.714 133.152 176.128 132.558C176.704 131.73 176.848 129.12 177.01 121.758C177.01 121.506 177.028 120.804 177.028 120.804H173.374ZM184.912 124.332C184.3 124.494 183.67 124.656 183.04 124.818V122.118H184.876V120.138H183.04V116.772H180.934V120.138H178.702V122.118H180.934V125.322C180.016 125.538 179.152 125.736 178.432 125.88L178.936 127.932L180.934 127.41V131.262C180.934 131.514 180.844 131.586 180.592 131.604C180.358 131.604 179.638 131.604 178.936 131.568C179.188 132.126 179.476 132.99 179.53 133.53C180.79 133.53 181.654 133.476 182.248 133.152C182.86 132.81 183.04 132.306 183.04 131.244V126.87C183.76 126.672 184.462 126.474 185.164 126.276L184.912 124.332ZM192.4 127.122V128.22H187.81V127.122H192.4ZM187.81 131.082V129.894H192.4V131.082H187.81ZM185.776 133.566H187.81V132.792H192.4V133.494H194.524V125.358H185.776V133.566ZM189.178 122.406C188.134 122.406 187.954 122.316 187.954 121.632V120.876C190.096 120.444 192.49 119.832 194.326 119.094L192.742 117.546C191.554 118.104 189.754 118.68 187.954 119.13V116.772H185.812V121.65C185.812 123.72 186.46 124.332 188.962 124.332H192.454C194.506 124.332 195.136 123.648 195.406 121.11C194.812 121.002 193.912 120.66 193.462 120.336C193.336 122.118 193.192 122.406 192.292 122.406H189.178ZM199.186 121.398C199.978 120.516 200.59 119.598 201.094 118.788C201.976 119.544 202.894 120.57 203.506 121.398H199.186ZM213.424 122.388H210.094V116.898H207.88V122.388H204.55V124.458H201.922V123.198H203.83V121.848L203.866 121.902L205.324 120.228C204.55 119.184 202.984 117.762 201.742 116.772H199.852C199.204 118.284 198.016 120.066 196.288 121.434C196.72 121.74 197.35 122.46 197.638 122.91C197.818 122.766 197.998 122.604 198.16 122.442V123.198H199.924V124.458H197.116V126.294H199.924V130.866C198.754 131.028 197.674 131.154 196.792 131.262L197.242 133.242C199.33 132.918 202.174 132.504 204.802 132.072L204.712 130.164C203.794 130.308 202.84 130.452 201.922 130.578V126.294H204.676V124.512H207.88V133.548H210.094V124.512H213.424V122.388ZM203.614 130.11C203.938 129.354 204.262 128.238 204.622 127.176L202.912 126.762C202.75 127.626 202.426 128.922 202.156 129.732L203.614 130.11ZM197.314 127.32C197.62 128.31 197.908 129.588 197.98 130.452L199.546 130.002C199.438 129.174 199.132 127.896 198.808 126.942L197.314 127.32Z" fill="white"/>
<path d="M30.6504 52.4902L30.7412 52.9746L30.8623 52.4902L42.3662 13.9219H46.1807L32.4062 58H29.1367L15.3623 13.9219H19.1465L30.6504 52.4902ZM70.4902 45.6787H53.9609L50.207 58H46.6045L60.6514 13.9219H63.8604L77.9072 58H74.3047L70.4902 45.6787ZM54.96 42.4395H69.4912L62.2256 18.7959L54.96 42.4395ZM87.958 54.791H106.122V58H84.4766V13.9219H87.958V54.791ZM137.213 13.9219V45.1943C137.193 49.4528 136.042 52.7526 133.762 55.0938C131.501 57.4349 128.282 58.6055 124.104 58.6055C119.866 58.6055 116.617 57.4551 114.356 55.1543C112.116 52.8333 110.996 49.473 110.996 45.0732V13.9219H114.447V44.9521C114.447 51.915 117.666 55.3965 124.104 55.3965C130.442 55.3965 133.651 52.016 133.731 45.2549V13.9219H137.213ZM167.517 36.8994H150.412V54.791H170.09V58H146.961V13.9219H169.938V17.1914H150.412V33.6904H167.517V36.8994Z" fill="white"/>
<mask id="mask0" mask-type="alpha" maskUnits="userSpaceOnUse" x="1" y="1" width="248" height="29">
<rect x="1" y="1" width="248" height="29" fill="#C4C4C4"/>
</mask>
<g mask="url(#mask0)">
<path d="M30.6504 52.4902L30.7412 52.9746L30.8623 52.4902L42.3662 13.9219H46.1807L32.4062 58H29.1367L15.3623 13.9219H19.1465L30.6504 52.4902ZM70.4902 45.6787H53.9609L50.207 58H46.6045L60.6514 13.9219H63.8604L77.9072 58H74.3047L70.4902 45.6787ZM54.96 42.4395H69.4912L62.2256 18.7959L54.96 42.4395ZM87.958 54.791H106.122V58H84.4766V13.9219H87.958V54.791ZM137.213 13.9219V45.1943C137.193 49.4528 136.042 52.7526 133.762 55.0938C131.501 57.4349 128.282 58.6055 124.104 58.6055C119.866 58.6055 116.617 57.4551 114.356 55.1543C112.116 52.8333 110.996 49.473 110.996 45.0732V13.9219H114.447V44.9521C114.447 51.915 117.666 55.3965 124.104 55.3965C130.442 55.3965 133.651 52.016 133.731 45.2549V13.9219H137.213ZM167.517 36.8994H150.412V54.791H170.09V58H146.961V13.9219H169.938V17.1914H150.412V33.6904H167.517V36.8994Z" fill="#5FBBB5"/>
</g>
</svg>
