<svg width="249" height="170" viewBox="0 0 249 170" fill="none" xmlns="http://www.w3.org/2000/svg">
<rect opacity="0.9" y="30" width="249" height="140" fill="#5FBBB5"/>
<path d="M19.456 97H21.584V92.056C21.584 90.936 21.392 89.288 21.28 88.168H21.344L22.288 90.952L24.128 95.928H25.488L27.312 90.952L28.272 88.168H28.352C28.224 89.288 28.048 90.936 28.048 92.056V97H30.208V85.144H27.584L25.616 90.696C25.36 91.432 25.152 92.216 24.896 92.968H24.816C24.576 92.216 24.352 91.432 24.096 90.696L22.08 85.144H19.456V97ZM34.5203 97H36.8723V88.04H34.5203V97ZM35.7043 86.6C36.5043 86.6 37.0643 86.088 37.0643 85.304C37.0643 84.536 36.5043 84.024 35.7043 84.024C34.8883 84.024 34.3283 84.536 34.3283 85.304C34.3283 86.088 34.8883 86.6 35.7043 86.6ZM43.5396 97.224C45.8756 97.224 47.1076 95.96 47.1076 94.392C47.1076 92.728 45.7956 92.136 44.6116 91.688C43.6676 91.336 42.8356 91.096 42.8356 90.44C42.8356 89.928 43.2196 89.576 44.0356 89.576C44.6916 89.576 45.3156 89.88 45.9556 90.344L47.0116 88.92C46.2756 88.36 45.2676 87.816 43.9716 87.816C41.9236 87.816 40.6276 88.952 40.6276 90.552C40.6276 92.056 41.8916 92.744 43.0276 93.176C43.9716 93.544 44.8996 93.848 44.8996 94.52C44.8996 95.08 44.4996 95.464 43.6036 95.464C42.7716 95.464 42.0036 95.112 41.2036 94.488L40.1316 95.96C41.0276 96.696 42.3396 97.224 43.5396 97.224ZM53.0615 97.224C55.3975 97.224 56.6295 95.96 56.6295 94.392C56.6295 92.728 55.3175 92.136 54.1335 91.688C53.1895 91.336 52.3575 91.096 52.3575 90.44C52.3575 89.928 52.7415 89.576 53.5575 89.576C54.2135 89.576 54.8375 89.88 55.4775 90.344L56.5335 88.92C55.7975 88.36 54.7895 87.816 53.4935 87.816C51.4455 87.816 50.1495 88.952 50.1495 90.552C50.1495 92.056 51.4135 92.744 52.5495 93.176C53.4935 93.544 54.4215 93.848 54.4215 94.52C54.4215 95.08 54.0215 95.464 53.1255 95.464C52.2935 95.464 51.5255 95.112 50.7255 94.488L49.6535 95.96C50.5495 96.696 51.8615 97.224 53.0615 97.224ZM60.0234 97H62.3754V88.04H60.0234V97ZM61.2074 86.6C62.0074 86.6 62.5674 86.088 62.5674 85.304C62.5674 84.536 62.0074 84.024 61.2074 84.024C60.3914 84.024 59.8314 84.536 59.8314 85.304C59.8314 86.088 60.3914 86.6 61.2074 86.6ZM70.2268 97.224C72.4668 97.224 74.5308 95.496 74.5308 92.52C74.5308 89.544 72.4668 87.816 70.2268 87.816C67.9868 87.816 65.9228 89.544 65.9228 92.52C65.9228 95.496 67.9868 97.224 70.2268 97.224ZM70.2268 95.304C69.0108 95.304 68.3228 94.216 68.3228 92.52C68.3228 90.84 69.0108 89.736 70.2268 89.736C71.4428 89.736 72.1308 90.84 72.1308 92.52C72.1308 94.216 71.4428 95.304 70.2268 95.304ZM78.0984 97H80.4504V90.84C81.1064 90.184 81.5704 89.832 82.3064 89.832C83.1864 89.832 83.5704 90.312 83.5704 91.704V97H85.9224V91.416C85.9224 89.16 85.0904 87.816 83.1544 87.816C81.9384 87.816 81.0264 88.456 80.2424 89.224H80.1944L80.0184 88.04H78.0984V97ZM103.516 91.368C103.516 87.88 101.02 85.128 97.0524 85.128C92.9084 85.128 89.7084 88.28 89.7084 91.976C89.7084 94.68 91.1804 96.632 92.9564 96.632C94.7004 96.632 96.0764 94.648 97.0364 91.416C97.5004 89.912 97.7724 88.44 97.9964 87.08C100.156 87.448 101.356 89.096 101.356 91.304C101.356 93.64 99.7564 95.112 97.7084 95.592C97.2764 95.688 96.8284 95.784 96.2204 95.848L97.4204 97.752C101.452 97.128 103.516 94.744 103.516 91.368ZM91.7564 91.768C91.7564 90.008 93.1804 87.672 95.8204 87.128C95.6444 88.456 95.3404 89.816 94.9724 91C94.3164 93.16 93.6924 94.168 93.0204 94.168C92.3964 94.168 91.7564 93.384 91.7564 91.768ZM117.596 89.192H114.812L115.244 89.096C115.164 88.76 114.988 88.296 114.78 87.896H117.708C117.564 88.296 117.388 88.744 117.228 89.096L117.596 89.192ZM112.972 87.944C113.18 88.312 113.372 88.792 113.468 89.192H111.356V90.536H115.324V91.256H111.98V92.568H115.324V93.32H111.34V94.696H115.324V95.768H117.212V94.696H121.372V93.32H117.212V92.568H120.732V91.256H117.212V90.536H121.34V89.192H118.956C119.18 88.856 119.42 88.44 119.692 87.992L119.292 87.896H121.5V86.52H117.212V85.704H120.524V84.392H117.212V83.448H115.324V84.392H112.172V85.704H115.324V86.52H111.1V87.896H113.196L112.972 87.944ZM110.972 86.392C110.46 85.624 109.356 84.568 108.46 83.848L107.004 84.936C107.9 85.704 108.956 86.808 109.404 87.592L110.972 86.392ZM110.54 89.656H106.94V91.4H108.732V94.888C108.092 95.432 107.372 95.96 106.748 96.36L107.644 98.248C108.46 97.56 109.116 96.952 109.756 96.328C110.716 97.56 111.996 98.024 113.9 98.104C115.852 98.184 119.244 98.152 121.228 98.056C121.324 97.528 121.596 96.648 121.82 96.2C119.612 96.376 115.836 96.424 113.916 96.344C112.284 96.28 111.164 95.832 110.54 94.76V89.656ZM136.444 88.552C136.06 89.848 135.532 91.032 134.908 92.104C134.636 90.824 134.412 89.32 134.268 87.72H139.212V85.832H137.548L138.316 85.016C137.756 84.488 136.588 83.752 135.708 83.304L134.556 84.44C135.212 84.84 136.012 85.352 136.604 85.832H134.156C134.124 85.048 134.108 84.264 134.124 83.464H132.124C132.124 84.264 132.156 85.048 132.188 85.832H125.66V90.504C125.66 92.584 125.548 95.368 124.332 97.288C124.764 97.512 125.612 98.216 125.948 98.584C127.26 96.632 127.596 93.512 127.66 91.176H129.74C129.692 93.192 129.628 93.96 129.468 94.184C129.34 94.344 129.212 94.376 128.988 94.376C128.732 94.376 128.188 94.36 127.612 94.312C127.9 94.792 128.108 95.528 128.14 96.088C128.876 96.104 129.564 96.104 129.98 96.04C130.46 95.96 130.78 95.816 131.084 95.4C131.452 94.936 131.548 93.512 131.596 90.152C131.596 89.928 131.612 89.432 131.612 89.432H127.66V87.72H132.3C132.508 90.12 132.86 92.36 133.404 94.168C132.476 95.208 131.372 96.088 130.14 96.76C130.54 97.128 131.228 97.912 131.516 98.328C132.508 97.72 133.404 97 134.22 96.152C134.924 97.464 135.804 98.264 136.924 98.264C138.412 98.264 139.052 97.56 139.356 94.6C138.844 94.392 138.172 93.976 137.74 93.528C137.66 95.528 137.468 96.328 137.084 96.328C136.572 96.328 136.06 95.656 135.596 94.504C136.748 92.952 137.692 91.096 138.348 89.016L136.444 88.552ZM148.652 85.816V87.864C150.668 88.056 153.564 88.04 155.532 87.864V85.8C153.804 86.008 150.62 86.088 148.652 85.816ZM149.932 92.648L148.092 92.472C147.916 93.288 147.82 93.928 147.82 94.552C147.82 96.2 149.148 97.176 151.9 97.176C153.708 97.176 154.988 97.064 156.028 96.872L155.996 94.712C154.588 95 153.404 95.128 151.98 95.128C150.348 95.128 149.74 94.696 149.74 93.992C149.74 93.56 149.804 93.176 149.932 92.648ZM146.188 84.744L143.948 84.552C143.932 85.064 143.836 85.672 143.788 86.12C143.612 87.352 143.116 90.056 143.116 92.456C143.116 94.632 143.42 96.584 143.74 97.688L145.596 97.56C145.58 97.336 145.564 97.08 145.564 96.904C145.564 96.744 145.596 96.392 145.644 96.152C145.82 95.304 146.348 93.56 146.796 92.232L145.804 91.448C145.58 91.976 145.324 92.536 145.084 93.08C145.036 92.76 145.02 92.344 145.02 92.04C145.02 90.44 145.58 87.24 145.788 86.168C145.852 85.88 146.06 85.08 146.188 84.744ZM168.46 91.192V93.32H165.676V91.192H168.46ZM170.204 94.984V89.528H163.964V96.104H165.676V94.984H170.204ZM173.724 86.12H167.052C167.436 85.416 167.836 84.584 168.172 83.784L165.756 83.448C165.564 84.248 165.244 85.256 164.908 86.12H160.492V98.376H162.396V87.976H171.804V96.136C171.804 96.424 171.708 96.504 171.404 96.504C171.084 96.52 170.012 96.536 169.068 96.472C169.34 96.984 169.628 97.848 169.692 98.392C171.132 98.392 172.156 98.36 172.828 98.056C173.5 97.752 173.724 97.208 173.724 96.168V86.12ZM189.132 84.28H186.812C186.876 84.536 186.956 84.984 186.988 85.384C187.02 85.816 187.036 86.648 187.052 87.544C186.444 87.56 185.82 87.576 185.244 87.576C184.396 87.576 183.612 87.512 182.828 87.4V89.432C183.612 89.464 184.604 89.512 185.292 89.512C185.884 89.512 186.476 89.496 187.084 89.48C187.084 89.704 187.084 89.896 187.084 90.056C187.084 92.76 186.828 94.184 185.596 95.464C185.148 95.96 184.348 96.472 183.74 96.744L185.58 98.2C188.78 96.168 189.068 93.848 189.068 90.072C189.068 89.912 189.068 89.672 189.068 89.4C189.964 89.352 190.796 89.288 191.436 89.208L191.452 87.128C190.796 87.256 189.948 87.352 189.052 87.416C189.052 86.536 189.052 85.704 189.052 85.368C189.068 85.016 189.084 84.632 189.132 84.28ZM181.18 84.552L178.812 84.312C178.796 84.712 178.78 85.256 178.7 85.704C178.508 87 178.188 89.464 178.188 92.088C178.188 94.072 178.748 96.312 179.1 97.272L180.876 97.096C180.86 96.872 180.844 96.6 180.844 96.44C180.844 96.248 180.876 95.896 180.94 95.656C181.132 94.744 181.564 93.128 182.028 91.752L181.036 91.112C180.764 91.704 180.476 92.472 180.268 92.968C179.836 90.984 180.396 87.624 180.796 85.848C180.876 85.512 181.036 84.936 181.18 84.552ZM195.42 85.992L195.628 88.184C197.484 87.784 200.748 87.432 202.252 87.272C201.18 88.088 199.884 89.912 199.884 92.216C199.884 95.672 203.052 97.48 206.396 97.704L207.148 95.512C204.444 95.368 201.98 94.408 201.98 91.784C201.98 89.88 203.42 87.8 205.356 87.288C206.204 87.096 207.58 87.096 208.444 87.08L208.428 85.032C207.308 85.064 205.548 85.176 203.9 85.304C200.972 85.56 198.332 85.8 197.004 85.912C196.684 85.944 196.06 85.976 195.42 85.992ZM30.848 108.584H28.432C28.496 109.032 28.528 109.544 28.528 110.184V113.224C28.528 115.72 28.32 116.92 27.216 118.12C26.256 119.16 24.96 119.768 23.376 120.136L25.04 121.896C26.208 121.528 27.872 120.744 28.928 119.592C30.112 118.28 30.784 116.792 30.784 113.352V110.184C30.784 109.544 30.816 109.032 30.848 108.584ZM23.424 108.712H21.12C21.168 109.08 21.184 109.64 21.184 109.944V115.336C21.184 115.816 21.12 116.44 21.104 116.744H23.424C23.392 116.376 23.376 115.752 23.376 115.352V109.944C23.376 109.432 23.392 109.08 23.424 108.712ZM40.624 119.464C40.624 120.104 40.56 121.064 40.464 121.704H42.96C42.896 121.048 42.816 119.928 42.816 119.464V114.936C44.544 115.528 46.944 116.456 48.592 117.32L49.504 115.112C48.032 114.392 44.96 113.256 42.816 112.632V110.264C42.816 109.608 42.896 108.904 42.96 108.344H40.464C40.576 108.904 40.624 109.704 40.624 110.264V119.464ZM61.248 120.648L62.592 121.752C62.736 121.624 62.928 121.464 63.28 121.272C65.072 120.36 67.376 118.632 68.704 116.904L67.472 115.144C66.4 116.696 64.816 117.96 63.52 118.52V110.152C63.52 109.432 63.616 108.808 63.632 108.76H61.248C61.264 108.808 61.376 109.416 61.376 110.136V119.464C61.376 119.896 61.312 120.344 61.248 120.648ZM53.84 120.408L55.792 121.704C57.152 120.488 58.16 118.92 58.64 117.112C59.072 115.496 59.12 112.12 59.12 110.232C59.12 109.56 59.216 108.856 59.232 108.776H56.88C56.976 109.176 57.024 109.608 57.024 110.248C57.024 112.184 57.008 115.208 56.56 116.584C56.112 117.944 55.248 119.416 53.84 120.408ZM85.024 110.344L83.456 109.336C83.024 109.448 82.512 109.464 82.192 109.464H74.8C74.272 109.464 73.36 109.384 72.88 109.336V111.592C73.296 111.56 74.064 111.528 74.784 111.528H82.24C82.032 112.888 81.424 114.712 80.368 116.04C79.072 117.656 77.264 119.048 74.096 119.8L75.84 121.704C78.688 120.792 80.816 119.208 82.272 117.288C83.6 115.512 84.304 113.032 84.672 111.464C84.752 111.128 84.88 110.664 85.024 110.344ZM102.624 113.016L101.44 111.944C101.184 112.024 100.496 112.056 100.144 112.056H92.72C92.192 112.056 91.552 112.008 91.056 111.928V113.992C91.648 113.928 92.192 113.896 92.72 113.896H99.664C99.28 114.568 98.272 115.704 97.36 116.328L98.96 117.448C100.096 116.568 101.584 114.552 102.144 113.656C102.24 113.496 102.48 113.192 102.624 113.016ZM97.136 114.696H94.928C94.992 115.032 95.04 115.448 95.04 115.832C95.04 117.848 94.704 119.272 92.896 120.504C92.416 120.84 92.016 121.032 91.6 121.192L93.296 122.552C97.04 120.488 97.04 117.688 97.136 114.696ZM110.56 108.472L109.808 110.36C112.064 110.648 116.608 111.672 118.464 112.36L119.28 110.36C117.264 109.656 112.656 108.728 110.56 108.472ZM109.824 112.776L109.088 114.712C111.472 115.096 115.568 116.024 117.408 116.728L118.192 114.728C116.176 114.024 112.112 113.16 109.824 112.776ZM109.008 117.352L108.208 119.368C110.768 119.752 115.824 120.856 117.984 121.752L118.864 119.752C116.672 118.936 111.744 117.784 109.008 117.352ZM136.448 108.584H134.032C134.096 109.032 134.128 109.544 134.128 110.184V113.224C134.128 115.72 133.92 116.92 132.816 118.12C131.856 119.16 130.56 119.768 128.976 120.136L130.64 121.896C131.808 121.528 133.472 120.744 134.528 119.592C135.712 118.28 136.384 116.792 136.384 113.352V110.184C136.384 109.544 136.416 109.032 136.448 108.584ZM129.024 108.712H126.72C126.768 109.08 126.784 109.64 126.784 109.944V115.336C126.784 115.816 126.72 116.44 126.704 116.744H129.024C128.992 116.376 128.976 115.752 128.976 115.352V109.944C128.976 109.432 128.992 109.08 129.024 108.712ZM142.672 113.592V116.104C143.264 116.056 144.336 116.024 145.248 116.024H153.84C154.512 116.024 155.328 116.088 155.712 116.104V113.592C155.296 113.624 154.592 113.688 153.84 113.688H145.248C144.416 113.688 143.248 113.64 142.672 113.592ZM166.08 108.472L163.696 108.232C163.728 109.24 163.584 110.408 163.36 111.608C162.544 111.688 161.792 111.736 161.296 111.752C160.704 111.768 160.176 111.8 159.584 111.752L159.776 113.928C160.272 113.848 161.104 113.736 161.568 113.656C161.856 113.624 162.368 113.56 162.944 113.496C162.352 115.688 161.248 118.92 159.696 121.016L161.776 121.848C163.248 119.496 164.432 115.704 165.04 113.272C165.504 113.24 165.904 113.208 166.16 113.208C167.152 113.208 167.712 113.384 167.712 114.664C167.712 116.248 167.488 118.184 167.056 119.096C166.8 119.624 166.4 119.784 165.856 119.784C165.44 119.784 164.512 119.624 163.904 119.448L164.24 121.56C164.784 121.672 165.552 121.784 166.16 121.784C167.376 121.784 168.256 121.432 168.784 120.312C169.472 118.92 169.696 116.328 169.696 114.44C169.696 112.136 168.496 111.384 166.8 111.384C166.464 111.384 166 111.416 165.456 111.448C165.568 110.872 165.696 110.28 165.792 109.8C165.872 109.4 165.984 108.888 166.08 108.472ZM173.2 107.144L171.92 107.656C172.368 108.264 172.88 109.208 173.216 109.864L174.48 109.32C174.208 108.76 173.616 107.752 173.2 107.144ZM171.296 107.864L170.032 108.392C170.4 108.904 170.8 109.672 171.12 110.28L169.68 110.904C170.816 112.312 171.952 115.128 172.368 116.904L174.4 115.976C173.952 114.552 172.752 111.88 171.792 110.392L172.576 110.056C172.272 109.464 171.696 108.456 171.296 107.864ZM22.208 143.368V141.48H29.616V143.368H22.208ZM29.616 137.8V139.688H22.208V137.8H29.616ZM29.616 134.168V136.008H22.208V134.168H29.616ZM20.288 132.312V146.216H22.208V145.224H29.616V146.216H31.632V132.312H20.288ZM41.744 138.184C41.2 138.328 40.64 138.472 40.08 138.616V136.216H41.712V134.456H40.08V131.464H38.208V134.456H36.224V136.216H38.208V139.064C37.392 139.256 36.624 139.432 35.984 139.56L36.432 141.384L38.208 140.92V144.344C38.208 144.568 38.128 144.632 37.904 144.648C37.696 144.648 37.056 144.648 36.432 144.616C36.656 145.112 36.912 145.88 36.96 146.36C38.08 146.36 38.848 146.312 39.376 146.024C39.92 145.72 40.08 145.272 40.08 144.328V140.44C40.72 140.264 41.344 140.088 41.968 139.912L41.744 138.184ZM48.4 140.664V141.64H44.32V140.664H48.4ZM44.32 144.184V143.128H48.4V144.184H44.32ZM42.512 146.392H44.32V145.704H48.4V146.328H50.288V139.096H42.512V146.392ZM45.536 136.472C44.608 136.472 44.448 136.392 44.448 135.784V135.112C46.352 134.728 48.48 134.184 50.112 133.528L48.704 132.152C47.648 132.648 46.048 133.16 44.448 133.56V131.464H42.544V135.8C42.544 137.64 43.12 138.184 45.344 138.184H48.448C50.272 138.184 50.832 137.576 51.072 135.32C50.544 135.224 49.744 134.92 49.344 134.632C49.232 136.216 49.104 136.472 48.304 136.472H45.536ZM63.648 132.104H61.328C61.376 132.296 61.44 132.84 61.488 133.496C61.504 133.624 61.504 133.784 61.52 133.992C59.344 134.024 56.432 134.088 54.608 134.088L54.656 136.024C56.624 135.912 59.12 135.816 61.536 135.784C61.552 136.136 61.552 136.504 61.552 136.856C61.344 136.824 61.136 136.808 60.912 136.808C59.168 136.808 57.712 137.992 57.712 139.8C57.712 141.752 59.232 142.744 60.464 142.744C60.72 142.744 60.96 142.712 61.184 142.664C60.304 143.624 58.896 144.152 57.28 144.488L58.992 146.184C62.896 145.096 64.112 142.44 64.112 140.36C64.112 139.528 63.92 138.776 63.536 138.168C63.536 137.464 63.52 136.584 63.52 135.768C65.696 135.768 67.184 135.8 68.144 135.848L68.16 133.96C67.328 133.944 65.136 133.976 63.52 133.976C63.536 133.784 63.536 133.608 63.536 133.48C63.552 133.224 63.616 132.36 63.648 132.104ZM59.632 139.768C59.632 138.92 60.24 138.488 60.864 138.488C61.296 138.488 61.68 138.68 61.904 139.048C62.128 140.456 61.536 140.968 60.864 140.968C60.224 140.968 59.632 140.504 59.632 139.768ZM70.155 140.52L72.075 142.504C72.347 142.072 72.715 141.448 73.083 140.92C73.771 140.008 74.923 138.44 75.563 137.64C76.027 137.048 76.347 136.968 76.891 137.592C77.659 138.44 78.859 139.944 79.851 141.112C80.859 142.312 82.187 143.912 83.339 145L85.019 143.112C83.499 141.736 82.123 140.312 81.099 139.192C80.155 138.168 78.891 136.52 77.787 135.464C76.619 134.312 75.579 134.424 74.475 135.704C73.467 136.856 72.251 138.504 71.499 139.272C71.019 139.784 70.635 140.136 70.155 140.52ZM81.019 133.976L79.627 134.552C80.219 135.384 80.635 136.152 81.099 137.16L82.539 136.536C82.171 135.8 81.483 134.648 81.019 133.976ZM83.163 133.096L81.787 133.736C82.379 134.536 82.811 135.256 83.339 136.264L84.731 135.592C84.363 134.872 83.643 133.736 83.163 133.096ZM89.611 136.872L89.723 138.76C92.139 138.904 94.715 138.904 96.683 138.776C96.939 139.32 97.243 139.88 97.579 140.44C97.099 140.392 96.235 140.312 95.563 140.248L95.403 141.768C96.571 141.896 98.299 142.104 99.195 142.28L100.171 140.808C99.883 140.536 99.659 140.296 99.451 139.992C99.163 139.576 98.891 139.08 98.619 138.568C99.579 138.44 100.443 138.264 101.179 138.072L100.859 136.184C100.075 136.392 99.115 136.664 97.803 136.824C97.707 136.568 97.611 136.328 97.531 136.104C97.451 135.864 97.371 135.608 97.291 135.352C98.347 135.208 99.355 135 100.235 134.76L99.979 132.92C98.955 133.24 97.931 133.464 96.827 133.608C96.715 133.064 96.619 132.504 96.539 131.928L94.395 132.168C94.587 132.728 94.747 133.24 94.907 133.752C93.435 133.8 91.803 133.736 89.899 133.512L90.011 135.352C92.027 135.544 93.899 135.576 95.403 135.496C95.499 135.768 95.595 136.072 95.723 136.44C95.787 136.616 95.851 136.808 95.931 137C94.155 137.112 91.995 137.096 89.611 136.872ZM92.683 140.584L90.699 140.2C90.331 140.968 89.979 141.752 90.011 142.776C90.043 145.064 92.027 146.008 95.227 146.008C96.539 146.008 97.995 145.896 99.115 145.704L99.227 143.672C98.091 143.896 96.731 144.024 95.211 144.024C93.099 144.024 91.979 143.544 91.979 142.36C91.979 141.672 92.299 141.112 92.683 140.584ZM110.027 133.272C109.339 132.792 107.963 132.184 106.971 131.816L106.075 133.096C107.115 133.512 108.443 134.184 109.083 134.68L110.027 133.272ZM109.771 135.32C108.187 136.104 106.523 136.872 105.419 137.336L106.027 138.968C107.275 138.344 108.811 137.576 110.219 136.824L109.771 135.32ZM115.019 141.448C114.619 142.088 114.139 142.6 113.531 143.016C112.555 142.776 111.547 142.536 110.555 142.328C110.763 142.04 110.955 141.752 111.163 141.448H115.019ZM112.299 138.904C113.755 138.152 114.603 137.128 114.859 136.408C115.227 137.448 116.571 139.016 119.323 139.64C119.595 139.224 120.027 138.504 120.347 138.088C116.523 137.256 115.835 135.416 115.835 134.664V134.408H117.579C117.387 134.904 117.163 135.384 116.971 135.752L118.587 136.376C119.083 135.576 119.659 134.36 120.075 133.272L118.651 132.792L118.363 132.888H113.515C113.659 132.552 113.803 132.216 113.915 131.88L112.171 131.464C111.723 132.872 110.843 134.264 109.851 135.144C110.267 135.384 110.971 135.928 111.291 136.232C111.787 135.736 112.267 135.112 112.699 134.408H113.867V134.664C113.867 135.448 113.019 137.4 109.371 138.184C109.659 138.504 110.043 139.08 110.267 139.464L110.011 139.88H105.611V141.448H108.971C108.475 142.184 107.979 142.872 107.547 143.416L109.387 143.976L109.563 143.736C110.075 143.848 110.587 143.976 111.083 144.088C109.659 144.472 107.883 144.664 105.755 144.744C106.043 145.176 106.331 145.848 106.475 146.408C109.627 146.168 112.043 145.736 113.851 144.84C115.659 145.368 117.275 145.912 118.491 146.392L119.659 144.824C118.587 144.44 117.195 144.008 115.643 143.576C116.251 143 116.747 142.296 117.147 141.448H120.155V139.88H112.171C112.363 139.592 112.539 139.304 112.715 139.016L112.299 138.904Z" fill="white"/>
<path d="M30.6504 52.4902L30.7412 52.9746L30.8623 52.4902L42.3662 13.9219H46.1807L32.4062 58H29.1367L15.3623 13.9219H19.1465L30.6504 52.4902ZM56.8369 58H53.3857V13.9219H56.8369V58ZM88.5938 47.1621C88.5938 44.6999 87.8874 42.7624 86.4746 41.3496C85.082 39.9368 82.4684 38.5846 78.6338 37.293C74.7992 36.0013 71.9837 34.5583 70.1875 32.9639C67.8262 30.8851 66.6455 28.1403 66.6455 24.7295C66.6455 21.359 67.806 18.6143 70.127 16.4951C72.4479 14.376 75.445 13.3164 79.1182 13.3164C82.8721 13.3164 85.9398 14.5475 88.3213 17.0098C90.7028 19.472 91.8936 22.6406 91.8936 26.5156H88.4121C88.4121 23.5488 87.5745 21.1572 85.8994 19.3408C84.2445 17.5042 81.984 16.5859 79.1182 16.5859C76.333 16.5859 74.1331 17.3428 72.5186 18.8564C70.9242 20.3499 70.127 22.2874 70.127 24.6689C70.127 26.889 70.8838 28.7054 72.3975 30.1182C73.9111 31.5309 76.3229 32.7923 79.6328 33.9023C82.9427 34.9922 85.4453 36.1325 87.1406 37.3232C88.8359 38.4938 90.0872 39.8763 90.8945 41.4707C91.7018 43.0651 92.1055 44.9421 92.1055 47.1016C92.1055 50.5527 90.9349 53.3379 88.5938 55.457C86.2728 57.556 83.195 58.6055 79.3604 58.6055C76.777 58.6055 74.4157 58.0807 72.2764 57.0312C70.1572 55.9616 68.4922 54.4378 67.2812 52.46C66.0905 50.4619 65.4951 48.1107 65.4951 45.4062H68.9463C68.9463 48.5143 69.8848 50.9564 71.7617 52.7324C73.6387 54.5085 76.1715 55.3965 79.3604 55.3965C82.1455 55.3965 84.3757 54.6497 86.0508 53.1562C87.7461 51.6628 88.5938 49.6647 88.5938 47.1621ZM104.063 58H100.612V13.9219H104.063V58ZM142.45 40.7441C142.45 46.4355 141.199 50.8353 138.696 53.9434C136.214 57.0514 132.722 58.6055 128.222 58.6055C123.761 58.6055 120.26 57.0514 117.717 53.9434C115.194 50.8353 113.923 46.4658 113.902 40.835V31.2383C113.902 25.5671 115.164 21.1673 117.687 18.0391C120.209 14.8906 123.701 13.3164 128.161 13.3164C132.682 13.3164 136.194 14.8906 138.696 18.0391C141.199 21.1875 142.45 25.6175 142.45 31.3291V40.7441ZM138.969 31.1777C138.969 26.3542 138.04 22.7314 136.184 20.3096C134.327 17.8877 131.653 16.6768 128.161 16.6768C124.791 16.6768 122.157 17.8675 120.26 20.249C118.363 22.6104 117.394 26.1523 117.354 30.875V40.7441C117.354 45.5879 118.312 49.2308 120.229 51.6729C122.147 54.0947 124.811 55.3057 128.222 55.3057C131.733 55.3057 134.397 54.0947 136.214 51.6729C138.05 49.251 138.969 45.6081 138.969 40.7441V31.1777ZM179.414 58H175.963L155.165 20.4609V58H151.684V13.9219H155.165L175.993 51.5215V13.9219H179.414V58Z" fill="white"/>
<mask id="mask0" mask-type="alpha" maskUnits="userSpaceOnUse" x="0" y="9" width="249" height="21">
<rect y="9" width="249" height="21" fill="#C4C4C4"/>
</mask>
<g mask="url(#mask0)">
<path d="M30.6504 52.4902L30.7412 52.9746L30.8623 52.4902L42.3662 13.9219H46.1807L32.4062 58H29.1367L15.3623 13.9219H19.1465L30.6504 52.4902ZM56.8369 58H53.3857V13.9219H56.8369V58ZM88.5938 47.1621C88.5938 44.6999 87.8874 42.7624 86.4746 41.3496C85.082 39.9368 82.4684 38.5846 78.6338 37.293C74.7992 36.0013 71.9837 34.5583 70.1875 32.9639C67.8262 30.8851 66.6455 28.1403 66.6455 24.7295C66.6455 21.359 67.806 18.6143 70.127 16.4951C72.4479 14.376 75.445 13.3164 79.1182 13.3164C82.8721 13.3164 85.9398 14.5475 88.3213 17.0098C90.7028 19.472 91.8936 22.6406 91.8936 26.5156H88.4121C88.4121 23.5488 87.5745 21.1572 85.8994 19.3408C84.2445 17.5042 81.984 16.5859 79.1182 16.5859C76.333 16.5859 74.1331 17.3428 72.5186 18.8564C70.9242 20.3499 70.127 22.2874 70.127 24.6689C70.127 26.889 70.8838 28.7054 72.3975 30.1182C73.9111 31.5309 76.3229 32.7923 79.6328 33.9023C82.9427 34.9922 85.4453 36.1325 87.1406 37.3232C88.8359 38.4938 90.0872 39.8763 90.8945 41.4707C91.7018 43.0651 92.1055 44.9421 92.1055 47.1016C92.1055 50.5527 90.9349 53.3379 88.5938 55.457C86.2728 57.556 83.195 58.6055 79.3604 58.6055C76.777 58.6055 74.4157 58.0807 72.2764 57.0312C70.1572 55.9616 68.4922 54.4378 67.2812 52.46C66.0905 50.4619 65.4951 48.1107 65.4951 45.4062H68.9463C68.9463 48.5143 69.8848 50.9564 71.7617 52.7324C73.6387 54.5085 76.1715 55.3965 79.3604 55.3965C82.1455 55.3965 84.3757 54.6497 86.0508 53.1562C87.7461 51.6628 88.5938 49.6647 88.5938 47.1621ZM104.063 58H100.612V13.9219H104.063V58ZM142.45 40.7441C142.45 46.4355 141.199 50.8353 138.696 53.9434C136.214 57.0514 132.722 58.6055 128.222 58.6055C123.761 58.6055 120.26 57.0514 117.717 53.9434C115.194 50.8353 113.923 46.4658 113.902 40.835V31.2383C113.902 25.5671 115.164 21.1673 117.687 18.0391C120.209 14.8906 123.701 13.3164 128.161 13.3164C132.682 13.3164 136.194 14.8906 138.696 18.0391C141.199 21.1875 142.45 25.6175 142.45 31.3291V40.7441ZM138.969 31.1777C138.969 26.3542 138.04 22.7314 136.184 20.3096C134.327 17.8877 131.653 16.6768 128.161 16.6768C124.791 16.6768 122.157 17.8675 120.26 20.249C118.363 22.6104 117.394 26.1523 117.354 30.875V40.7441C117.354 45.5879 118.312 49.2308 120.229 51.6729C122.147 54.0947 124.811 55.3057 128.222 55.3057C131.733 55.3057 134.397 54.0947 136.214 51.6729C138.05 49.251 138.969 45.6081 138.969 40.7441V31.1777ZM179.414 58H175.963L155.165 20.4609V58H151.684V13.9219H155.165L175.993 51.5215V13.9219H179.414V58Z" fill="#5FBBB5"/>
</g>
</svg>
